<?xml version="1.0" standalone="no"?>
<!DOCTYPE svg PUBLIC "-//W3C//DTD SVG 1.1//EN" "http://www.w3.org/Graphics/SVG/1.1/DTD/svg11.dtd" >
<svg xmlns="http://www.w3.org/2000/svg" xmlns:xlink="http://www.w3.org/1999/xlink" version="1.1">
<metadata>
Created by FontForge 20170924 at Thu Dec 21 20:02:16 2017
 By www-data
Copyright (C)2017 Commercial Type.
</metadata>
<defs>
<font id="ChobaniSerifWeb-Regular" horiz-adv-x="540" >
  <font-face 
    font-family="Chobani Serif Web Regular"
    font-weight="400"
    font-stretch="normal"
    units-per-em="1000"
    panose-1="0 0 0 0 0 0 0 0 0 0"
    ascent="800"
    descent="-200"
    x-height="500"
    cap-height="682"
    bbox="-118 -240 1091 938"
    underline-thickness="50"
    underline-position="-84"
    unicode-range="U+000D-FB04"
  />
<missing-glyph horiz-adv-x="190" 
 />
    <glyph glyph-name="f_i" unicode="fi" horiz-adv-x="532" 
d="M102 521q0 54 17.5 94.5t46.5 68.5t66 42t77 14q20 0 40 -4t35.5 -12t25.5 -20t10 -28q0 -20 -11.5 -34.5t-34.5 -14.5q-20 0 -31 9.5t-21 20.5t-22 20.5t-34 9.5q-38 0 -59.5 -32t-21.5 -86v-69h229l24 11q16 7 16 -14v-449l44 -4v-44h-171v44l44 4v402h-186v-402l52 -4
v-44h-179v44l44 4v402h-79v50h79v21v0z" />
    <glyph glyph-name="f_l" unicode="fl" horiz-adv-x="537" 
d="M23 500h79v10q0 55 16.5 97.5t44 72t62.5 45t73 15.5q36 0 58.5 -6.5t34.5 -17.5l47 22q16 8 16 -14v-676l44 -4v-44h-171v44l44 4v591q-12 14 -37 30t-62 16q-46 0 -66.5 -33.5t-20.5 -93.5v-58h97v-50h-97v-402l52 -4v-44h-179v44l44 4v402h-79v50z" />
    <glyph glyph-name="f_b" unicode="fb" horiz-adv-x="863" 
d="M23 500h79v10q0 55 16.5 97.5t44 72t62.5 45t73 15.5q36 0 58.5 -6.5t34.5 -17.5l43 20q20 9 20 -12v-278q6 7 18 18.5t30 22t42.5 18t56.5 7.5q47 0 87.5 -16.5t70 -49t46.5 -79.5t17 -107q0 -61 -20.5 -111t-55 -86t-80 -55.5t-95.5 -19.5q-53 0 -82.5 15t-45.5 30
l-52 -38q-8 -6 -14 -4.5t-6 8.5v640q-12 14 -37 30t-62 16q-46 0 -66.5 -33.5t-20.5 -93.5v-58h97v-50h-97v-402l52 -4v-44h-179v44l44 4v402h-79v50zM591 458q-28 0 -53 -9.5t-43.5 -25t-29.5 -35t-11 -39.5v-202q0 -43 28 -74t82 -31q32 0 62 15t52.5 42t36 65.5
t13.5 85.5q0 100 -38.5 154t-98.5 54z" />
    <glyph glyph-name="f_f" unicode="ff" horiz-adv-x="574" 
d="M23 500h79v13q0 51 13 91.5t36.5 69t54.5 43.5t67 15q34 0 50.5 -14t16.5 -35q0 -17 -12 -29.5t-35 -12.5q-14 0 -22.5 5.5t-15.5 12t-13 12t-15 5.5q-20 0 -31 -30.5t-11 -84.5v-61h186v21q0 51 13 91.5t36.5 69t55 43.5t68.5 15q35 0 53 -14.5t18 -36.5
q0 -18 -12 -30.5t-36 -12.5q-14 0 -24 6t-17.5 12.5t-15 12.5t-16.5 6q-20 0 -30 -30t-10 -84v-69h97v-50h-97v-402l52 -4v-44h-179v44l44 4v402h-186v-402l52 -4v-44h-179v44l44 4v402h-79v50z" />
    <glyph glyph-name="f_f_b" unicode="ffb" horiz-adv-x="1132" 
d="M23 500h79v13q0 51 13 91.5t36.5 69t54.5 43.5t67 15q34 0 50.5 -14t16.5 -35q0 -17 -12 -29.5t-35 -12.5q-14 0 -22.5 5.5t-15.5 12t-13 12t-15 5.5q-20 0 -31 -30.5t-11 -84.5v-61h186v10q0 55 16.5 97.5t44 72t62.5 45t73 15.5q36 0 58.5 -6.5t34.5 -17.5l43 20
q20 9 20 -12v-278q6 7 18 18.5t30 22t42.5 18t56.5 7.5q47 0 87.5 -16.5t70 -49t46.5 -79.5t17 -107q0 -61 -20.5 -111t-55 -86t-80 -55.5t-95.5 -19.5q-53 0 -82.5 15t-45.5 30l-52 -38q-8 -6 -14 -4.5t-6 8.5v640q-12 14 -37 30t-62 16q-46 0 -66.5 -33.5t-20.5 -93.5v-58
h97v-50h-97v-402l52 -4v-44h-179v44l44 4v402h-186v-402l52 -4v-44h-179v44l44 4v402h-79v50zM860 458q-28 0 -53 -9.5t-43.5 -25t-29.5 -35t-11 -39.5v-202q0 -43 28 -74t82 -31q32 0 62 15t52.5 42t36 65.5t13.5 85.5q0 100 -38.5 154t-98.5 54z" />
    <glyph glyph-name="f_f_h" unicode="ffh" horiz-adv-x="1108" 
d="M23 500h79v13q0 51 13 91.5t36.5 69t54.5 43.5t67 15q34 0 50.5 -14t16.5 -35q0 -17 -12 -29.5t-35 -12.5q-14 0 -22.5 5.5t-15.5 12t-13 12t-15 5.5q-20 0 -31 -30.5t-11 -84.5v-61h186v10q0 55 16.5 97.5t44 72t62.5 45t73 15.5q36 0 58.5 -6.5t34.5 -17.5l47 22
q16 8 16 -14v-279q4 6 13.5 17.5t26 22.5t40.5 19t57 8q39 0 70.5 -12t53 -33.5t33 -50.5t11.5 -63v-305l44 -4v-44h-171v44l44 4v294q0 51 -30.5 84t-80.5 33q-26 0 -47 -8.5t-35 -22t-21.5 -31t-7.5 -36.5v-313l44 -4v-44h-171v44l44 4v591q-12 14 -37 30t-62 16
q-46 0 -66.5 -33.5t-20.5 -93.5v-58h97v-50h-97v-402l52 -4v-44h-179v44l44 4v402h-186v-402l52 -4v-44h-179v44l44 4v402h-79v50z" />
    <glyph glyph-name="f_f_i" unicode="ffi" horiz-adv-x="801" 
d="M58 44l44 4v402h-79v50h79v13q0 51 13 91.5t36.5 69t54.5 43.5t67 15q34 0 50.5 -14t16.5 -35q0 -17 -12 -29.5t-35 -12.5q-14 0 -22.5 5.5t-15.5 12t-13 12t-15 5.5q-20 0 -31 -30.5t-11 -84.5v-61h186v21q0 54 17.5 94.5t46.5 68.5t66 42t77 14q20 0 40 -4t35.5 -12
t25.5 -20t10 -28q0 -20 -11.5 -34.5t-34.5 -14.5q-20 0 -31 9.5t-21 20.5t-22 20.5t-34 9.5q-38 0 -59.5 -32t-21.5 -86v-69h229l24 11q16 7 16 -14v-449l44 -4v-44h-171v44l44 4v402h-186v-402l52 -4v-44h-179v44l44 4v402h-186v-402l52 -4v-44h-179v44z" />
    <glyph glyph-name="f_f_j" unicode="ffj" horiz-adv-x="798" 
d="M23 500h79v13q0 51 13 91.5t36.5 69t54.5 43.5t67 15q34 0 50.5 -14t16.5 -35q0 -17 -12 -29.5t-35 -12.5q-14 0 -22.5 5.5t-15.5 12t-13 12t-15 5.5q-20 0 -31 -30.5t-11 -84.5v-61h186v21q0 54 17.5 94.5t46.5 68.5t66 42t77 14q20 0 40 -4t35.5 -12t25.5 -20t10 -28
q0 -20 -11.5 -34.5t-34.5 -14.5q-20 0 -31 9.5t-21 20.5t-22 20.5t-34 9.5q-38 0 -59.5 -32t-21.5 -86v-69h230l23 11q16 8 16 -14v-537q0 -52 -29 -84.5t-86 -31.5q-25 0 -44.5 7t-33 19t-21 26.5t-7.5 29.5q0 27 24 27q10 0 15.5 -5t11.5 -15q9 -14 19 -20t27 -6
q20 0 30.5 14.5t10.5 40.5v488h-186v-402l52 -4v-44h-179v44l44 4v402h-186v-402l52 -4v-44h-179v44l44 4v402h-79v50z" />
    <glyph glyph-name="f_f_k" unicode="ffk" horiz-adv-x="1105" 
d="M23 500h79v13q0 51 13 91.5t36.5 69t54.5 43.5t67 15q34 0 50.5 -14t16.5 -35q0 -17 -12 -29.5t-35 -12.5q-14 0 -22.5 5.5t-15.5 12t-13 12t-15 5.5q-20 0 -31 -30.5t-11 -84.5v-61h186v10q0 55 16.5 97.5t44 72t62.5 45t73 15.5q36 0 58.5 -6.5t34.5 -17.5l47 22
q16 8 16 -14v-452l202 180l-45 4v44h167v-44l-43 -4l-109 -96l145 -308l44 -4v-44h-176v44l43 4l-120 252l-108 -95v-157l44 -4v-44h-171v44l44 4v591q-12 14 -37 30t-62 16q-46 0 -66.5 -33.5t-20.5 -93.5v-58h97v-50h-97v-402l52 -4v-44h-179v44l44 4v402h-186v-402l52 -4
v-44h-179v44l44 4v402h-79v50z" />
    <glyph glyph-name="f_f_l" unicode="ffl" horiz-adv-x="806" 
d="M58 44l44 4v402h-79v50h79v13q0 51 13 91.5t36.5 69t54.5 43.5t67 15q34 0 50.5 -14t16.5 -35q0 -17 -12 -29.5t-35 -12.5q-14 0 -22.5 5.5t-15.5 12t-13 12t-15 5.5q-20 0 -31 -30.5t-11 -84.5v-61h186v10q0 55 16.5 97.5t44 72t62.5 45t73 15.5q36 0 58.5 -6.5
t34.5 -17.5l47 22q16 8 16 -14v-676l44 -4v-44h-171v44l44 4v591q-12 14 -37 30t-62 16q-46 0 -66.5 -33.5t-20.5 -93.5v-58h97v-50h-97v-402l52 -4v-44h-179v44l44 4v402h-186v-402l52 -4v-44h-179v44z" />
    <glyph glyph-name="f_h" unicode="fh" horiz-adv-x="839" 
d="M23 500h79v10q0 55 16.5 97.5t44 72t62.5 45t73 15.5q36 0 58.5 -6.5t34.5 -17.5l47 22q16 8 16 -14v-279q4 6 13.5 17.5t26 22.5t40.5 19t57 8q39 0 70.5 -12t53 -33.5t33 -50.5t11.5 -63v-305l44 -4v-44h-171v44l44 4v294q0 51 -30.5 84t-80.5 33q-26 0 -47 -8.5
t-35 -22t-21.5 -31t-7.5 -36.5v-313l44 -4v-44h-171v44l44 4v591q-12 14 -37 30t-62 16q-46 0 -66.5 -33.5t-20.5 -93.5v-58h97v-50h-97v-402l52 -4v-44h-179v44l44 4v402h-79v50z" />
    <glyph glyph-name="f_j" unicode="fj" horiz-adv-x="529" 
d="M454 -40q0 -52 -29 -84.5t-86 -31.5q-25 0 -44.5 7t-33 19t-21 26.5t-7.5 29.5q0 27 24 27q10 0 15.5 -5t11.5 -15q9 -14 19 -20t27 -6q20 0 30.5 14.5t10.5 40.5v488h-186v-402l52 -4v-44h-179v44l44 4v402h-79v50h79v21q0 54 17.5 94.5t46.5 68.5t66 42t77 14
q20 0 40 -4t35.5 -12t25.5 -20t10 -28q0 -20 -11.5 -34.5t-34.5 -14.5q-20 0 -31 9.5t-21 20.5t-22 20.5t-34 9.5q-38 0 -59.5 -32t-21.5 -86v-69h230l23 11q16 8 16 -14v-537v0z" />
    <glyph glyph-name="f_k" unicode="fk" horiz-adv-x="836" 
d="M23 500h79v10q0 55 16.5 97.5t44 72t62.5 45t73 15.5q36 0 58.5 -6.5t34.5 -17.5l47 22q16 8 16 -14v-452l202 180l-45 4v44h167v-44l-43 -4l-109 -96l145 -308l44 -4v-44h-176v44l43 4l-120 252l-108 -95v-157l44 -4v-44h-171v44l44 4v591q-12 14 -37 30t-62 16
q-46 0 -66.5 -33.5t-20.5 -93.5v-58h97v-50h-97v-402l52 -4v-44h-179v44l44 4v402h-79v50z" />
    <glyph glyph-name=".notdef" horiz-adv-x="190" 
 />
    <glyph glyph-name="NULL" horiz-adv-x="0" 
 />
    <glyph glyph-name="NULL" horiz-adv-x="0" 
 />
    <glyph glyph-name="nonmarkingreturn" unicode="&#xd;" horiz-adv-x="190" 
 />
    <glyph glyph-name="space" unicode=" " horiz-adv-x="190" 
 />
    <glyph glyph-name="percent" unicode="%" horiz-adv-x="702" 
d="M128 -31l-43 31l423 604q-45 -18 -101 -18q-32 0 -58 5t-49 14q22 -41 22 -90q0 -38 -10 -70.5t-29 -55.5t-45 -36t-57 -13q-32 0 -59.5 13t-47.5 36t-32 55.5t-12 70.5t12 70.5t32 56t46.5 36.5t55.5 13q23 0 44 -9t46.5 -19.5t60.5 -19t87 -8.5q27 0 47.5 4t38 11.5
t33 16.5t32.5 20q8 5 17.5 4t16 -6.5t8 -15t-5.5 -19.5zM262 503q0 75 -24.5 109.5t-62.5 34.5q-30 0 -47.5 -31.5t-17.5 -86.5q0 -69 21 -107t56 -38q36 0 55.5 32.5t19.5 86.5zM380 165q0 38 12.5 70.5t33 56t48 36.5t57.5 13q28 0 54 -13t45 -36.5t30.5 -56t11.5 -70.5
t-10 -70.5t-29 -55.5t-45 -36t-57 -13q-32 0 -59.5 13t-47.5 36t-32 55.5t-12 70.5zM612 153q0 75 -24.5 109.5t-62.5 34.5q-30 0 -47.5 -31.5t-17.5 -86.5q0 -69 21 -107t56 -38q36 0 55.5 32.5t19.5 86.5z" />
    <glyph glyph-name="ampersand" unicode="&#x26;" horiz-adv-x="660" 
d="M447 73q-29 -37 -75 -61.5t-113 -24.5q-53 0 -94.5 13t-70 35.5t-43 54t-14.5 69.5q0 40 14.5 69.5t37 51.5t48.5 37t50 25q-43 46 -69 86t-26 88q0 39 13.5 71.5t38 56t59 37t76.5 13.5t76 -12t58 -33t37 -50t13 -64q0 -36 -11.5 -65t-33.5 -53t-52 -43t-66 -34
l149 -157q6 17 9 32q20 88 48 133.5t73 45.5q26 0 38 -12.5t12 -29.5q0 -31 -41 -48q-15 -6 -26.5 -13.5t-20.5 -19t-16.5 -29t-14.5 -43.5q-4 -14 -9 -28.5t-12 -29.5l88 -93l51 -4v-44h-110zM177 534q0 -42 25 -79t66 -81q58 29 86 67t28 91q0 54 -30.5 82t-72.5 28
t-72 -27t-30 -81zM130 169q0 -27 10 -50t28 -40t44 -27t58 -10q48 0 82.5 19.5t58.5 49.5l-194 200q-35 -23 -61 -56.5t-26 -85.5z" />
    <glyph glyph-name="quotesingle" unicode="'" horiz-adv-x="210" 
d="M105 483q-14 0 -20 20q-4 12 -9 30.5t-10 38t-8.5 37.5t-3.5 30q0 24 12.5 39.5t38.5 15.5q28 0 39.5 -15.5t11.5 -39.5q0 -12 -3.5 -30t-8.5 -37.5t-10 -38t-9 -30.5q-6 -20 -20 -20z" />
    <glyph glyph-name="parenleft" unicode="(" horiz-adv-x="283" 
d="M52 338q0 78 16.5 142.5t40.5 117t52 92t51 66.5h51q-23 -37 -45.5 -79.5t-41.5 -93t-30.5 -111.5t-11.5 -134q0 -72 11.5 -132.5t30.5 -111.5t41.5 -94t45.5 -81h-51q-23 27 -51 67t-52 92.5t-40.5 117t-16.5 142.5z" />
    <glyph glyph-name="parenright" unicode=")" horiz-adv-x="283" 
d="M231 338q0 -78 -16.5 -142.5t-40.5 -117t-52 -92.5t-51 -67h-51q22 38 45 81t42 94t30.5 111.5t11.5 132.5q0 73 -11.5 134t-30.5 111.5t-42 93t-45 79.5h51q23 -27 51 -66.5t52 -92t40.5 -117t16.5 -142.5z" />
    <glyph glyph-name="asterisk" unicode="*" horiz-adv-x="354" 
d="M275 448q-21 -16 -36.5 -3.5t-28.5 39.5l-33 69l-33 -69q-13 -27 -28.5 -39.5t-36.5 3.5q-20 14 -13.5 34t29.5 40l55 50l-70 8q-29 3 -46 14.5t-9 36.5q8 23 28.5 23t46.5 -15l60 -35l-15 67q-7 29 -0.5 49t32.5 20q25 0 32 -20t0 -49l-15 -67l60 35q26 15 46.5 15
t28.5 -23q8 -25 -9 -36.5t-46 -14.5l-70 -8l55 -50q23 -20 29.5 -40t-13.5 -34z" />
    <glyph glyph-name="plus" unicode="+" horiz-adv-x="584" 
d="M263 326h-198v50h198v200h58v-200h198v-50h-198v-200h-58v200z" />
    <glyph glyph-name="comma" unicode="," horiz-adv-x="240" 
d="M62 -113q-14 0 -14 13q0 6 8 14.5t19 20t22.5 26.5t17.5 35q-30 1 -45.5 18t-15.5 43t18.5 44.5t46.5 18.5q30 0 48.5 -22t18.5 -60q0 -31 -13 -58.5t-32 -48t-40.5 -32.5t-38.5 -12z" />
    <glyph glyph-name="hyphen" unicode="-" horiz-adv-x="348" 
d="M65 332h218v-67h-218v67z" />
    <glyph glyph-name="period" unicode="." horiz-adv-x="240" 
d="M120 -12q-29 0 -47.5 19t-18.5 47t18 47t48 19q29 0 47.5 -19t18.5 -47t-18.5 -47t-47.5 -19z" />
    <glyph glyph-name="slash" unicode="/" horiz-adv-x="345" 
d="M5 -92l267 837h58l-268 -837h-57z" />
    <glyph glyph-name="zero" unicode="0" horiz-adv-x="625" 
d="M50 342q0 75 22 139.5t58 112t83 74t98 26.5q58 0 107 -26.5t83.5 -74t54 -112t19.5 -139.5q0 -76 -20 -141t-55 -112t-82.5 -74t-102.5 -27t-103 26.5t-84 74t-57 112t-21 141.5zM479 305q0 75 -12.5 137t-35.5 106.5t-56 68.5t-74 24q-33 0 -61 -19t-49 -53.5t-33 -83
t-12 -106.5q0 -75 13 -137.5t37 -106.5t57.5 -68.5t73.5 -24.5q34 0 62 19.5t48 54t31 83t11 106.5z" />
    <glyph glyph-name="one" unicode="1" horiz-adv-x="320" 
d="M45 444v68l108 153q8 11 15.5 17t17.5 6q9 0 16 -6.5t7 -23.5v-608l69 -4v-46h-223v46l69 4v492z" />
    <glyph glyph-name="two" unicode="2" horiz-adv-x="518" 
d="M250 694q108 0 162 -52.5t54 -139.5q0 -39 -14.5 -73.5t-39 -65.5t-57.5 -59.5t-70 -56.5q-59 -44 -106 -87t-67 -93h171q59 0 91 14t54 43q5 6 8.5 10t11.5 4t12.5 -5.5t2.5 -19.5q-4 -23 -12 -53.5t-18 -59.5h-368q-12 0 -19 4t-6 18q1 40 19 74.5t46 66.5t62 62t69 62
q28 25 52 51t42 54t28.5 58t10.5 64q0 54 -31 90t-91 36q-56 0 -89 -26.5t-33 -62.5q0 -13 10.5 -20t23 -14t23 -17t10.5 -29q0 -22 -14 -34.5t-37 -12.5q-14 0 -29 5.5t-27 18t-20 33.5t-8 52q0 34 16 63.5t42.5 51.5t61.5 34t73 12z" />
    <glyph glyph-name="three" unicode="3" horiz-adv-x="521" 
d="M224 -12q-38 0 -73 10t-61.5 29t-42.5 47t-16 64q0 27 7.5 46.5t19 31.5t26 18t28.5 6q26 0 38 -12.5t12 -33.5q0 -17 -9.5 -26t-21 -15.5t-21 -13.5t-9.5 -21q0 -36 35 -56t83 -20q76 0 119.5 44t43.5 119q0 161 -160 161q-23 0 -38.5 -4t-26.5 -4q-13 0 -16.5 10
t4.5 18l220 229h-135q-29 0 -50 -2t-36 -6.5t-26.5 -12.5t-22.5 -20q-5 -5 -9 -8.5t-12 -3.5t-12.5 5t-2.5 17q4 20 12 46t19 52h360q12 0 16.5 -3.5t4.5 -13.5q0 -17 -27 -44l-200 -203q52 1 95.5 -12.5t74.5 -40t48 -64t17 -84.5q0 -48 -19 -90t-52.5 -73t-80.5 -48.5
t-103 -17.5z" />
    <glyph glyph-name="four" unicode="4" horiz-adv-x="523" 
d="M466 0h-223v46l69 4v126h-259q-31 0 -31 26v10q0 14 4 22.5t15 22.5l300 408q8 11 15.5 17t17.5 6q9 0 16 -6.5t7 -23.5v-420h99v-62h-99v-126l69 -4v-46zM312 238v302l-222 -302h222z" />
    <glyph glyph-name="five" unicode="5" horiz-adv-x="518" 
d="M227 42q34 0 62 13t48 37t31 57.5t11 74.5q0 87 -39.5 129.5t-110.5 42.5q-45 0 -74.5 -14.5t-44.5 -24.5q-14 -9 -24 -3.5t-5 24.5l67 287q2 10 7.5 13.5t17.5 3.5h151q28 0 44.5 1.5t26.5 4.5t16 8t12 13q8 9 13.5 13.5t12.5 4.5q8 0 12.5 -5.5t2.5 -16.5
q-2 -7 -5 -18.5t-6.5 -25t-8 -27.5t-8.5 -25h-244l-43 -183q38 24 101 24q56 0 98 -16t70.5 -44.5t43 -67.5t14.5 -86q0 -54 -18.5 -99.5t-51.5 -78.5t-78 -51.5t-97 -18.5q-43 0 -80 11t-64 31t-42.5 49t-15.5 65q0 51 24.5 76t54.5 25q25 0 37.5 -13t12.5 -33
q0 -17 -9 -26.5t-20.5 -17t-20.5 -15t-9 -20.5q0 -34 36 -56t92 -22z" />
    <glyph glyph-name="six" unicode="6" horiz-adv-x="562" 
d="M522 230q0 -47 -15.5 -91t-44 -77.5t-69 -53.5t-91.5 -20q-59 0 -106 24t-79.5 65.5t-49.5 98t-17 121.5q0 93 22 167t61 125t92.5 78t116.5 27q38 0 64 -6.5t41.5 -17t22 -24t6.5 -27.5q0 -17 -11.5 -30.5t-32.5 -13.5q-18 0 -29 10.5t-22.5 23t-26 23t-38.5 10.5
q-30 0 -58.5 -16t-53 -52t-42 -93t-24.5 -139q20 45 62.5 73.5t104.5 28.5q49 0 89 -15.5t68.5 -43.5t44 -67.5t15.5 -87.5zM149 232q0 -90 42.5 -140t112.5 -50q63 0 93.5 45.5t30.5 120.5q0 39 -8.5 72t-26 57t-44.5 37.5t-63 13.5q-20 0 -43.5 -7.5t-44.5 -25.5t-35 -48
t-14 -75z" />
    <glyph glyph-name="seven" unicode="7" horiz-adv-x="463" 
d="M90 0l291 610h-182q-29 0 -49.5 -2t-35.5 -7t-26.5 -12.5t-23.5 -19.5q-5 -5 -9 -8.5t-12 -3.5t-12.5 6.5t-2.5 18.5q4 20 12 47.5t19 52.5h357q20 0 23.5 -7.5t-1.5 -22.5l-238 -652h-110z" />
    <glyph glyph-name="eight" unicode="8" horiz-adv-x="547" 
d="M503 192q0 -45 -17 -82.5t-47 -65t-72.5 -42.5t-93.5 -15t-93 14.5t-72.5 39.5t-47 57.5t-16.5 68.5q0 37 11.5 67t31 53.5t45.5 41.5t56 31q-53 25 -82.5 65.5t-29.5 101.5q0 35 14.5 65.5t41 53t62 35.5t77.5 13q38 0 73.5 -11t63 -31t44 -48t16.5 -63
q0 -57 -33.5 -94.5t-87.5 -61.5q72 -30 114 -76.5t42 -116.5zM156 541q0 -18 5 -35t20 -34t43 -34t75 -34q36 16 62.5 46.5t26.5 74.5q0 31 -9.5 53t-26 36.5t-37.5 21t-44 6.5q-21 0 -41.5 -6t-37 -18.5t-26.5 -31.5t-10 -45zM130 181q0 -30 10.5 -55t29 -43.5t45 -28.5
t58.5 -10q69 0 107.5 35t38.5 91q0 57 -43 97t-142 75q-54 -25 -79 -69t-25 -92z" />
    <glyph glyph-name="nine" unicode="9" horiz-adv-x="562" 
d="M512 379q0 -91 -22 -163.5t-61 -123t-92 -77.5t-115 -27q-75 0 -117.5 24.5t-42.5 62.5q0 18 12 30.5t32 12.5q21 0 33 -12t24 -26.5t30 -26.5t52 -12q33 0 62.5 16t53 52t40 93t23.5 138q-20 -45 -62.5 -73.5t-104.5 -28.5q-49 0 -89.5 15.5t-69 43.5t-44.5 67t-16 86
t15.5 91t44 78t69.5 54.5t93 20.5q62 0 109 -24t79 -66t48 -100t16 -125zM413 450q0 90 -42.5 140t-112.5 50q-62 0 -94 -47t-32 -121q0 -38 9 -70.5t27 -56.5t45 -37.5t63 -13.5q19 0 43 7t45 25t35 48t14 76z" />
    <glyph glyph-name="colon" unicode=":" horiz-adv-x="250" 
d="M125 318q-29 0 -47.5 19t-18.5 47t18 47t48 19q29 0 47.5 -19t18.5 -47t-18.5 -47t-47.5 -19zM125 -12q-29 0 -47.5 19t-18.5 47t18 47t48 19q29 0 47.5 -19t18.5 -47t-18.5 -47t-47.5 -19z" />
    <glyph glyph-name="semicolon" unicode=";" horiz-adv-x="250" 
d="M125 318q-29 0 -47.5 19t-18.5 47t18 47t48 19q29 0 47.5 -19t18.5 -47t-18.5 -47t-47.5 -19zM67 -113q-14 0 -14 13q0 6 8 14.5t19 20t22.5 26.5t17.5 35q-30 1 -45.5 18t-15.5 43t18.5 44.5t46.5 18.5q30 0 48.5 -22t18.5 -60q0 -31 -13 -58.5t-32 -48t-40.5 -32.5
t-38.5 -12z" />
    <glyph glyph-name="less" unicode="&#x3c;" horiz-adv-x="549" 
d="M469 538v-50l-352 -137l352 -136v-51l-414 161v50z" />
    <glyph glyph-name="equal" unicode="=" horiz-adv-x="594" 
d="M75 454h444v-50h-444v50zM75 294h444v-50h-444v50z" />
    <glyph glyph-name="greater" unicode="&#x3e;" horiz-adv-x="549" 
d="M80 164v50l352 137l-352 136v51l414 -161v-50z" />
    <glyph glyph-name="question" unicode="?" horiz-adv-x="427" 
d="M201 694q40 0 75 -11.5t61.5 -34t42 -55t15.5 -74.5q0 -40 -13.5 -71t-33.5 -56t-43 -47.5t-43 -46t-33 -51t-12 -62.5h-50q-4 39 4 68.5t22.5 54t32.5 47t34 47t26.5 54t10.5 69.5q0 58 -26.5 86.5t-73.5 28.5q-46 0 -73 -26.5t-27 -60.5q0 -17 9.5 -25.5t20.5 -16
t20.5 -17.5t9.5 -29q0 -20 -15 -31.5t-33 -11.5q-32 0 -57 27.5t-25 79.5q0 37 14.5 67.5t38.5 52t55.5 33.5t65.5 12zM194 -12q-29 0 -47.5 19t-18.5 47t18 47t48 19q29 0 47.5 -19t18.5 -47t-18.5 -47t-47.5 -19z" />
    <glyph glyph-name="at" unicode="@" horiz-adv-x="986" 
d="M607 28q-37 0 -53.5 14t-16.5 34q0 8 1 12q-19 -25 -53.5 -42.5t-69.5 -17.5q-63 0 -98.5 41.5t-35.5 113.5q0 54 19.5 107t55 95t85 68t109.5 26q29 0 48.5 -9t27.5 -23l72 30q15 7 11 -12l-87 -363q-2 -9 1 -14t9 -5q42 0 83 16.5t74 50t53 83.5t20 118q0 63 -18 117
t-56 94.5t-97 63.5t-141 23q-98 0 -176.5 -33t-133.5 -91.5t-84.5 -138.5t-29.5 -173q0 -83 27 -150.5t75 -115.5t115.5 -74.5t148.5 -26.5q60 0 109 13t89 32.5t69.5 42t50.5 42.5l31 -32q-19 -22 -50.5 -48.5t-75.5 -49t-101.5 -38t-128.5 -15.5q-94 0 -173.5 28.5
t-137.5 81t-90.5 128t-32.5 169.5q0 103 36 194.5t101.5 159t157.5 107t204 39.5q98 0 170.5 -26.5t120 -72t71 -106t23.5 -127.5q0 -84 -28 -147.5t-73.5 -106.5t-104.5 -64.5t-122 -21.5zM599 361q7 29 -6 48.5t-45 19.5q-40 0 -72 -22t-55 -57.5t-35.5 -79.5t-12.5 -87
q0 -97 66 -97q18 0 37 7.5t35 20t28 29.5t17 36z" />
    <glyph glyph-name="A" unicode="A" horiz-adv-x="678" 
d="M28 46l43 4l234 604q7 18 12.5 25.5t17.5 7.5q11 0 16 -7.5t13 -25.5l243 -604l43 -4v-46h-183v46l47 4l-47 119h-290l-47 -119l47 -4v-46h-149v46zM446 223l-124 317l-124 -317h248z" />
    <glyph glyph-name="B" unicode="B" horiz-adv-x="612" 
d="M52 46l49 4v582l-49 4v46h259q49 0 90 -10.5t70.5 -30.5t45.5 -49.5t16 -66.5q0 -29 -11.5 -53t-29 -43t-38.5 -32t-41 -20q33 -4 62.5 -18t52 -36t36 -52.5t13.5 -67.5q0 -50 -20 -88t-56 -63.5t-86.5 -38.5t-112.5 -13h-250v46zM189 396h115q63 0 101 30t38 93
q0 113 -142 113h-112v-236zM302 50q88 0 135 35t47 113q0 147 -173 147h-122v-295h113z" />
    <glyph glyph-name="C" unicode="C" horiz-adv-x="645" 
d="M595 539q2 -11 -3 -18t-14 -7q-14 0 -22 14q-12 19 -29.5 39t-41 36.5t-52.5 26.5t-65 10q-45 0 -85 -20t-70 -57t-47 -88t-17 -112q0 -72 17.5 -129.5t49.5 -97.5t77 -61.5t101 -21.5q35 0 64.5 8.5t53 20.5t41 25t27.5 22l31 -38q-9 -11 -28.5 -28.5t-49.5 -34
t-69.5 -28.5t-88.5 -12q-72 0 -131.5 24.5t-102 69.5t-66 108.5t-23.5 141.5q0 80 24 146.5t66.5 114.5t101.5 74.5t128 26.5q39 0 69.5 -9t46.5 -21q14 17 22.5 25.5t14.5 8.5q5 0 11 -10t14 -28t17 -39t16.5 -42.5t11.5 -39.5z" />
    <glyph glyph-name="D" unicode="D" horiz-adv-x="697" 
d="M52 46l49 4v582l-49 4v46h234q76 0 142 -22.5t115.5 -65.5t78 -107t28.5 -146q0 -83 -28.5 -147t-78 -107t-115.5 -65t-142 -22h-234v46zM286 50q58 0 107 18t84.5 54t55.5 90.5t20 128.5q0 73 -20 128t-55.5 91t-84.5 54t-107 18h-100v-582h100z" />
    <glyph glyph-name="E" unicode="E" horiz-adv-x="593" 
d="M52 0v46l49 4v582l-49 4v46h444q26 -61 35 -109q2 -12 -2.5 -18.5t-13.5 -6.5q-8 0 -11.5 3.5t-9.5 10.5q-16 18 -29.5 31t-30 21t-37.5 11.5t-51 3.5h-160v-256h221l2 45h40l23 -143h-40l-19 44h-227v-266h192q30 0 51 4.5t37.5 14.5t30.5 25.5t30 36.5q5 6 8.5 10
t11.5 4t12.5 -5.5t2.5 -19.5q-2 -11 -5.5 -26.5t-8.5 -32l-10 -33t-10 -31.5h-476z" />
    <glyph glyph-name="F" unicode="F" horiz-adv-x="564" 
d="M52 0v46l49 4v582l-49 4v46h444q13 -30 21.5 -60t13.5 -54q2 -12 -2.5 -18.5t-13.5 -6.5q-8 0 -11.5 3.5t-9.5 10.5q-16 18 -29.5 31.5t-30 22.5t-37.5 13.5t-51 4.5h-157v-266h218l2 45h40l23 -143h-40l-19 44h-224v-259l59 -4v-46h-196z" />
    <glyph glyph-name="G" unicode="G" horiz-adv-x="694" 
d="M599 549q2 -11 -3 -18t-14 -7q-14 0 -22 14q-13 19 -29.5 37.5t-39 32.5t-51 23t-65.5 9q-50 0 -92 -20t-72.5 -57t-47.5 -89.5t-17 -116.5q0 -77 18.5 -135.5t51.5 -98.5t78.5 -60.5t100.5 -20.5q44 0 75 5.5t54 13.5v233l-54 5v46h182v-46l-44 -4v-285
q-24 0 -43.5 -3.5t-43.5 -7.5t-56 -7.5t-80 -3.5q-77 0 -139 26.5t-105.5 73.5t-67 111t-23.5 139q0 79 26 145t71 112.5t105 72.5t128 26q38 0 68.5 -9t46.5 -21q14 17 22.5 25.5t14.5 8.5q5 0 11 -10t13.5 -26.5t16 -35.5t15.5 -39t11 -38z" />
    <glyph glyph-name="H" unicode="H" horiz-adv-x="733" 
d="M50 636v46h183v-46l-49 -4v-259h365v259l-49 4v46h183v-46l-49 -4v-582l49 -4v-46h-183v46l49 4v269h-365v-269l49 -4v-46h-183v46l49 4v582z" />
    <glyph glyph-name="I" unicode="I" horiz-adv-x="287" 
d="M52 636v46h183v-46l-49 -4v-582l49 -4v-46h-183v46l49 4v582z" />
    <glyph glyph-name="J" unicode="J" horiz-adv-x="509" 
d="M413 204q0 -48 -14 -87.5t-40 -68.5t-63.5 -44.5t-85.5 -15.5q-44 0 -77.5 15t-56.5 39.5t-34.5 56.5t-11.5 67q0 53 25.5 85.5t63.5 32.5q24 0 37 -13t13 -35q0 -23 -11 -33.5t-23.5 -17t-23.5 -13.5t-11 -22q0 -19 7 -37.5t20.5 -33t33.5 -23.5t46 -9q33 0 56 12.5
t37.5 34t21 51t6.5 63.5v424l-54 4v46h188v-46l-49 -4v-428v0z" />
    <glyph glyph-name="K" unicode="K" horiz-adv-x="661" 
d="M313 395l-127 -125v-220l49 -4v-46h-183v46l49 4v582l-49 4v46h183v-46l-49 -4v-285l287 287l-47 4v44h175v-44l-46 -4l-180 -178l222 -408l44 -4v-44h-179v44l43 4z" />
    <glyph glyph-name="L" unicode="L" horiz-adv-x="519" 
d="M238 636l-49 -4v-578h120q30 0 51 4.5t37.5 15t30.5 28t30 42.5q4 6 8 10t12 4t12.5 -5.5t2.5 -19.5q-4 -30 -13.5 -67.5t-20.5 -65.5h-407v46l49 4v582l-49 4v46h186v-46z" />
    <glyph glyph-name="M" unicode="M" horiz-adv-x="857" 
d="M780 682v-41l-49 -12l33 -579l49 -4v-46h-184v46l49 4l-30 533l-217 -586q-4 -11 -19 -11q-14 0 -18 11l-212 576l-30 -523l49 -4v-46h-157v46l49 4l33 579l-49 8v45h157l194 -542l195 542h157z" />
    <glyph glyph-name="N" unicode="N" horiz-adv-x="704" 
d="M501 636v46h155v-46l-49 -4v-636q0 -6 -4 -10.5t-12 -4.5q-11 0 -17 9l-416 589v-529l49 -4v-46h-155v46l49 4v582l-49 4v46h138l360 -518v468z" />
    <glyph glyph-name="O" unicode="O" horiz-adv-x="730" 
d="M51 341q0 79 26 144t69.5 111.5t100.5 72t119 25.5q66 0 123.5 -25.5t99.5 -72t66 -111.5t24 -144q0 -80 -24 -145t-66 -111t-99.5 -71.5t-123.5 -25.5q-62 0 -119 25t-100.5 71.5t-69.5 111.5t-26 145zM582 341q0 70 -15.5 125.5t-44 94t-68 59t-88.5 20.5
q-47 0 -86.5 -20.5t-69 -59t-46 -94t-16.5 -125.5t16.5 -125.5t46 -94t69 -59t86.5 -20.5q49 0 88.5 20.5t68 59t44 94t15.5 125.5z" />
    <glyph glyph-name="P" unicode="P" horiz-adv-x="595" 
d="M245 46v-46h-193v46l49 4v582l-49 4v46h237q59 0 108 -11t84 -35.5t54.5 -62.5t19.5 -92t-19.5 -94t-54.5 -67t-84 -40t-107 -13h-104v-217zM186 318h96q92 0 139 36.5t47 120.5t-47.5 120.5t-141.5 36.5h-93v-314z" />
    <glyph glyph-name="Q" unicode="Q" horiz-adv-x="732" 
d="M51 341q0 79 26 144t69.5 111.5t100.5 72t119 25.5q66 0 123.5 -25.5t99.5 -72t66 -111.5t24 -144q0 -96 -34 -170t-92 -120l7 -12q21 -38 36 -49t31 -11t23.5 5t16.5 5q14 0 14 -16q0 -17 -21 -33.5t-51 -16.5q-16 0 -30.5 3t-28.5 11t-28 22.5t-29 38.5l-8 13
q-57 -23 -119 -23t-119 25t-100.5 71.5t-69.5 111.5t-26 145zM582 341q0 70 -15.5 125.5t-44 94t-68 59t-88.5 20.5q-47 0 -86.5 -20.5t-69 -59t-46 -94t-16.5 -125.5t16.5 -125.5t46 -94t69 -59t86.5 -20.5q50 0 89 21q-2 4 -4 7t-4 7q-12 19 -21 31t-16.5 19t-14.5 9
t-15 2q-16 0 -23.5 -5.5t-16.5 -5.5q-16 0 -16 15q0 7 5 16t15 16.5t24 12.5t31 5q31 0 58.5 -14t56.5 -60l3 -4q31 38 48 95.5t17 131.5z" />
    <glyph glyph-name="R" unicode="R" horiz-adv-x="623" 
d="M245 46v-46h-193v46l49 4v582l-49 4v46h243q59 0 108 -12.5t84 -37.5t54.5 -61.5t19.5 -84.5q0 -70 -40.5 -119.5t-109.5 -72.5l150 -246l44 -4v-44h-181v44l43 4l-138 230q-8 -1 -16.5 -1h-16.5h-110v-227zM186 328h102q92 0 139 37t47 115q0 152 -189 152h-99v-304z
" />
    <glyph glyph-name="S" unicode="S" horiz-adv-x="562" 
d="M280 44q81 0 122 33.5t41 95.5q0 51 -27.5 86t-86.5 54l-111 36q-33 11 -62.5 26.5t-51.5 37t-34.5 50t-12.5 65.5q0 36 14 66.5t39 52.5t59.5 34.5t76.5 12.5q39 0 69.5 -9t46.5 -21q13 16 22 25t15 9q5 0 11 -10t13 -26t13.5 -34t13 -36.5t10.5 -32.5q2 -11 -3.5 -18
t-14.5 -7q-8 0 -12 3t-10 11q-14 18 -30 34.5t-37 30t-48 21.5t-62 8q-20 0 -39 -5.5t-34 -17t-24 -28.5t-9 -40q0 -42 28 -69.5t87 -47.5l109 -37q83 -28 125.5 -76t42.5 -123q0 -47 -15.5 -86t-46.5 -66.5t-78 -43t-110 -15.5q-47 0 -84 13t-54 26q-11 -28 -19 -35.5
t-14 -7.5t-12 10q-5 10 -14 30.5t-18 45t-17 50t-12 45.5q-2 11 3 19.5t17 8.5q14 0 23 -17q13 -26 33.5 -49.5t46 -41.5t56.5 -29t66 -11z" />
    <glyph glyph-name="T" unicode="T" horiz-adv-x="588" 
d="M338 633v-583l49 -4v-46h-186v46l49 4v583h-70q-26 0 -42.5 -3t-29 -10.5t-22.5 -21.5t-22 -36q-8 -14 -21 -14q-8 0 -13 6.5t-3 18.5q4 24 10 52.5t15 58.5q3 10 14 10q5 0 11.5 -2t17.5 -4t28 -4t43 -2h256q26 0 43.5 2t28.5 4t17.5 4t10.5 2q11 0 14 -10
q9 -30 15 -58.5t10 -52.5q2 -12 -3 -18.5t-13 -6.5q-13 0 -21 14q-12 22 -22 36t-22.5 21.5t-29.5 10.5t-42 3h-70z" />
    <glyph glyph-name="U" unicode="U" horiz-adv-x="701" 
d="M96 632l-49 4v46h183v-46l-49 -4v-418q0 -76 44 -119t135 -43t135.5 43t44.5 119v418l-49 4v46h163v-46l-49 -4v-416q0 -105 -63.5 -166.5t-191.5 -61.5q-131 0 -192.5 61.5t-61.5 166.5v416z" />
    <glyph glyph-name="V" unicode="V" horiz-adv-x="668" 
d="M71 632l-43 4v46h183v-46l-47 -4l184 -498l185 498l-47 4v46h154v-46l-43 -4l-231 -607q-7 -18 -12.5 -25.5t-17.5 -7.5q-11 0 -17 7.5t-13 25.5z" />
    <glyph glyph-name="W" unicode="W" horiz-adv-x="926" 
d="M683 25q-5 -19 -13 -26t-21 -7q-11 0 -19 7.5t-13 25.5l-152 522l-148 -522q-5 -19 -12.5 -26t-19.5 -7q-13 0 -19.5 8t-11.5 25l-178 607l-43 4v46h179v-46l-47 -4l131 -462l132 462h-1l-43 4v46h186v-46l-47 -4l136 -476l127 476l-47 4v46h154v-46l-43 -4l-167 -607v0z
" />
    <glyph glyph-name="X" unicode="X" horiz-adv-x="663" 
d="M290 333l-213 301l-37 4v44h193v-44l-54 -4l163 -234l175 234l-54 4v44h160v-44l-37 -4l-212 -281l213 -305l38 -4v-44h-186v44l54 4l-169 239l-179 -239l54 -4v-44h-161v44l38 4z" />
    <glyph glyph-name="Y" unicode="Y" horiz-adv-x="648" 
d="M286 255l-217 377l-43 4v46h191v-46l-47 -4l174 -315l174 315l-47 4v46h151v-46l-43 -4l-205 -372v-210l49 -4v-46h-186v46l49 4v205z" />
    <glyph glyph-name="Z" unicode="Z" horiz-adv-x="600" 
d="M569 148q0 -15 -4.5 -35.5t-11 -41.5t-15 -40t-16.5 -31h-458q-19 0 -23 13.5t6 28.5l384 590h-181q-31 0 -52.5 -4.5t-38 -14t-30 -23.5t-28.5 -33q-6 -7 -9.5 -10.5t-11.5 -3.5q-19 0 -16 25q1 11 6 27t11 32.5t13.5 31t13.5 23.5h410q19 0 23 -14t-6 -28l-386 -587
h233q30 0 51.5 6t38 18.5t30.5 31.5t30 46q5 8 9 11.5t12 3.5q16 0 16 -22z" />
    <glyph glyph-name="bracketleft" unicode="[" horiz-adv-x="247" 
d="M62 756h161v-50h-87v-737h87v-50h-161v837z" />
    <glyph glyph-name="backslash" unicode="\" horiz-adv-x="345" 
d="M15 745h58l267 -837h-57z" />
    <glyph glyph-name="bracketright" unicode="]" horiz-adv-x="247" 
d="M24 756h161v-837h-161v50h87v737h-87v50z" />
    <glyph glyph-name="asciicircum" unicode="^" horiz-adv-x="430" 
d="M215 588l-102 -226h-63l133 303q5 13 12.5 20t19.5 7t19.5 -7t12.5 -20l133 -303h-64z" />
    <glyph glyph-name="underscore" unicode="_" horiz-adv-x="404" 
d="M-6 -84h416v-50h-416v50z" />
    <glyph glyph-name="grave" unicode="`" horiz-adv-x="500" 
d="M309 566l-75 50q-31 20 -46.5 34.5t-15.5 33.5q0 20 12 35t34 15q27 0 42.5 -18.5t35.5 -56.5l39 -71z" />
    <glyph glyph-name="a" unicode="a" horiz-adv-x="490" 
d="M412 60q0 -11 11 -11q8 0 18.5 6.5t17.5 14.5l29 -33q-10 -17 -33.5 -33t-64.5 -16q-31 0 -44.5 17t-13.5 46v14q-6 -10 -17 -23t-28 -25t-40.5 -20t-54.5 -8q-36 0 -65.5 11t-51 31.5t-33 49.5t-11.5 64q0 37 16 70t44.5 57.5t67 38.5t83.5 14q38 0 59.5 -8t30.5 -15v38
q0 54 -27 83t-78 29q-21 0 -38 -5.5t-30 -13.5t-23 -16.5t-16 -14.5q-11 -9 -21 -9t-17 6t-7 18q0 14 16 32q5 6 16.5 16t30 20.5t44 18t58.5 7.5q85 0 128.5 -43.5t43.5 -120.5v-287zM332 200q0 38 -22.5 56t-55.5 18q-31 0 -56.5 -10.5t-43.5 -28t-28 -41t-10 -49.5
q0 -42 24.5 -71t68.5 -29q24 0 46 9t39.5 25.5t27.5 39.5t10 52v29z" />
    <glyph glyph-name="b" unicode="b" horiz-adv-x="567" 
d="M526 260q0 -61 -20.5 -111t-55 -86t-80 -55.5t-95.5 -19.5q-53 0 -82.5 15t-45.5 30l-52 -38q-8 -6 -14 -4.5t-6 8.5v641l-43 5v41l106 50q20 9 20 -12v-278q6 7 18 18.5t30 22t42.5 18t56.5 7.5q47 0 87.5 -16.5t70 -49t46.5 -79.5t17 -107zM295 458q-28 0 -53 -9.5
t-43.5 -25t-29.5 -35t-11 -39.5v-202q0 -43 28 -74t82 -31q32 0 62 15t52.5 42t36 65.5t13.5 85.5q0 100 -38.5 154t-98.5 54z" />
    <glyph glyph-name="c" unicode="c" horiz-adv-x="489" 
d="M266 465q-27 0 -50.5 -14t-41.5 -40.5t-28.5 -64.5t-10.5 -86q0 -47 11 -86t30.5 -67.5t46.5 -44.5t59 -16t56 8t42.5 20t31.5 25l23 23l34 -33q-9 -13 -24.5 -30.5t-38.5 -33t-54.5 -26.5t-71.5 -11q-55 0 -99.5 19.5t-75.5 54.5t-47.5 83t-16.5 105t18 105t50 83
t74.5 54.5t92.5 19.5q63 0 99.5 -13.5t52.5 -24.5q-1 -26 -5 -59t-9 -66q-3 -17 -19 -17q-10 0 -13.5 4.5t-5.5 12.5q-8 35 -18.5 57.5t-24 35.5t-30.5 18t-37 5z" />
    <glyph glyph-name="d" unicode="d" horiz-adv-x="569" 
d="M40 240q0 61 20.5 111t55 86t80 55.5t95.5 19.5q51 0 77 -13.5t40 -28.5v171l-49 4v41l116 52q16 8 16 -14v-673l44 -5v-46h-127v54q-6 -7 -18 -18.5t-30 -22t-43 -18t-56 -7.5q-47 0 -87.5 16.5t-70 49t-46.5 79.5t-17 107zM271 42q28 0 52.5 9.5t43.5 25t30 35t11 39.5
v202q0 43 -28 74t-82 31q-32 0 -62 -15t-52.5 -42t-36 -65.5t-13.5 -85.5q0 -100 38.5 -154t98.5 -54z" />
    <glyph glyph-name="e" unicode="e" horiz-adv-x="492" 
d="M466 89q-9 -13 -24.5 -30.5t-39.5 -33t-57.5 -26.5t-77.5 -11q-51 0 -93 18t-71.5 51t-45.5 80t-16 105q0 61 17 111t45.5 85t65.5 54.5t78 19.5q48 0 84 -16t62 -42t42.5 -60.5t25.5 -70.5l-330 -130q18 -66 59 -104t91 -38q30 0 54 7.5t42 18.5t31.5 23t23.5 22z
M321 329q27 11 27 37q0 15 -6.5 31.5t-19.5 30.5t-31.5 23t-43.5 9q-27 0 -50 -13t-40 -37t-26.5 -58.5t-9.5 -76.5v-14.5t1 -13.5z" />
    <glyph glyph-name="f" unicode="f" horiz-adv-x="305" 
d="M23 500h79v21q0 51 13 91.5t36.5 69t55 43.5t68.5 15q35 0 53 -14.5t18 -36.5q0 -18 -12 -30.5t-36 -12.5q-14 0 -24 6t-17.5 12.5t-15 12.5t-16.5 6q-20 0 -30 -30t-10 -84v-69h97v-50h-97v-402l52 -4v-44h-179v44l44 4v402h-79v50z" />
    <glyph glyph-name="g" unicode="g" horiz-adv-x="505" 
d="M243 117q-8 0 -15 0.5t-14 1.5q-32 -2 -47.5 -13.5t-15.5 -23.5q0 -13 9 -19.5t23 -7.5l164 -9q79 -5 109.5 -36.5t30.5 -78.5q0 -28 -16.5 -52.5t-47 -42.5t-74 -28t-96.5 -10q-110 0 -169 30.5t-59 82.5q0 14 7.5 27.5t20.5 24.5t30 19t36 11q-21 11 -31 28t-10 37
q0 28 23 49.5t52 27.5q-51 23 -83 68t-32 107q0 44 16 81t44 64t65.5 42t79.5 15q58 0 105 -25q-1 3 -1 11q0 18 5.5 36t17 32.5t29.5 23.5t43 9q32 0 47 -15t15 -38q0 -18 -12 -30.5t-33 -12.5q-20 0 -30 5.5t-21 5.5t-18.5 -7.5t-7.5 -21.5q0 -19 22 -45l-1 1
q21 -26 32.5 -59.5t11.5 -71.5q0 -43 -15 -78.5t-42 -61t-64.5 -39.5t-82.5 -14zM253 163q50 0 78.5 33.5t28.5 93.5q0 81 -34 128.5t-93 47.5q-48 0 -78 -36.5t-30 -99.5q0 -79 36.5 -123t91.5 -44zM182 -20q-32 2 -54.5 -13.5t-22.5 -40.5q0 -40 38.5 -61t109.5 -21
q72 0 113.5 21t41.5 50q0 23 -19.5 38t-56.5 17z" />
    <glyph glyph-name="h" unicode="h" horiz-adv-x="551" 
d="M39 0v44l44 4v592l-43 5v41l110 52q16 8 16 -14v-279q4 6 13.5 17.5t26 22.5t40.5 19t57 8q39 0 70.5 -12t53 -33.5t33 -50.5t11.5 -63v-305l44 -4v-44h-171v44l44 4v294q0 51 -30.5 84t-80.5 33q-26 0 -47 -8.5t-35 -22t-21.5 -31t-7.5 -36.5v-313l44 -4v-44h-171z" />
    <glyph glyph-name="i" unicode="i" horiz-adv-x="244" 
d="M121 587q-26 0 -44 18.5t-18 43.5t17.5 43.5t44.5 18.5q26 0 44 -18.5t18 -43.5t-18 -43.5t-44 -18.5zM39 0v44l44 4v365l-41 5v41l108 52q16 8 16 -14v-449l44 -4v-44h-171z" />
    <glyph glyph-name="j" unicode="j" horiz-adv-x="241" 
d="M121 587q-26 0 -44 18.5t-18 43.5t17.5 43.5t44.5 18.5q26 0 44 -18.5t18 -43.5t-18 -43.5t-44 -18.5zM166 -40q0 -52 -29 -84.5t-86 -31.5q-27 0 -47.5 8.5t-34.5 22t-21.5 30t-7.5 31.5q0 27 24 27q10 0 15.5 -5t11.5 -15q9 -16 21.5 -26t29.5 -10q20 0 30.5 14.5
t10.5 40.5v451l-41 5v41l108 52q16 8 16 -14v-537z" />
    <glyph glyph-name="k" unicode="k" horiz-adv-x="546" 
d="M37 0v44l44 4v592l-43 5v41l110 52q16 8 16 -14v-452l202 180l-45 4v44h167v-44l-43 -4l-109 -96l145 -308l44 -4v-44h-176v44l43 4l-120 252l-108 -95v-157l44 -4v-44h-171z" />
    <glyph glyph-name="l" unicode="l" horiz-adv-x="249" 
d="M39 0v44l44 4v592l-43 5v41l110 52q16 8 16 -14v-676l44 -4v-44h-171z" />
    <glyph glyph-name="m" unicode="m" horiz-adv-x="815" 
d="M39 0v44l44 4v365l-41 5v41l108 52q16 8 16 -14v-52q4 6 12.5 17.5t23.5 22.5t37.5 19t53.5 8q50 0 85 -22t54 -57q7 13 19.5 27t30 25.5t40 19t51.5 7.5q38 0 68.5 -13t51.5 -34.5t32 -50.5t11 -61v-305l44 -4v-44h-171v44l44 4v294q0 24 -7 45t-20.5 37t-32 25.5
t-41.5 9.5q-24 0 -43 -9t-32 -24t-19.5 -34.5t-6.5 -40.5v-303l44 -4v-44h-171v44l44 4v294q0 24 -7 45t-20.5 37t-32 25.5t-41.5 9.5q-24 0 -43 -9t-32 -23t-19.5 -31.5t-6.5 -34.5v-313l44 -4v-44h-171z" />
    <glyph glyph-name="n" unicode="n" horiz-adv-x="550" 
d="M39 0v44l44 4v365l-41 5v41l104 50q20 9 20 -12v-52q4 6 13.5 17.5t26 22.5t40.5 19t57 8q39 0 70.5 -12t53 -33.5t33 -50.5t11.5 -63v-305l44 -4v-44h-171v44l44 4v294q0 51 -30.5 84t-80.5 33q-26 0 -47 -8.5t-35 -22t-21.5 -31t-7.5 -36.5v-313l44 -4v-44h-171z" />
    <glyph glyph-name="o" unicode="o" horiz-adv-x="539" 
d="M39 250q0 56 19.5 104t51.5 83t73.5 55t86.5 20q51 0 93.5 -20t73 -55t47 -83t16.5 -104q0 -57 -18 -105t-49 -83t-73 -54.5t-90 -19.5t-90 19.5t-73.5 54.5t-49.5 83t-18 105zM408 230q0 53 -12 95t-33 71.5t-49 45t-59 15.5q-54 0 -89 -50t-35 -137q0 -53 13 -95.5
t34.5 -71.5t49 -44.5t57.5 -15.5q57 0 90 50t33 137z" />
    <glyph glyph-name="p" unicode="p" horiz-adv-x="571" 
d="M35 -190v44l44 4v555l-41 5v41l108 52q16 8 16 -14v-51q6 7 18 18.5t30 22t42.5 18t56.5 7.5q47 0 87.5 -16.5t70 -49t46.5 -79.5t17 -107q0 -61 -20.5 -111t-55 -86t-80 -55.5t-95.5 -19.5q-45 0 -72.5 11t-44.5 25v-166l64 -4v-44h-191zM299 458q-28 0 -53 -9.5
t-43.5 -25t-29.5 -35t-11 -39.5v-202q0 -43 28 -74t82 -31q32 0 62 15t52.5 42t36 65.5t13.5 85.5q0 100 -38.5 154t-98.5 54z" />
    <glyph glyph-name="q" unicode="q" horiz-adv-x="566" 
d="M40 240q0 61 20.5 111t55 86t80 55.5t95.5 19.5q53 0 82.5 -15t45.5 -30l52 38q8 6 14 4.5t6 -8.5v-643l44 -4v-44h-181v44l54 4v196q-6 -7 -18 -18.5t-30 -22t-43 -18t-56 -7.5q-47 0 -87.5 16.5t-70 49t-46.5 79.5t-17 107zM271 42q28 0 52.5 9.5t43.5 25t30 35
t11 39.5v202q0 43 -28 74t-82 31q-32 0 -62 -15t-52.5 -42t-36 -65.5t-13.5 -85.5q0 -100 38.5 -154t98.5 -54z" />
    <glyph glyph-name="r" unicode="r" horiz-adv-x="375" 
d="M39 0v44l44 5v365l-41 4v41l108 52q16 8 16 -14v-99q7 15 19 34.5t28.5 37.5t37.5 30t46 12q36 0 49 -15q1 -10 0 -26.5t-3 -34.5t-4.5 -33.5t-3.5 -24.5t-19 -9q-12 0 -16.5 2.5t-4.5 7.5q-2 22 -8.5 39.5t-28.5 17.5q-12 0 -27.5 -12t-30 -31t-24.5 -42.5t-10 -47.5
v-254l54 -5v-44h-181z" />
    <glyph glyph-name="s" unicode="s" horiz-adv-x="436" 
d="M73 -7q-3 10 -8 31t-11 45t-11 46.5t-7 34.5q-2 10 3 16.5t13 6.5q13 0 18 -14q10 -25 25.5 -47.5t34.5 -39t41.5 -26.5t46.5 -10q56 0 85.5 24t29.5 65q0 38 -23 59.5t-66 35.5l-81 27q-25 8 -47 21t-38.5 30.5t-26 39.5t-9.5 49q0 54 41 89.5t113 35.5q26 0 46 -6.5
t31 -15.5l16 20q8 10 16 10q7 0 10 -8t7.5 -23t10 -32t10.5 -35t8 -31q2 -8 -3.5 -13.5t-14.5 -5.5q-7 0 -13 8q-8 10 -21 25t-30 28t-38 22.5t-46 9.5q-29 0 -51 -15t-22 -44q0 -32 22.5 -48.5t65.5 -31.5l80 -28q60 -21 91.5 -59.5t31.5 -94.5q0 -70 -46.5 -113.5
t-139.5 -43.5q-35 0 -62.5 9.5t-38.5 19.5l-15 -20q-9 -11 -17 -11q-9 0 -11 8z" />
    <glyph glyph-name="t" unicode="t" horiz-adv-x="332" 
d="M314 55q-14 -24 -44 -45.5t-78 -21.5q-53 0 -79.5 28.5t-26.5 70.5v363h-59v27q44 22 67 61.5t46 96.5q3 8 6 11.5t11 3.5q12 0 12 -15v-135h117v-50h-117v-352q0 -21 11 -35.5t35 -14.5q23 0 39.5 12t26.5 25l33 -30v0z" />
    <glyph glyph-name="u" unicode="u" 
d="M501 44v-44h-124v55q-4 -6 -13.5 -17.5t-25.5 -22.5t-39.5 -19t-55.5 -8q-38 0 -68.5 12t-52 33.5t-33 50.5t-11.5 63v266l-41 5v41l104 50q20 9 20 -12v-339q0 -51 30 -84t78 -33q25 0 45 8.5t34 22t21.5 31t7.5 36.5v274l-47 5v41l107 50q20 9 20 -12v-449z" />
    <glyph glyph-name="v" unicode="v" horiz-adv-x="502" 
d="M283 12q-5 -11 -10.5 -17.5t-16.5 -6.5t-17 6.5t-11 17.5l-186 440l-37 4v44h183v-44l-54 -4l133 -336l132 336l-54 4v44h152v-44l-37 -4l-177 -440v0z" />
    <glyph glyph-name="w" unicode="w" horiz-adv-x="720" 
d="M46 452l-37 4v44h179v-44l-54 -4l106 -328l94 289l-13 39l-46 4v44h185v-44l-54 -4l105 -329l107 329l-54 4v44h147v-44l-37 -4l-143 -438q-4 -11 -10.5 -18.5t-20.5 -7.5t-20.5 7.5t-10.5 18.5l-108 318l-102 -318q-4 -11 -11 -18.5t-21 -7.5t-21 7.5t-11 18.5z" />
    <glyph glyph-name="x" unicode="x" horiz-adv-x="529" 
d="M222 245l-152 207l-37 4v44h192v-44l-54 -4l107 -150l115 150l-54 4v44h157v-44l-37 -4l-150 -193l151 -211l38 -4v-44h-185v44l54 4l-114 155l-119 -155l54 -4v-44h-157v44l38 4z" />
    <glyph glyph-name="y" unicode="y" horiz-adv-x="490" 
d="M271 -5q-20 -53 -39.5 -90.5t-40.5 -61t-44 -34.5t-51 -11q-27 0 -43.5 13t-16.5 34q0 18 11.5 31t32.5 13q16 0 28 -4t24 -4q10 0 19.5 5t20 18.5t22.5 38t27 63.5l-178 446l-37 4v44h182v-44l-54 -4l128 -339l127 339l-54 4v44h148v-44l-37 -4l-175 -457v0z" />
    <glyph glyph-name="z" unicode="z" horiz-adv-x="462" 
d="M444 135q0 -12 -4.5 -30.5t-11 -38t-15 -37t-16.5 -29.5h-350q-19 0 -23.5 14t6.5 28l282 411h-87q-31 0 -52.5 -3t-37.5 -10t-29.5 -19.5t-29.5 -30.5q-6 -7 -9.5 -10.5t-11.5 -3.5q-9 0 -13.5 6.5t-2.5 18.5t6.5 25.5t10.5 27t12 25.5t12 21h313q19 0 23 -14t-6 -28
l-283 -408h130q30 0 51.5 4.5t38 15.5t30.5 28.5t30 43.5q5 8 9 11.5t12 3.5q16 0 16 -22z" />
    <glyph glyph-name="braceleft" unicode="{" horiz-adv-x="246" 
d="M218 -76h-60q-54 0 -83 25t-29 73q0 25 11 59t24.5 68t25 64.5t11.5 49.5q0 23 -17 37.5t-50 14.5h-20v50h20q33 0 50 14.5t17 37.5q0 19 -11.5 49.5t-25 64.5t-24.5 67.5t-11 59.5q0 48 29 73t83 25h60v-47h-48q-26 0 -39 -14t-13 -37q0 -21 10 -51.5t22 -63t22 -63.5
t10 -53q0 -30 -18 -54.5t-53 -32.5q35 -8 53 -32.5t18 -54.5q0 -22 -10 -53t-22 -63.5t-22 -63t-10 -51.5q0 -23 13 -37t39 -14h48v-47z" />
    <glyph glyph-name="bar" unicode="|" horiz-adv-x="248" 
d="M95 -81v837h58v-837h-58z" />
    <glyph glyph-name="braceright" unicode="}" horiz-adv-x="246" 
d="M200 22q0 -48 -29 -73t-83 -25h-60v47h48q26 0 39 14t13 37q0 21 -10 51.5t-22 63t-22 63.5t-10 53q0 30 18 54.5t53 32.5q-35 8 -53 32.5t-18 54.5q0 22 10 53t22 63.5t22 63t10 51.5q0 23 -13 37t-39 14h-48v47h60q54 0 83 -25t29 -73q0 -26 -11.5 -59.5t-25 -67.5
t-24.5 -64.5t-11 -49.5q0 -23 17 -37.5t50 -14.5h20v-50h-20q-33 0 -50 -14.5t-17 -37.5q0 -19 11 -49.5t24.5 -64.5t25 -68t11.5 -59z" />
    <glyph glyph-name="asciitilde" unicode="~" horiz-adv-x="532" 
d="M364 257q-29 0 -50 10.5t-36.5 26.5t-28 34t-24.5 34t-25 26.5t-29 10.5q-33 0 -46 -42t-13 -105h-62v27q0 85 30.5 134.5t87.5 49.5q29 0 50 -10.5t36.5 -26.5t28 -34t24.5 -34t24.5 -26.5t29.5 -10.5q33 0 46 42t13 105h62v-27q0 -85 -30.5 -134.5t-87.5 -49.5z" />
    <glyph glyph-name="uni00A0" unicode="&#xa0;" horiz-adv-x="190" 
 />
    <glyph glyph-name="exclamdown" unicode="&#xa1;" horiz-adv-x="268" 
d="M134 512q29 0 47.5 -19t18.5 -47t-18.5 -47t-47.5 -19q-30 0 -48 19t-18 47t18.5 47t47.5 19zM157 315l34 -438q2 -32 -9 -45.5t-37 -13.5h-21q-26 0 -37 13.5t-9 45.5l33 438h46z" />
    <glyph glyph-name="cent" unicode="&#xa2;" horiz-adv-x="489" 
d="M288 602v-90q44 0 76 -9t52.5 -23t30 -31.5t9.5 -35.5t-12 -30t-32 -12q-19 0 -30 13t-22.5 29.5t-27.5 31.5t-44 19v-418q30 1 53.5 9.5t41 20t30.5 24.5l22 22l34 -33q-9 -12 -23.5 -29t-37 -32.5t-52 -27t-68.5 -12.5v-79h-49v82q-46 7 -83 29t-62.5 56t-39 78.5
t-13.5 95.5q0 50 14.5 93.5t40.5 77.5t62.5 56.5t80.5 30.5v94h49zM135 260q0 -78 28 -132.5t76 -73.5v406q-45 -14 -74.5 -66t-29.5 -134z" />
    <glyph glyph-name="sterling" unicode="&#xa3;" horiz-adv-x="524" 
d="M32 305h115q-9 24 -23.5 46.5t-27.5 46.5t-22.5 51t-9.5 60q0 41 15.5 75t44 58.5t68.5 38t88 13.5q43 0 79 -10t62 -29t40 -46.5t14 -63.5q0 -31 -7.5 -53t-19.5 -36.5t-27 -21.5t-29 -7q-23 0 -37 12.5t-14 34.5q0 19 10 29t22 17t22 14.5t10 21.5q0 37 -34 60.5
t-88 23.5q-64 0 -97 -36t-33 -90q0 -27 9.5 -52.5t22 -51t25.5 -51.5t20 -54h157v-50h-151q-1 -34 -11.5 -62.5t-26.5 -52t-34.5 -42t-36.5 -31.5h193q59 0 91 14t54 43q5 6 8.5 10t11.5 4t12.5 -5.5t2.5 -19.5q-4 -23 -12 -53.5t-18 -59.5h-420q-19 0 -21.5 11.5t7.5 20.5
q55 51 88 101.5t33 115.5v6h-125v50z" />
    <glyph glyph-name="yen" unicode="&#xa5;" horiz-adv-x="618" 
d="M107 214h164v84h-164v50h140l-178 284l-43 4v46h191v-46l-47 -4l160 -261l158 261l-47 4v46h151v-46l-43 -4l-170 -284h143v-50h-163v-84h163v-50h-163v-114l49 -4v-46h-186v46l49 4v114h-164v50z" />
    <glyph glyph-name="section" unicode="&#xa7;" horiz-adv-x="563" 
d="M466 -28q0 -79 -48.5 -126.5t-141.5 -47.5q-53 0 -91.5 12.5t-63.5 32t-37 42.5t-12 44q0 20 11.5 33t33.5 13q20 0 31.5 -9.5t19.5 -23.5t15 -30.5t18 -30.5t28.5 -23.5t47.5 -9.5q49 0 80.5 26.5t31.5 72.5q0 41 -25 67.5t-84 56.5l-80 40q-34 17 -60 33.5t-43.5 35
t-26.5 42t-9 53.5q0 28 10.5 50.5t27.5 38.5t40 25.5t47 12.5q-34 25 -51.5 56t-17.5 76q0 34 13 62.5t36.5 49.5t56 32.5t72.5 11.5q44 0 77 -9t54.5 -23t32.5 -30.5t11 -32.5q0 -20 -10 -32.5t-30 -12.5q-21 0 -33.5 13.5t-25 30t-30.5 30.5t-51 14q-44 0 -71.5 -22
t-27.5 -60q0 -17 4.5 -31.5t15.5 -29t31 -28.5t51 -29l75 -37q37 -18 63.5 -34t43.5 -35t25 -42t8 -54q0 -59 -34.5 -92t-82.5 -38q35 -24 55 -55t20 -79zM272 354q-26 12 -50 13t-42.5 -8t-29.5 -26t-11 -40q0 -37 23.5 -60t76.5 -48l66 -32q25 -12 47.5 -12t40 9.5
t27.5 27t10 40.5q0 18 -5 32t-16.5 26.5t-31 24.5t-49.5 26z" />
    <glyph glyph-name="dieresis" unicode="&#xa8;" horiz-adv-x="500" 
d="M160 587q-26 0 -42.5 17.5t-16.5 41.5t16.5 41.5t42.5 17.5q25 0 42 -17.5t17 -41.5t-17 -41.5t-42 -17.5zM340 587q-26 0 -42.5 17.5t-16.5 41.5t16.5 41.5t42.5 17.5q25 0 42 -17.5t17 -41.5t-17 -41.5t-42 -17.5z" />
    <glyph glyph-name="copyright" unicode="&#xa9;" horiz-adv-x="756" 
d="M378 -12q-77 0 -142 26.5t-112 74t-74 112t-27 140.5q0 75 27 139.5t74.5 112t112.5 74.5t141 27t141.5 -27t112.5 -74t74 -112t27 -140t-27 -139.5t-74.5 -112t-112.5 -74.5t-141 -27zM378 39q64 0 118.5 22.5t94.5 63t62 96t22 120.5t-22 120.5t-62 96.5t-94.5 64
t-118.5 23q-65 0 -119 -23t-94 -64t-62 -96.5t-22 -120.5t22 -120t62 -95.5t94 -63.5t119 -23zM521 442q1 -8 -2.5 -14.5t-12.5 -6.5q-7 0 -10.5 3t-9.5 11q-9 11 -18 23t-21 21.5t-28 16t-38 6.5q-48 0 -78.5 -41t-30.5 -108q0 -75 34.5 -118t90.5 -43q21 0 38 4.5t31 11.5
t25 15.5t19 15.5l28 -33q-8 -9 -21 -21t-31 -22.5t-42 -17.5t-55 -7q-43 0 -79 15t-62.5 41.5t-41 63t-14.5 80.5q0 48 15.5 86.5t42 66t61 42.5t72.5 15q23 0 40.5 -5.5t27.5 -12.5q5 6 13.5 14.5t14.5 8.5q5 0 7 -2.5t4 -7.5q4 -8 9 -21t9.5 -27.5t8 -28.5t4.5 -24z" />
    <glyph glyph-name="ordfeminine" unicode="&#xaa;" horiz-adv-x="327" 
d="M270 429q0 -8 6 -8q5 0 10 4t10 9l20 -25q-8 -11 -22.5 -21.5t-42.5 -10.5q-22 0 -30 11t-8 28v6q-4 -6 -10.5 -13.5t-16.5 -14.5t-23.5 -12t-31.5 -5q-46 0 -73.5 24.5t-27.5 68.5q0 22 9.5 42t26.5 34.5t41 23t53 8.5q23 0 35.5 -5t17.5 -10v18q0 31 -17 45.5t-45 14.5
q-24 0 -40.5 -9t-24.5 -16q-7 -5 -14 -5q-16 0 -16 16q0 10 11 23q8 9 30 22.5t62 13.5q56 0 83.5 -26.5t27.5 -72.5v-158zM213 496q0 23 -14 34t-33 11q-35 0 -55 -21t-20 -50q0 -23 14 -37t37 -14q13 0 25.5 5t22.5 13t16.5 19.5t6.5 25.5v14z" />
    <glyph glyph-name="guillemotleft" unicode="&#xab;" horiz-adv-x="448" 
d="M188 140l-134 132q-14 14 -14 25q0 8 3 12.5t11 12.5l134 132l33 -27l-92 -130l92 -130zM365 140l-134 132q-14 14 -14 25q0 8 3 12.5t11 12.5l134 132l33 -27l-92 -130l92 -130z" />
    <glyph glyph-name="registered" unicode="&#xae;" horiz-adv-x="468" 
d="M234 694q47 0 85.5 -15.5t66 -43t42.5 -65t15 -80.5t-15 -80t-42.5 -64.5t-66 -43.5t-85.5 -16t-85.5 15.5t-66 43t-42.5 64.5t-15 81q0 43 15 80t42.5 64.5t66 43.5t85.5 16zM234 324q37 0 67.5 12t52.5 34t33.5 52.5t11.5 67.5t-11.5 67.5t-33.5 52.5t-52.5 34
t-67.5 12q-38 0 -68 -12t-52 -34t-33.5 -52.5t-11.5 -67.5t11.5 -67.5t33.5 -52.5t52 -34t68 -12zM222 418v-24h-77v24l14 1v151l-14 1v24h100q30 0 52.5 -13t22.5 -47q0 -22 -11 -35t-28 -19l41 -62l13 -1v-24h-74v24l12 1l-36 55h-32v-55zM205 499h23q21 0 32.5 7.5
t11.5 27.5t-11.5 28t-33.5 8h-22v-71z" />
    <glyph glyph-name="macron" unicode="&#xaf;" horiz-adv-x="500" 
d="M134 665h232v-66h-232v66z" />
    <glyph glyph-name="degree" unicode="&#xb0;" horiz-adv-x="356" 
d="M178 694q30 0 56.5 -11t45.5 -29.5t30 -44.5t11 -56t-11 -56t-30 -44.5t-45.5 -29.5t-56.5 -11t-56.5 11t-45.5 29.5t-30 44.5t-11 56t11 56t30 44.5t45.5 29.5t56.5 11zM178 458q39 0 64 28t25 67t-25 67t-64 28t-64 -28t-25 -67t25 -67t64 -28z" />
    <glyph glyph-name="acute" unicode="&#xb4;" horiz-adv-x="500" 
d="M211 659q20 38 35.5 56.5t42.5 18.5q22 0 34 -15t12 -35q0 -19 -15.5 -33.5t-46.5 -34.5l-75 -50l-26 22z" />
    <glyph glyph-name="paragraph" unicode="&#xb6;" horiz-adv-x="617" 
d="M577 636l-51 -4v-632h-68v628h-93v-628h-68v278h-42q-47 0 -86.5 15.5t-68 42.5t-44.5 64t-16 81q0 47 16 84.5t44.5 63.5t68.5 39.5t88 13.5h320v-46z" />
    <glyph glyph-name="periodcentered" unicode="&#xb7;" horiz-adv-x="240" 
d="M120 250q-29 0 -47.5 19t-18.5 47t18 47t48 19q29 0 47.5 -19t18.5 -47t-18.5 -47t-47.5 -19z" />
    <glyph glyph-name="cedilla" unicode="&#xb8;" horiz-adv-x="500" 
d="M263 0l-31 -62q7 2 14.5 3.5t18.5 1.5q37 0 60.5 -19.5t23.5 -61.5q0 -40 -29.5 -64t-81.5 -24q-38 0 -64.5 12.5t-39.5 24.5l26 43q12 -11 31.5 -21.5t44.5 -10.5q21 0 32.5 11t11.5 29q0 19 -11 29t-31 10q-15 0 -25 -4t-21 -4q-14 0 -19 10t2 24l35 73h53z" />
    <glyph glyph-name="ordmasculine" unicode="&#xba;" horiz-adv-x="324" 
d="M25 531q0 33 11 61.5t30 49t44 32.5t52 12q31 0 56.5 -12t43.5 -32.5t27.5 -49t9.5 -61.5t-10.5 -61t-28.5 -49t-43 -32.5t-55 -11.5q-29 0 -54 11.5t-43.5 32.5t-29 49t-10.5 61zM237 519q0 29 -7 53t-18 41t-26.5 26.5t-31.5 9.5q-29 0 -48 -29t-19 -77q0 -29 7.5 -53
t19.5 -41t27 -26t30 -9q30 0 48 29.5t18 75.5z" />
    <glyph glyph-name="guillemotright" unicode="&#xbb;" horiz-adv-x="448" 
d="M260 140l-33 27l92 130l-92 130l33 27l134 -132q8 -8 11 -12.5t3 -12.5q0 -11 -14 -25zM83 140l-33 27l92 130l-92 130l33 27l134 -132q8 -8 11 -12.5t3 -12.5q0 -11 -14 -25z" />
    <glyph glyph-name="questiondown" unicode="&#xbf;" horiz-adv-x="427" 
d="M228 512q29 0 47.5 -19t18.5 -47t-18 -47t-48 -19q-29 0 -47.5 19t-18.5 47t18.5 47t47.5 19zM221 -194q-40 0 -75 11.5t-61.5 34t-42 55t-15.5 74.5q0 40 13.5 71t33.5 56t43 47.5t43 46t33 50.5t12 63h50q4 -39 -4 -68.5t-22.5 -54t-32.5 -47t-34 -47t-26.5 -54.5
t-10.5 -69q0 -58 26.5 -86.5t73.5 -28.5q46 0 73 26.5t27 60.5q0 17 -9.5 25.5t-20.5 16t-20.5 17.5t-9.5 29q0 20 15 31.5t33 11.5q32 0 57 -27.5t25 -79.5q0 -37 -14.5 -67.5t-38.5 -52t-55.5 -33.5t-65.5 -12z" />
    <glyph glyph-name="Agrave" unicode="&#xc0;" horiz-adv-x="678" 
d="M28 46l43 4l234 604q7 18 12.5 25.5t17.5 7.5q11 0 16 -7.5t13 -25.5l243 -604l43 -4v-46h-183v46l47 4l-47 119h-290l-47 -119l47 -4v-46h-149v46zM446 223l-124 317l-124 -317h248zM406 734l-96 24q-48 12 -69 26.5t-21 40.5q0 21 13 35t36 14q22 0 39.5 -11.5
t46.5 -37.5l69 -62z" />
    <glyph glyph-name="Aacute" unicode="&#xc1;" horiz-adv-x="678" 
d="M28 46l43 4l234 604q7 18 12.5 25.5t17.5 7.5q11 0 16 -7.5t13 -25.5l243 -604l43 -4v-46h-183v46l47 4l-47 119h-290l-47 -119l47 -4v-46h-149v46zM446 223l-124 317l-124 -317h248zM323 825q29 26 46.5 37.5t39.5 11.5q23 0 36 -14t13 -35q0 -26 -21 -40.5t-69 -26.5
l-96 -24l-18 29z" />
    <glyph glyph-name="Acircumflex" unicode="&#xc2;" horiz-adv-x="678" 
d="M28 46l43 4l234 604q7 18 12.5 25.5t17.5 7.5q11 0 16 -7.5t13 -25.5l243 -604l43 -4v-46h-183v46l47 4l-47 119h-290l-47 -119l47 -4v-46h-149v46zM446 223l-124 317l-124 -317h248zM443 740l-109 51l-109 -51l-23 29l94 96q9 9 17 16t21 7t21 -7t17 -16l94 -96z" />
    <glyph glyph-name="Atilde" unicode="&#xc3;" horiz-adv-x="678" 
d="M28 46l43 4l234 604q7 18 12.5 25.5t17.5 7.5q11 0 16 -7.5t13 -25.5l243 -604l43 -4v-46h-183v46l47 4l-47 119h-290l-47 -119l47 -4v-46h-149v46zM446 223l-124 317l-124 -317h248zM283 782q-14 0 -26 -10.5t-19 -26.5l-37 13q5 45 26.5 72t52.5 27q17 0 31.5 -5
t31.5 -12q14 -6 23.5 -9.5t19.5 -3.5q14 0 25.5 10t19.5 27l37 -13q-5 -47 -26.5 -73t-53.5 -26q-17 0 -30.5 4t-30.5 12q-15 7 -24 10.5t-20 3.5z" />
    <glyph glyph-name="Adieresis" unicode="&#xc4;" horiz-adv-x="678" 
d="M28 46l43 4l234 604q7 18 12.5 25.5t17.5 7.5q11 0 16 -7.5t13 -25.5l243 -604l43 -4v-46h-183v46l47 4l-47 119h-290l-47 -119l47 -4v-46h-149v46zM446 223l-124 317l-124 -317h248zM239 748q-26 0 -42.5 17.5t-16.5 41.5t16.5 41.5t42.5 17.5q25 0 42 -17.5t17 -41.5
t-17 -41.5t-42 -17.5zM429 748q-26 0 -42.5 17.5t-16.5 41.5t16.5 41.5t42.5 17.5q25 0 42 -17.5t17 -41.5t-17 -41.5t-42 -17.5z" />
    <glyph glyph-name="Aring" unicode="&#xc5;" horiz-adv-x="678" 
d="M28 46l43 4l234 604q7 18 12.5 25.5t17.5 7.5q11 0 16 -7.5t13 -25.5l243 -604l43 -4v-46h-183v46l47 4l-47 119h-290l-47 -119l47 -4v-46h-149v46zM446 223l-124 317l-124 -317h248zM334 938q21 0 39 -7.5t31.5 -20.5t21.5 -30.5t8 -37.5t-8 -37.5t-21.5 -30.5
t-31.5 -20t-39 -7q-42 0 -71 27t-29 68q0 20 7.5 37.5t21 30.5t32 20.5t39.5 7.5zM334 896q-20 0 -32.5 -16t-12.5 -38t12.5 -37.5t32.5 -15.5t32.5 15.5t12.5 37.5t-12.5 38t-32.5 16z" />
    <glyph glyph-name="AE" unicode="&#xc6;" horiz-adv-x="907" 
d="M723 418h40l23 -143h-40l-19 44h-207v-266h172q30 0 51 4.5t37.5 14.5t30.5 25.5t30 36.5q5 6 8.5 10t11.5 4t12.5 -5.5t2.5 -19.5q-2 -11 -5.5 -26.5t-8.5 -32l-10 -33t-10 -31.5h-456v46l49 4v139h-245l-79 -139l47 -4v-46h-151v46l43 4l326 582l-51 4v46h485
q26 -61 35 -109q2 -12 -2.5 -18.5t-13.5 -6.5q-8 0 -11.5 3.5t-9.5 10.5q-16 18 -29.5 31t-30 21t-37.5 11.5t-51 3.5h-140v-256h201zM435 243v381l-215 -381h215z" />
    <glyph glyph-name="Ccedilla" unicode="&#xc7;" horiz-adv-x="645" 
d="M595 539q2 -11 -3 -18t-14 -7q-14 0 -22 14q-12 19 -29.5 39t-41 36.5t-52.5 26.5t-65 10q-45 0 -85 -20t-70 -57t-47 -88t-17 -112q0 -72 17.5 -129.5t49.5 -97.5t77 -61.5t101 -21.5q35 0 64.5 8.5t53 20.5t41 25t27.5 22l31 -38q-9 -11 -28.5 -28.5t-49.5 -34
t-69.5 -28.5t-88.5 -12q-72 0 -131.5 24.5t-102 69.5t-66 108.5t-23.5 141.5q0 80 24 146.5t66.5 114.5t101.5 74.5t128 26.5q39 0 69.5 -9t46.5 -21q14 17 22.5 25.5t14.5 8.5q5 0 11 -10t14 -28t17 -39t16.5 -42.5t11.5 -39.5zM355 0l-31 -62q7 2 14.5 3.5t18.5 1.5
q37 0 60.5 -19.5t23.5 -61.5q0 -40 -29.5 -64t-81.5 -24q-38 0 -64.5 12.5t-39.5 24.5l26 43q12 -11 31.5 -21.5t44.5 -10.5q21 0 32.5 11t11.5 29q0 19 -11 29t-31 10q-15 0 -25 -4t-21 -4q-14 0 -19 10t2 24l35 73h53z" />
    <glyph glyph-name="Egrave" unicode="&#xc8;" horiz-adv-x="593" 
d="M52 0v46l49 4v582l-49 4v46h444q26 -61 35 -109q2 -12 -2.5 -18.5t-13.5 -6.5q-8 0 -11.5 3.5t-9.5 10.5q-16 18 -29.5 31t-30 21t-37.5 11.5t-51 3.5h-160v-256h221l2 45h40l23 -143h-40l-19 44h-227v-266h192q30 0 51 4.5t37.5 14.5t30.5 25.5t30 36.5q5 6 8.5 10
t11.5 4t12.5 -5.5t2.5 -19.5q-2 -11 -5.5 -26.5t-8.5 -32l-10 -33t-10 -31.5h-476zM376 734l-96 24q-48 12 -69 26.5t-21 40.5q0 21 13 35t36 14q22 0 39.5 -11.5t46.5 -37.5l69 -62z" />
    <glyph glyph-name="Eacute" unicode="&#xc9;" horiz-adv-x="593" 
d="M52 0v46l49 4v582l-49 4v46h444q26 -61 35 -109q2 -12 -2.5 -18.5t-13.5 -6.5q-8 0 -11.5 3.5t-9.5 10.5q-16 18 -29.5 31t-30 21t-37.5 11.5t-51 3.5h-160v-256h221l2 45h40l23 -143h-40l-19 44h-227v-266h192q30 0 51 4.5t37.5 14.5t30.5 25.5t30 36.5q5 6 8.5 10
t11.5 4t12.5 -5.5t2.5 -19.5q-2 -11 -5.5 -26.5t-8.5 -32l-10 -33t-10 -31.5h-476zM293 825q29 26 46.5 37.5t39.5 11.5q23 0 36 -14t13 -35q0 -26 -21 -40.5t-69 -26.5l-96 -24l-18 29z" />
    <glyph glyph-name="Ecircumflex" unicode="&#xca;" horiz-adv-x="593" 
d="M52 0v46l49 4v582l-49 4v46h444q26 -61 35 -109q2 -12 -2.5 -18.5t-13.5 -6.5q-8 0 -11.5 3.5t-9.5 10.5q-16 18 -29.5 31t-30 21t-37.5 11.5t-51 3.5h-160v-256h221l2 45h40l23 -143h-40l-19 44h-227v-266h192q30 0 51 4.5t37.5 14.5t30.5 25.5t30 36.5q5 6 8.5 10
t11.5 4t12.5 -5.5t2.5 -19.5q-2 -11 -5.5 -26.5t-8.5 -32l-10 -33t-10 -31.5h-476zM413 740l-109 51l-109 -51l-23 29l94 96q9 9 17 16t21 7t21 -7t17 -16l94 -96z" />
    <glyph glyph-name="Edieresis" unicode="&#xcb;" horiz-adv-x="593" 
d="M52 0v46l49 4v582l-49 4v46h444q26 -61 35 -109q2 -12 -2.5 -18.5t-13.5 -6.5q-8 0 -11.5 3.5t-9.5 10.5q-16 18 -29.5 31t-30 21t-37.5 11.5t-51 3.5h-160v-256h221l2 45h40l23 -143h-40l-19 44h-227v-266h192q30 0 51 4.5t37.5 14.5t30.5 25.5t30 36.5q5 6 8.5 10
t11.5 4t12.5 -5.5t2.5 -19.5q-2 -11 -5.5 -26.5t-8.5 -32l-10 -33t-10 -31.5h-476zM209 748q-26 0 -42.5 17.5t-16.5 41.5t16.5 41.5t42.5 17.5q25 0 42 -17.5t17 -41.5t-17 -41.5t-42 -17.5zM399 748q-26 0 -42.5 17.5t-16.5 41.5t16.5 41.5t42.5 17.5q25 0 42 -17.5
t17 -41.5t-17 -41.5t-42 -17.5z" />
    <glyph glyph-name="Igrave" unicode="&#xcc;" horiz-adv-x="287" 
d="M52 636v46h183v-46l-49 -4v-582l49 -4v-46h-183v46l49 4v582zM215 734l-96 24q-48 12 -69 26.5t-21 40.5q0 21 13 35t36 14q22 0 39.5 -11.5t46.5 -37.5l69 -62z" />
    <glyph glyph-name="Iacute" unicode="&#xcd;" horiz-adv-x="287" 
d="M52 636v46h183v-46l-49 -4v-582l49 -4v-46h-183v46l49 4v582zM132 825q29 26 46.5 37.5t39.5 11.5q23 0 36 -14t13 -35q0 -26 -21 -40.5t-69 -26.5l-96 -24l-18 29z" />
    <glyph glyph-name="Icircumflex" unicode="&#xce;" horiz-adv-x="287" 
d="M52 636v46h183v-46l-49 -4v-582l49 -4v-46h-183v46l49 4v582zM252 740l-109 51l-109 -51l-23 29l94 96q9 9 17 16t21 7t21 -7t17 -16l94 -96z" />
    <glyph glyph-name="Idieresis" unicode="&#xcf;" horiz-adv-x="287" 
d="M52 636v46h183v-46l-49 -4v-582l49 -4v-46h-183v46l49 4v582zM48 748q-26 0 -42.5 17.5t-16.5 41.5t16.5 41.5t42.5 17.5q25 0 42 -17.5t17 -41.5t-17 -41.5t-42 -17.5zM238 748q-26 0 -42.5 17.5t-16.5 41.5t16.5 41.5t42.5 17.5q25 0 42 -17.5t17 -41.5t-17 -41.5
t-42 -17.5z" />
    <glyph glyph-name="Ntilde" unicode="&#xd1;" horiz-adv-x="704" 
d="M501 636v46h155v-46l-49 -4v-636q0 -6 -4 -10.5t-12 -4.5q-11 0 -17 9l-416 589v-529l49 -4v-46h-155v46l49 4v582l-49 4v46h138l360 -518v468zM312 782q-14 0 -26 -10.5t-19 -26.5l-37 13q5 45 26.5 72t52.5 27q17 0 31.5 -5t31.5 -12q14 -6 23.5 -9.5t19.5 -3.5
q14 0 25.5 10t19.5 27l37 -13q-5 -47 -26.5 -73t-53.5 -26q-17 0 -30.5 4t-30.5 12q-15 7 -24 10.5t-20 3.5z" />
    <glyph glyph-name="Ograve" unicode="&#xd2;" horiz-adv-x="730" 
d="M51 341q0 79 26 144t69.5 111.5t100.5 72t119 25.5q66 0 123.5 -25.5t99.5 -72t66 -111.5t24 -144q0 -80 -24 -145t-66 -111t-99.5 -71.5t-123.5 -25.5q-62 0 -119 25t-100.5 71.5t-69.5 111.5t-26 145zM582 341q0 70 -15.5 125.5t-44 94t-68 59t-88.5 20.5
q-47 0 -86.5 -20.5t-69 -59t-46 -94t-16.5 -125.5t16.5 -125.5t46 -94t69 -59t86.5 -20.5q49 0 88.5 20.5t68 59t44 94t15.5 125.5zM437 734l-96 24q-48 12 -69 26.5t-21 40.5q0 21 13 35t36 14q22 0 39.5 -11.5t46.5 -37.5l69 -62z" />
    <glyph glyph-name="Oacute" unicode="&#xd3;" horiz-adv-x="730" 
d="M51 341q0 79 26 144t69.5 111.5t100.5 72t119 25.5q66 0 123.5 -25.5t99.5 -72t66 -111.5t24 -144q0 -80 -24 -145t-66 -111t-99.5 -71.5t-123.5 -25.5q-62 0 -119 25t-100.5 71.5t-69.5 111.5t-26 145zM582 341q0 70 -15.5 125.5t-44 94t-68 59t-88.5 20.5
q-47 0 -86.5 -20.5t-69 -59t-46 -94t-16.5 -125.5t16.5 -125.5t46 -94t69 -59t86.5 -20.5q49 0 88.5 20.5t68 59t44 94t15.5 125.5zM354 825q29 26 46.5 37.5t39.5 11.5q23 0 36 -14t13 -35q0 -26 -21 -40.5t-69 -26.5l-96 -24l-18 29z" />
    <glyph glyph-name="Ocircumflex" unicode="&#xd4;" horiz-adv-x="730" 
d="M51 341q0 79 26 144t69.5 111.5t100.5 72t119 25.5q66 0 123.5 -25.5t99.5 -72t66 -111.5t24 -144q0 -80 -24 -145t-66 -111t-99.5 -71.5t-123.5 -25.5q-62 0 -119 25t-100.5 71.5t-69.5 111.5t-26 145zM582 341q0 70 -15.5 125.5t-44 94t-68 59t-88.5 20.5
q-47 0 -86.5 -20.5t-69 -59t-46 -94t-16.5 -125.5t16.5 -125.5t46 -94t69 -59t86.5 -20.5q49 0 88.5 20.5t68 59t44 94t15.5 125.5zM474 740l-109 51l-109 -51l-23 29l94 96q9 9 17 16t21 7t21 -7t17 -16l94 -96z" />
    <glyph glyph-name="Otilde" unicode="&#xd5;" horiz-adv-x="730" 
d="M51 341q0 79 26 144t69.5 111.5t100.5 72t119 25.5q66 0 123.5 -25.5t99.5 -72t66 -111.5t24 -144q0 -80 -24 -145t-66 -111t-99.5 -71.5t-123.5 -25.5q-62 0 -119 25t-100.5 71.5t-69.5 111.5t-26 145zM582 341q0 70 -15.5 125.5t-44 94t-68 59t-88.5 20.5
q-47 0 -86.5 -20.5t-69 -59t-46 -94t-16.5 -125.5t16.5 -125.5t46 -94t69 -59t86.5 -20.5q49 0 88.5 20.5t68 59t44 94t15.5 125.5zM314 782q-14 0 -26 -10.5t-19 -26.5l-37 13q5 45 26.5 72t52.5 27q17 0 31.5 -5t31.5 -12q14 -6 23.5 -9.5t19.5 -3.5q14 0 25.5 10t19.5 27
l37 -13q-5 -47 -26.5 -73t-53.5 -26q-17 0 -30.5 4t-30.5 12q-15 7 -24 10.5t-20 3.5z" />
    <glyph glyph-name="Odieresis" unicode="&#xd6;" horiz-adv-x="730" 
d="M51 341q0 79 26 144t69.5 111.5t100.5 72t119 25.5q66 0 123.5 -25.5t99.5 -72t66 -111.5t24 -144q0 -80 -24 -145t-66 -111t-99.5 -71.5t-123.5 -25.5q-62 0 -119 25t-100.5 71.5t-69.5 111.5t-26 145zM582 341q0 70 -15.5 125.5t-44 94t-68 59t-88.5 20.5
q-47 0 -86.5 -20.5t-69 -59t-46 -94t-16.5 -125.5t16.5 -125.5t46 -94t69 -59t86.5 -20.5q49 0 88.5 20.5t68 59t44 94t15.5 125.5zM270 748q-26 0 -42.5 17.5t-16.5 41.5t16.5 41.5t42.5 17.5q25 0 42 -17.5t17 -41.5t-17 -41.5t-42 -17.5zM460 748q-26 0 -42.5 17.5
t-16.5 41.5t16.5 41.5t42.5 17.5q25 0 42 -17.5t17 -41.5t-17 -41.5t-42 -17.5z" />
    <glyph glyph-name="Oslash" unicode="&#xd8;" horiz-adv-x="730" 
d="M90 10l56 75q-44 47 -69.5 111.5t-25.5 144.5q0 79 26 144t69.5 111.5t100.5 72t119 25.5q53 0 99.5 -16t84.5 -46l53 72l43 -33l-56 -76q42 -47 65.5 -111.5t23.5 -142.5q0 -80 -24 -145t-66 -111t-99.5 -71.5t-123.5 -25.5q-49 0 -95 16t-85 45l-52 -71zM148 341
q0 -59 11.5 -107t33.5 -85l316 428q-57 63 -143 63q-47 0 -86.5 -20.5t-69 -59t-46 -94t-16.5 -125.5zM582 341q0 114 -40 189l-316 -427q58 -61 140 -61q49 0 88.5 20.5t68 59t44 94t15.5 125.5z" />
    <glyph glyph-name="Ugrave" unicode="&#xd9;" horiz-adv-x="701" 
d="M96 632l-49 4v46h183v-46l-49 -4v-418q0 -76 44 -119t135 -43t135.5 43t44.5 119v418l-49 4v46h163v-46l-49 -4v-416q0 -105 -63.5 -166.5t-191.5 -61.5q-131 0 -192.5 61.5t-61.5 166.5v416zM431 734l-96 24q-48 12 -69 26.5t-21 40.5q0 21 13 35t36 14q22 0 39.5 -11.5
t46.5 -37.5l69 -62z" />
    <glyph glyph-name="Uacute" unicode="&#xda;" horiz-adv-x="701" 
d="M96 632l-49 4v46h183v-46l-49 -4v-418q0 -76 44 -119t135 -43t135.5 43t44.5 119v418l-49 4v46h163v-46l-49 -4v-416q0 -105 -63.5 -166.5t-191.5 -61.5q-131 0 -192.5 61.5t-61.5 166.5v416zM348 825q29 26 46.5 37.5t39.5 11.5q23 0 36 -14t13 -35q0 -26 -21 -40.5
t-69 -26.5l-96 -24l-18 29z" />
    <glyph glyph-name="Ucircumflex" unicode="&#xdb;" horiz-adv-x="701" 
d="M96 632l-49 4v46h183v-46l-49 -4v-418q0 -76 44 -119t135 -43t135.5 43t44.5 119v418l-49 4v46h163v-46l-49 -4v-416q0 -105 -63.5 -166.5t-191.5 -61.5q-131 0 -192.5 61.5t-61.5 166.5v416zM468 740l-109 51l-109 -51l-23 29l94 96q9 9 17 16t21 7t21 -7t17 -16l94 -96
z" />
    <glyph glyph-name="Udieresis" unicode="&#xdc;" horiz-adv-x="701" 
d="M96 632l-49 4v46h183v-46l-49 -4v-418q0 -76 44 -119t135 -43t135.5 43t44.5 119v418l-49 4v46h163v-46l-49 -4v-416q0 -105 -63.5 -166.5t-191.5 -61.5q-131 0 -192.5 61.5t-61.5 166.5v416zM264 748q-26 0 -42.5 17.5t-16.5 41.5t16.5 41.5t42.5 17.5q25 0 42 -17.5
t17 -41.5t-17 -41.5t-42 -17.5zM454 748q-26 0 -42.5 17.5t-16.5 41.5t16.5 41.5t42.5 17.5q25 0 42 -17.5t17 -41.5t-17 -41.5t-42 -17.5z" />
    <glyph glyph-name="germandbls" unicode="&#xdf;" horiz-adv-x="580" 
d="M24 500h59v12q0 51 14 93t42 72t69 46.5t94 16.5q95 0 141 -39.5t46 -106.5q0 -33 -10.5 -57.5t-27 -43.5t-35 -34t-35 -28.5t-27 -28t-10.5 -31.5t12 -30.5t48 -32.5l60 -31q91 -46 91 -148q0 -33 -12 -59.5t-32.5 -45t-48.5 -28t-60 -9.5q-31 0 -54.5 10.5t-33.5 18.5
l-15 -20q-9 -11 -17 -11q-9 0 -11 8q-3 10 -8 29.5t-10 41.5t-10 43t-7 33q-2 10 3 16.5t13 6.5q13 0 18 -14q20 -49 52 -81t78 -32q35 0 59.5 21t24.5 60q0 29 -13.5 51.5t-48.5 40.5l-60 31q-51 26 -70 54t-19 61q0 25 10 44t25 35.5t32.5 32.5t32.5 33.5t25 39.5t10 51
q0 43 -30 70t-84 27q-67 0 -97.5 -44.5t-30.5 -113.5v-482l37 -4v-44h-164v44l44 4v402h-59v50z" />
    <glyph glyph-name="agrave" unicode="&#xe0;" horiz-adv-x="490" 
d="M412 60q0 -11 11 -11q8 0 18.5 6.5t17.5 14.5l29 -33q-10 -17 -33.5 -33t-64.5 -16q-31 0 -44.5 17t-13.5 46v14q-6 -10 -17 -23t-28 -25t-40.5 -20t-54.5 -8q-36 0 -65.5 11t-51 31.5t-33 49.5t-11.5 64q0 37 16 70t44.5 57.5t67 38.5t83.5 14q38 0 59.5 -8t30.5 -15v38
q0 54 -27 83t-78 29q-21 0 -38 -5.5t-30 -13.5t-23 -16.5t-16 -14.5q-11 -9 -21 -9t-17 6t-7 18q0 14 16 32q5 6 16.5 16t30 20.5t44 18t58.5 7.5q85 0 128.5 -43.5t43.5 -120.5v-287zM332 200q0 38 -22.5 56t-55.5 18q-31 0 -56.5 -10.5t-43.5 -28t-28 -41t-10 -49.5
q0 -42 24.5 -71t68.5 -29q24 0 46 9t39.5 25.5t27.5 39.5t10 52v29zM278 566l-75 50q-31 20 -46.5 34.5t-15.5 33.5q0 20 12 35t34 15q27 0 42.5 -18.5t35.5 -56.5l39 -71z" />
    <glyph glyph-name="aacute" unicode="&#xe1;" horiz-adv-x="490" 
d="M412 60q0 -11 11 -11q8 0 18.5 6.5t17.5 14.5l29 -33q-10 -17 -33.5 -33t-64.5 -16q-31 0 -44.5 17t-13.5 46v14q-6 -10 -17 -23t-28 -25t-40.5 -20t-54.5 -8q-36 0 -65.5 11t-51 31.5t-33 49.5t-11.5 64q0 37 16 70t44.5 57.5t67 38.5t83.5 14q38 0 59.5 -8t30.5 -15v38
q0 54 -27 83t-78 29q-21 0 -38 -5.5t-30 -13.5t-23 -16.5t-16 -14.5q-11 -9 -21 -9t-17 6t-7 18q0 14 16 32q5 6 16.5 16t30 20.5t44 18t58.5 7.5q85 0 128.5 -43.5t43.5 -120.5v-287zM332 200q0 38 -22.5 56t-55.5 18q-31 0 -56.5 -10.5t-43.5 -28t-28 -41t-10 -49.5
q0 -42 24.5 -71t68.5 -29q24 0 46 9t39.5 25.5t27.5 39.5t10 52v29zM223 659q20 38 35.5 56.5t42.5 18.5q22 0 34 -15t12 -35q0 -19 -15.5 -33.5t-46.5 -34.5l-75 -50l-26 22z" />
    <glyph glyph-name="acircumflex" unicode="&#xe2;" horiz-adv-x="490" 
d="M412 60q0 -11 11 -11q8 0 18.5 6.5t17.5 14.5l29 -33q-10 -17 -33.5 -33t-64.5 -16q-31 0 -44.5 17t-13.5 46v14q-6 -10 -17 -23t-28 -25t-40.5 -20t-54.5 -8q-36 0 -65.5 11t-51 31.5t-33 49.5t-11.5 64q0 37 16 70t44.5 57.5t67 38.5t83.5 14q38 0 59.5 -8t30.5 -15v38
q0 54 -27 83t-78 29q-21 0 -38 -5.5t-30 -13.5t-23 -16.5t-16 -14.5q-11 -9 -21 -9t-17 6t-7 18q0 14 16 32q5 6 16.5 16t30 20.5t44 18t58.5 7.5q85 0 128.5 -43.5t43.5 -120.5v-287zM332 200q0 38 -22.5 56t-55.5 18q-31 0 -56.5 -10.5t-43.5 -28t-28 -41t-10 -49.5
q0 -42 24.5 -71t68.5 -29q24 0 46 9t39.5 25.5t27.5 39.5t10 52v29zM340 574l-99 54l-99 -54l-23 26l84 99q8 10 16.5 16.5t21.5 6.5t21.5 -6.5t16.5 -16.5l84 -99z" />
    <glyph glyph-name="atilde" unicode="&#xe3;" horiz-adv-x="490" 
d="M412 60q0 -11 11 -11q8 0 18.5 6.5t17.5 14.5l29 -33q-10 -17 -33.5 -33t-64.5 -16q-31 0 -44.5 17t-13.5 46v14q-6 -10 -17 -23t-28 -25t-40.5 -20t-54.5 -8q-36 0 -65.5 11t-51 31.5t-33 49.5t-11.5 64q0 37 16 70t44.5 57.5t67 38.5t83.5 14q38 0 59.5 -8t30.5 -15v38
q0 54 -27 83t-78 29q-21 0 -38 -5.5t-30 -13.5t-23 -16.5t-16 -14.5q-11 -9 -21 -9t-17 6t-7 18q0 14 16 32q5 6 16.5 16t30 20.5t44 18t58.5 7.5q85 0 128.5 -43.5t43.5 -120.5v-287zM332 200q0 38 -22.5 56t-55.5 18q-31 0 -56.5 -10.5t-43.5 -28t-28 -41t-10 -49.5
q0 -42 24.5 -71t68.5 -29q24 0 46 9t39.5 25.5t27.5 39.5t10 52v29zM195 617q-14 0 -24 -10t-17 -24l-36 12q5 42 25 69t49 27q17 0 29 -4.5t28 -12.5q14 -6 21.5 -9t17.5 -3q14 0 23.5 9t17.5 25l36 -12q-5 -43 -25 -69.5t-50 -26.5q-17 0 -28 4t-27 12q-14 7 -21.5 10
t-18.5 3z" />
    <glyph glyph-name="adieresis" unicode="&#xe4;" horiz-adv-x="490" 
d="M412 60q0 -11 11 -11q8 0 18.5 6.5t17.5 14.5l29 -33q-10 -17 -33.5 -33t-64.5 -16q-31 0 -44.5 17t-13.5 46v14q-6 -10 -17 -23t-28 -25t-40.5 -20t-54.5 -8q-36 0 -65.5 11t-51 31.5t-33 49.5t-11.5 64q0 37 16 70t44.5 57.5t67 38.5t83.5 14q38 0 59.5 -8t30.5 -15v38
q0 54 -27 83t-78 29q-21 0 -38 -5.5t-30 -13.5t-23 -16.5t-16 -14.5q-11 -9 -21 -9t-17 6t-7 18q0 14 16 32q5 6 16.5 16t30 20.5t44 18t58.5 7.5q85 0 128.5 -43.5t43.5 -120.5v-287zM332 200q0 38 -22.5 56t-55.5 18q-31 0 -56.5 -10.5t-43.5 -28t-28 -41t-10 -49.5
q0 -42 24.5 -71t68.5 -29q24 0 46 9t39.5 25.5t27.5 39.5t10 52v29zM151 587q-26 0 -42.5 17.5t-16.5 41.5t16.5 41.5t42.5 17.5q25 0 42 -17.5t17 -41.5t-17 -41.5t-42 -17.5zM331 587q-26 0 -42.5 17.5t-16.5 41.5t16.5 41.5t42.5 17.5q25 0 42 -17.5t17 -41.5t-17 -41.5
t-42 -17.5z" />
    <glyph glyph-name="aring" unicode="&#xe5;" horiz-adv-x="490" 
d="M412 60q0 -11 11 -11q8 0 18.5 6.5t17.5 14.5l29 -33q-10 -17 -33.5 -33t-64.5 -16q-31 0 -44.5 17t-13.5 46v14q-6 -10 -17 -23t-28 -25t-40.5 -20t-54.5 -8q-36 0 -65.5 11t-51 31.5t-33 49.5t-11.5 64q0 37 16 70t44.5 57.5t67 38.5t83.5 14q38 0 59.5 -8t30.5 -15v38
q0 54 -27 83t-78 29q-21 0 -38 -5.5t-30 -13.5t-23 -16.5t-16 -14.5q-11 -9 -21 -9t-17 6t-7 18q0 14 16 32q5 6 16.5 16t30 20.5t44 18t58.5 7.5q85 0 128.5 -43.5t43.5 -120.5v-287zM332 200q0 38 -22.5 56t-55.5 18q-31 0 -56.5 -10.5t-43.5 -28t-28 -41t-10 -49.5
q0 -42 24.5 -71t68.5 -29q24 0 46 9t39.5 25.5t27.5 39.5t10 52v29zM241 759q21 0 39 -7.5t31.5 -20.5t21.5 -30.5t8 -37.5t-8 -37.5t-21.5 -30.5t-31.5 -20t-39 -7q-42 0 -71 27t-29 68q0 20 7.5 37.5t21 30.5t32 20.5t39.5 7.5zM241 717q-20 0 -32.5 -16t-12.5 -38
t12.5 -37.5t32.5 -15.5t32.5 15.5t12.5 37.5t-12.5 38t-32.5 16z" />
    <glyph glyph-name="ae" unicode="&#xe6;" horiz-adv-x="763" 
d="M239 325q36 0 57 -8t30 -15v38q0 54 -26.5 83t-75.5 29q-20 0 -36 -5.5t-29 -13.5t-23 -16.5t-16 -14.5q-11 -9 -21 -9t-17 6t-7 18q0 14 16 32q5 6 16.5 16t29.5 20.5t43 18t57 7.5q114 0 146 -83q23 39 61 61.5t80 22.5q47 0 82 -16t60 -42t41 -60.5t25 -70.5
l-319 -130q17 -66 55.5 -104t89.5 -38q29 0 52 7.5t40 18.5t30 23t23 22l34 -33q-9 -13 -24 -30.5t-38.5 -33t-55.5 -26.5t-75 -11q-64 0 -111.5 29t-75.5 81q-8 -21 -20.5 -40.5t-32 -34.5t-47 -24.5t-64.5 -9.5q-35 0 -65 11t-51.5 31t-33.5 49t-12 65q0 37 16 70
t44.5 57.5t66 38.5t81.5 14zM592 329q27 11 27 37q0 15 -6 31.5t-18 30.5t-29.5 23t-41.5 9q-26 0 -48 -13.5t-38 -38t-25 -58.5t-9 -75v-14.5t1 -13.5zM206 45q23 0 44.5 9.5t38.5 27.5t27 44.5t10 61.5q0 47 -22 66.5t-53 19.5q-30 0 -54.5 -10.5t-42.5 -28t-28 -41
t-10 -49.5q0 -42 24 -71t66 -29z" />
    <glyph glyph-name="ccedilla" unicode="&#xe7;" horiz-adv-x="489" 
d="M266 465q-27 0 -50.5 -14t-41.5 -40.5t-28.5 -64.5t-10.5 -86q0 -47 11 -86t30.5 -67.5t46.5 -44.5t59 -16t56 8t42.5 20t31.5 25l23 23l34 -33q-9 -13 -24.5 -30.5t-38.5 -33t-54.5 -26.5t-71.5 -11q-55 0 -99.5 19.5t-75.5 54.5t-47.5 83t-16.5 105t18 105t50 83
t74.5 54.5t92.5 19.5q63 0 99.5 -13.5t52.5 -24.5q-1 -26 -5 -59t-9 -66q-3 -17 -19 -17q-10 0 -13.5 4.5t-5.5 12.5q-8 35 -18.5 57.5t-24 35.5t-30.5 18t-37 5zM275 0l-31 -62q7 2 14.5 3.5t18.5 1.5q37 0 60.5 -19.5t23.5 -61.5q0 -40 -29.5 -64t-81.5 -24
q-38 0 -64.5 12.5t-39.5 24.5l26 43q12 -11 31.5 -21.5t44.5 -10.5q21 0 32.5 11t11.5 29q0 19 -11 29t-31 10q-15 0 -25 -4t-21 -4q-14 0 -19 10t2 24l35 73h53z" />
    <glyph glyph-name="egrave" unicode="&#xe8;" horiz-adv-x="492" 
d="M466 89q-9 -13 -24.5 -30.5t-39.5 -33t-57.5 -26.5t-77.5 -11q-51 0 -93 18t-71.5 51t-45.5 80t-16 105q0 61 17 111t45.5 85t65.5 54.5t78 19.5q48 0 84 -16t62 -42t42.5 -60.5t25.5 -70.5l-330 -130q18 -66 59 -104t91 -38q30 0 54 7.5t42 18.5t31.5 23t23.5 22z
M321 329q27 11 27 37q0 15 -6.5 31.5t-19.5 30.5t-31.5 23t-43.5 9q-27 0 -50 -13t-40 -37t-26.5 -58.5t-9.5 -76.5v-14.5t1 -13.5zM284 566l-75 50q-31 20 -46.5 34.5t-15.5 33.5q0 20 12 35t34 15q27 0 42.5 -18.5t35.5 -56.5l39 -71z" />
    <glyph glyph-name="eacute" unicode="&#xe9;" horiz-adv-x="492" 
d="M466 89q-9 -13 -24.5 -30.5t-39.5 -33t-57.5 -26.5t-77.5 -11q-51 0 -93 18t-71.5 51t-45.5 80t-16 105q0 61 17 111t45.5 85t65.5 54.5t78 19.5q48 0 84 -16t62 -42t42.5 -60.5t25.5 -70.5l-330 -130q18 -66 59 -104t91 -38q30 0 54 7.5t42 18.5t31.5 23t23.5 22z
M321 329q27 11 27 37q0 15 -6.5 31.5t-19.5 30.5t-31.5 23t-43.5 9q-27 0 -50 -13t-40 -37t-26.5 -58.5t-9.5 -76.5v-14.5t1 -13.5zM229 659q20 38 35.5 56.5t42.5 18.5q22 0 34 -15t12 -35q0 -19 -15.5 -33.5t-46.5 -34.5l-75 -50l-26 22z" />
    <glyph glyph-name="ecircumflex" unicode="&#xea;" horiz-adv-x="492" 
d="M466 89q-9 -13 -24.5 -30.5t-39.5 -33t-57.5 -26.5t-77.5 -11q-51 0 -93 18t-71.5 51t-45.5 80t-16 105q0 61 17 111t45.5 85t65.5 54.5t78 19.5q48 0 84 -16t62 -42t42.5 -60.5t25.5 -70.5l-330 -130q18 -66 59 -104t91 -38q30 0 54 7.5t42 18.5t31.5 23t23.5 22z
M321 329q27 11 27 37q0 15 -6.5 31.5t-19.5 30.5t-31.5 23t-43.5 9q-27 0 -50 -13t-40 -37t-26.5 -58.5t-9.5 -76.5v-14.5t1 -13.5zM346 574l-99 54l-99 -54l-23 26l84 99q8 10 16.5 16.5t21.5 6.5t21.5 -6.5t16.5 -16.5l84 -99z" />
    <glyph glyph-name="edieresis" unicode="&#xeb;" horiz-adv-x="492" 
d="M466 89q-9 -13 -24.5 -30.5t-39.5 -33t-57.5 -26.5t-77.5 -11q-51 0 -93 18t-71.5 51t-45.5 80t-16 105q0 61 17 111t45.5 85t65.5 54.5t78 19.5q48 0 84 -16t62 -42t42.5 -60.5t25.5 -70.5l-330 -130q18 -66 59 -104t91 -38q30 0 54 7.5t42 18.5t31.5 23t23.5 22z
M321 329q27 11 27 37q0 15 -6.5 31.5t-19.5 30.5t-31.5 23t-43.5 9q-27 0 -50 -13t-40 -37t-26.5 -58.5t-9.5 -76.5v-14.5t1 -13.5zM157 587q-26 0 -42.5 17.5t-16.5 41.5t16.5 41.5t42.5 17.5q25 0 42 -17.5t17 -41.5t-17 -41.5t-42 -17.5zM337 587q-26 0 -42.5 17.5
t-16.5 41.5t16.5 41.5t42.5 17.5q25 0 42 -17.5t17 -41.5t-17 -41.5t-42 -17.5z" />
    <glyph glyph-name="igrave" unicode="&#xec;" horiz-adv-x="244" 
d="M39 0v44l44 4v365l-41 5v41l108 52q16 8 16 -14v-449l44 -4v-44h-171zM161 566l-75 50q-31 20 -46.5 34.5t-15.5 33.5q0 20 12 35t34 15q27 0 42.5 -18.5t35.5 -56.5l39 -71z" />
    <glyph glyph-name="iacute" unicode="&#xed;" horiz-adv-x="244" 
d="M39 0v44l44 4v365l-41 5v41l108 52q16 8 16 -14v-449l44 -4v-44h-171zM106 659q20 38 35.5 56.5t42.5 18.5q22 0 34 -15t12 -35q0 -19 -15.5 -33.5t-46.5 -34.5l-75 -50l-26 22z" />
    <glyph glyph-name="icircumflex" unicode="&#xee;" horiz-adv-x="244" 
d="M39 0v44l44 4v365l-41 5v41l108 52q16 8 16 -14v-449l44 -4v-44h-171zM223 574l-99 54l-99 -54l-23 26l84 99q8 10 16.5 16.5t21.5 6.5t21.5 -6.5t16.5 -16.5l84 -99z" />
    <glyph glyph-name="idieresis" unicode="&#xef;" horiz-adv-x="244" 
d="M44 587q-26 0 -42.5 17.5t-16.5 41.5t16.5 41.5t42.5 17.5q25 0 42 -17.5t17 -41.5t-17 -41.5t-42 -17.5zM211 587q-26 0 -42.5 17.5t-16.5 41.5t16.5 41.5t42.5 17.5q25 0 42 -17.5t17 -41.5t-17 -41.5t-42 -17.5zM39 0v44l44 4v365l-41 5v41l108 52q16 8 16 -14v-449
l44 -4v-44h-171z" />
    <glyph glyph-name="ntilde" unicode="&#xf1;" horiz-adv-x="550" 
d="M39 0v44l44 4v365l-41 5v41l104 50q20 9 20 -12v-52q4 6 13.5 17.5t26 22.5t40.5 19t57 8q39 0 70.5 -12t53 -33.5t33 -50.5t11.5 -63v-305l44 -4v-44h-171v44l44 4v294q0 51 -30.5 84t-80.5 33q-26 0 -47 -8.5t-35 -22t-21.5 -31t-7.5 -36.5v-313l44 -4v-44h-171z
M226 617q-14 0 -24 -10t-17 -24l-36 12q5 42 25 69t49 27q17 0 29 -4.5t28 -12.5q14 -6 21.5 -9t17.5 -3q14 0 23.5 9t17.5 25l36 -12q-5 -43 -25 -69.5t-50 -26.5q-17 0 -28 4t-27 12q-14 7 -21.5 10t-18.5 3z" />
    <glyph glyph-name="ograve" unicode="&#xf2;" horiz-adv-x="539" 
d="M39 250q0 56 19.5 104t51.5 83t73.5 55t86.5 20q51 0 93.5 -20t73 -55t47 -83t16.5 -104q0 -57 -18 -105t-49 -83t-73 -54.5t-90 -19.5t-90 19.5t-73.5 54.5t-49.5 83t-18 105zM408 230q0 53 -12 95t-33 71.5t-49 45t-59 15.5q-54 0 -89 -50t-35 -137q0 -53 13 -95.5
t34.5 -71.5t49 -44.5t57.5 -15.5q57 0 90 50t33 137zM306 566l-75 50q-31 20 -46.5 34.5t-15.5 33.5q0 20 12 35t34 15q27 0 42.5 -18.5t35.5 -56.5l39 -71z" />
    <glyph glyph-name="oacute" unicode="&#xf3;" horiz-adv-x="539" 
d="M39 250q0 56 19.5 104t51.5 83t73.5 55t86.5 20q51 0 93.5 -20t73 -55t47 -83t16.5 -104q0 -57 -18 -105t-49 -83t-73 -54.5t-90 -19.5t-90 19.5t-73.5 54.5t-49.5 83t-18 105zM408 230q0 53 -12 95t-33 71.5t-49 45t-59 15.5q-54 0 -89 -50t-35 -137q0 -53 13 -95.5
t34.5 -71.5t49 -44.5t57.5 -15.5q57 0 90 50t33 137zM251 659q20 38 35.5 56.5t42.5 18.5q22 0 34 -15t12 -35q0 -19 -15.5 -33.5t-46.5 -34.5l-75 -50l-26 22z" />
    <glyph glyph-name="ocircumflex" unicode="&#xf4;" horiz-adv-x="539" 
d="M39 250q0 56 19.5 104t51.5 83t73.5 55t86.5 20q51 0 93.5 -20t73 -55t47 -83t16.5 -104q0 -57 -18 -105t-49 -83t-73 -54.5t-90 -19.5t-90 19.5t-73.5 54.5t-49.5 83t-18 105zM408 230q0 53 -12 95t-33 71.5t-49 45t-59 15.5q-54 0 -89 -50t-35 -137q0 -53 13 -95.5
t34.5 -71.5t49 -44.5t57.5 -15.5q57 0 90 50t33 137zM368 574l-99 54l-99 -54l-23 26l84 99q8 10 16.5 16.5t21.5 6.5t21.5 -6.5t16.5 -16.5l84 -99z" />
    <glyph glyph-name="otilde" unicode="&#xf5;" horiz-adv-x="539" 
d="M39 250q0 56 19.5 104t51.5 83t73.5 55t86.5 20q51 0 93.5 -20t73 -55t47 -83t16.5 -104q0 -57 -18 -105t-49 -83t-73 -54.5t-90 -19.5t-90 19.5t-73.5 54.5t-49.5 83t-18 105zM408 230q0 53 -12 95t-33 71.5t-49 45t-59 15.5q-54 0 -89 -50t-35 -137q0 -53 13 -95.5
t34.5 -71.5t49 -44.5t57.5 -15.5q57 0 90 50t33 137zM223 617q-14 0 -24 -10t-17 -24l-36 12q5 42 25 69t49 27q17 0 29 -4.5t28 -12.5q14 -6 21.5 -9t17.5 -3q14 0 23.5 9t17.5 25l36 -12q-5 -43 -25 -69.5t-50 -26.5q-17 0 -28 4t-27 12q-14 7 -21.5 10t-18.5 3z" />
    <glyph glyph-name="odieresis" unicode="&#xf6;" horiz-adv-x="539" 
d="M39 250q0 56 19.5 104t51.5 83t73.5 55t86.5 20q51 0 93.5 -20t73 -55t47 -83t16.5 -104q0 -57 -18 -105t-49 -83t-73 -54.5t-90 -19.5t-90 19.5t-73.5 54.5t-49.5 83t-18 105zM408 230q0 53 -12 95t-33 71.5t-49 45t-59 15.5q-54 0 -89 -50t-35 -137q0 -53 13 -95.5
t34.5 -71.5t49 -44.5t57.5 -15.5q57 0 90 50t33 137zM179 587q-26 0 -42.5 17.5t-16.5 41.5t16.5 41.5t42.5 17.5q25 0 42 -17.5t17 -41.5t-17 -41.5t-42 -17.5zM359 587q-26 0 -42.5 17.5t-16.5 41.5t16.5 41.5t42.5 17.5q25 0 42 -17.5t17 -41.5t-17 -41.5t-42 -17.5z" />
    <glyph glyph-name="divide" unicode="&#xf7;" horiz-adv-x="574" 
d="M287 456q-29 0 -47.5 19t-18.5 47t18 47t48 19q29 0 47.5 -19t18.5 -47t-18.5 -47t-47.5 -19zM65 376h444v-50h-444v50zM287 104q-29 0 -47.5 19t-18.5 47t18 47t48 19q29 0 47.5 -19t18.5 -47t-18.5 -47t-47.5 -19z" />
    <glyph glyph-name="oslash" unicode="&#xf8;" horiz-adv-x="539" 
d="M36 21l56 64q-25 33 -39 75t-14 90q0 56 19.5 104t51.5 83t73.5 55t86.5 20q40 0 76.5 -14.5t65.5 -40.5l48 55l40 -34l-52 -60q24 -34 38 -76.5t14 -91.5q0 -57 -18 -105t-49 -83t-73 -54.5t-90 -19.5q-38 0 -75.5 15.5t-68.5 43.5l-51 -59zM131 270q0 -70 17 -119
l217 251q-39 55 -110 55q-54 0 -89 -50t-35 -137zM408 230q0 71 -17 122l-218 -251q20 -29 48.5 -43.5t63.5 -14.5q57 0 90 50t33 137z" />
    <glyph glyph-name="ugrave" unicode="&#xf9;" 
d="M501 44v-44h-124v55q-4 -6 -13.5 -17.5t-25.5 -22.5t-39.5 -19t-55.5 -8q-38 0 -68.5 12t-52 33.5t-33 50.5t-11.5 63v266l-41 5v41l104 50q20 9 20 -12v-339q0 -51 30 -84t78 -33q25 0 45 8.5t34 22t21.5 31t7.5 36.5v274l-47 5v41l107 50q20 9 20 -12v-449zM313 566
l-75 50q-31 20 -46.5 34.5t-15.5 33.5q0 20 12 35t34 15q27 0 42.5 -18.5t35.5 -56.5l39 -71z" />
    <glyph glyph-name="uacute" unicode="&#xfa;" 
d="M501 44v-44h-124v55q-4 -6 -13.5 -17.5t-25.5 -22.5t-39.5 -19t-55.5 -8q-38 0 -68.5 12t-52 33.5t-33 50.5t-11.5 63v266l-41 5v41l104 50q20 9 20 -12v-339q0 -51 30 -84t78 -33q25 0 45 8.5t34 22t21.5 31t7.5 36.5v274l-47 5v41l107 50q20 9 20 -12v-449zM258 659
q20 38 35.5 56.5t42.5 18.5q22 0 34 -15t12 -35q0 -19 -15.5 -33.5t-46.5 -34.5l-75 -50l-26 22z" />
    <glyph glyph-name="ucircumflex" unicode="&#xfb;" 
d="M501 44v-44h-124v55q-4 -6 -13.5 -17.5t-25.5 -22.5t-39.5 -19t-55.5 -8q-38 0 -68.5 12t-52 33.5t-33 50.5t-11.5 63v266l-41 5v41l104 50q20 9 20 -12v-339q0 -51 30 -84t78 -33q25 0 45 8.5t34 22t21.5 31t7.5 36.5v274l-47 5v41l107 50q20 9 20 -12v-449zM375 574
l-99 54l-99 -54l-23 26l84 99q8 10 16.5 16.5t21.5 6.5t21.5 -6.5t16.5 -16.5l84 -99z" />
    <glyph glyph-name="udieresis" unicode="&#xfc;" 
d="M501 44v-44h-124v55q-4 -6 -13.5 -17.5t-25.5 -22.5t-39.5 -19t-55.5 -8q-38 0 -68.5 12t-52 33.5t-33 50.5t-11.5 63v266l-41 5v41l104 50q20 9 20 -12v-339q0 -51 30 -84t78 -33q25 0 45 8.5t34 22t21.5 31t7.5 36.5v274l-47 5v41l107 50q20 9 20 -12v-449zM186 587
q-26 0 -42.5 17.5t-16.5 41.5t16.5 41.5t42.5 17.5q25 0 42 -17.5t17 -41.5t-17 -41.5t-42 -17.5zM366 587q-26 0 -42.5 17.5t-16.5 41.5t16.5 41.5t42.5 17.5q25 0 42 -17.5t17 -41.5t-17 -41.5t-42 -17.5z" />
    <glyph glyph-name="ydieresis" unicode="&#xff;" horiz-adv-x="490" 
d="M271 -5q-20 -53 -39.5 -90.5t-40.5 -61t-44 -34.5t-51 -11q-27 0 -43.5 13t-16.5 34q0 18 11.5 31t32.5 13q16 0 28 -4t24 -4q10 0 19.5 5t20 18.5t22.5 38t27 63.5l-178 446l-37 4v44h182v-44l-54 -4l128 -339l127 339l-54 4v44h148v-44l-37 -4l-175 -457v0zM169 587
q-26 0 -42.5 17.5t-16.5 41.5t16.5 41.5t42.5 17.5q25 0 42 -17.5t17 -41.5t-17 -41.5t-42 -17.5zM349 587q-26 0 -42.5 17.5t-16.5 41.5t16.5 41.5t42.5 17.5q25 0 42 -17.5t17 -41.5t-17 -41.5t-42 -17.5z" />
    <glyph glyph-name="dotlessi" unicode="&#x131;" horiz-adv-x="244" 
d="M39 0v44l44 4v365l-41 5v41l108 52q16 8 16 -14v-449l44 -4v-44h-171z" />
    <glyph glyph-name="OE" unicode="&#x152;" horiz-adv-x="930" 
d="M407 0q-77 0 -142 22t-112.5 65.5t-74.5 107t-27 146.5q0 81 27.5 144t75.5 107t113 67t140 23h426q26 -61 35 -109q2 -12 -2.5 -18.5t-13.5 -6.5q-8 0 -11.5 3.5t-9.5 10.5q-16 18 -29.5 31t-30 21t-37.5 11.5t-51 3.5h-140v-256h201l2 45h40l23 -143h-40l-19 44h-207
v-266h172q30 0 51 4.5t37.5 14.5t30.5 25.5t30 36.5q5 6 8.5 10t11.5 4t12.5 -5.5t2.5 -19.5q-2 -11 -5.5 -26.5t-8.5 -32l-10 -33t-10 -31.5h-458zM407 629q-56 0 -103.5 -18t-82 -54t-54 -90t-19.5 -126q0 -73 19.5 -127t54 -90t82 -53.5t103.5 -17.5h51v576h-51z" />
    <glyph glyph-name="oe" unicode="&#x153;" horiz-adv-x="845" 
d="M39 250q0 56 19 104t50.5 83t72 55t82.5 20q63 0 108.5 -31.5t71.5 -85.5q27 55 69.5 86t93.5 31q47 0 82 -16t60 -42t41 -60.5t25 -70.5l-319 -130q17 -66 55.5 -104t89.5 -38q29 0 52 7.5t40 18.5t30 23t23 22l34 -33q-9 -13 -24 -30.5t-38.5 -33t-55.5 -26.5t-75 -11
q-66 0 -113.5 30t-73.5 84q-27 -53 -73 -83.5t-103 -30.5q-45 0 -86 19.5t-71.5 54.5t-48.5 83t-18 105zM674 329q27 11 27 37q0 15 -6 31.5t-18 30.5t-29.5 23t-41.5 9q-26 0 -48 -13.5t-38 -38t-25 -58.5t-9 -75v-14.5t1 -13.5zM394 230q0 53 -12 95t-32.5 71.5t-47 45
t-54.5 15.5q-24 0 -45.5 -13t-37.5 -37t-25 -59t-9 -78q0 -53 13 -95.5t33.5 -71.5t47 -44.5t53.5 -15.5q52 0 84 50t32 137z" />
    <glyph glyph-name="Ydieresis" unicode="&#x178;" horiz-adv-x="648" 
d="M286 255l-217 377l-43 4v46h191v-46l-47 -4l174 -315l174 315l-47 4v46h151v-46l-43 -4l-205 -372v-210l49 -4v-46h-186v46l49 4v205zM240 748q-26 0 -42.5 17.5t-16.5 41.5t16.5 41.5t42.5 17.5q25 0 42 -17.5t17 -41.5t-17 -41.5t-42 -17.5zM430 748q-26 0 -42.5 17.5
t-16.5 41.5t16.5 41.5t42.5 17.5q25 0 42 -17.5t17 -41.5t-17 -41.5t-42 -17.5z" />
    <glyph glyph-name="florin" unicode="&#x192;" horiz-adv-x="411" 
d="M121 392h-78l7 50h78l13 89q7 51 26.5 90.5t47 65.5t63 39.5t75.5 13.5q36 0 52 -14t16 -36q0 -20 -13.5 -32t-35.5 -12q-15 0 -25 6t-18 12.5t-15 12.5t-17 6q-22 0 -39.5 -26t-25.5 -83l-19 -132h94l-7 -50h-95l-56 -385q-15 -103 -68.5 -156t-134.5 -53
q-31 0 -47.5 13t-16.5 34q0 18 12.5 30t32.5 12q12 0 21 -5t17 -11t16 -11t18 -5q20 0 35.5 25t23.5 84z" />
    <glyph glyph-name="circumflex" unicode="&#x2c6;" horiz-adv-x="500" 
d="M349 574l-99 54l-99 -54l-23 26l84 99q8 10 16.5 16.5t21.5 6.5t21.5 -6.5t16.5 -16.5l84 -99z" />
    <glyph glyph-name="caron" unicode="&#x2c7;" horiz-adv-x="500" 
d="M288 598q-8 -10 -16.5 -16.5t-21.5 -6.5t-21.5 6.5t-16.5 16.5l-84 99l23 26l99 -54l99 54l23 -26l-84 -99v0z" />
    <glyph glyph-name="breve" unicode="&#x2d8;" horiz-adv-x="500" 
d="M250 648q33 0 48.5 17.5t20.5 33.5l39 -9q0 -18 -6 -38.5t-18.5 -37t-33 -27.5t-50.5 -11t-50.5 11t-33 27.5t-18.5 37t-6 38.5l39 9q5 -16 20.5 -33.5t48.5 -17.5z" />
    <glyph glyph-name="dotaccent" unicode="&#x2d9;" horiz-adv-x="500" 
d="M249 587q-26 0 -44 18.5t-18 43.5t17.5 43.5t44.5 18.5q26 0 44 -18.5t18 -43.5t-18 -43.5t-44 -18.5z" />
    <glyph glyph-name="ring" unicode="&#x2da;" horiz-adv-x="500" 
d="M250 759q21 0 39 -7.5t31.5 -20.5t21.5 -30.5t8 -37.5t-8 -37.5t-21.5 -30.5t-31.5 -20t-39 -7q-42 0 -71 27t-29 68q0 20 7.5 37.5t21 30.5t32 20.5t39.5 7.5zM250 717q-20 0 -32.5 -16t-12.5 -38t12.5 -37.5t32.5 -15.5t32.5 15.5t12.5 37.5t-12.5 38t-32.5 16z" />
    <glyph glyph-name="ogonek" unicode="&#x2db;" horiz-adv-x="500" 
d="M301 0q-34 -29 -55 -51t-21 -45q0 -16 9.5 -26.5t28.5 -10.5q18 0 32 9.5t23 18.5l29 -26q-5 -8 -12.5 -19.5t-20 -22t-30 -18t-41.5 -7.5q-43 0 -66.5 24.5t-23.5 58.5q0 21 8.5 38.5t22 31.5t30 25t32.5 20h55z" />
    <glyph glyph-name="tilde" unicode="&#x2dc;" horiz-adv-x="500" 
d="M202 617q-14 0 -24 -10t-17 -24l-36 12q5 42 25 69t49 27q17 0 29 -4.5t28 -12.5q14 -6 21.5 -9t17.5 -3q14 0 23.5 9t17.5 25l36 -12q-5 -43 -25 -69.5t-50 -26.5q-17 0 -28 4t-27 12q-14 7 -21.5 10t-18.5 3z" />
    <glyph glyph-name="hungarumlaut" unicode="&#x2dd;" horiz-adv-x="500" 
d="M128 656q14 49 26.5 70t38.5 21q20 0 31.5 -12t11.5 -32q0 -14 -10.5 -32t-36.5 -44l-50 -50l-29 15zM280 656q14 50 26.5 70.5t38.5 20.5q20 0 31.5 -12t11.5 -32q0 -14 -10.5 -32t-36.5 -44l-50 -50l-29 15z" />
    <glyph glyph-name="endash" unicode="&#x2013;" horiz-adv-x="606" 
d="M65 324h476v-50h-476v50z" />
    <glyph glyph-name="emdash" unicode="&#x2014;" horiz-adv-x="870" 
d="M65 324h740v-50h-740v50z" />
    <glyph glyph-name="quoteleft" unicode="&#x2018;" horiz-adv-x="236" 
d="M119 483q-29 0 -47 20.5t-18 58.5q0 25 11 49t26.5 42.5t34 29.5t33.5 11q13 0 13 -12q0 -6 -5.5 -13.5t-13.5 -17t-17.5 -22.5t-16.5 -30h3q30 0 45 -16.5t15 -40.5q0 -25 -18 -42t-45 -17z" />
    <glyph glyph-name="quoteright" unicode="&#x2019;" horiz-adv-x="236" 
d="M77 483q-13 0 -13 12q0 6 5.5 13t13.5 17t17 23t17 30h-3q-30 0 -45 16.5t-15 40.5q0 25 18 42t45 17q29 0 47 -20.5t18 -58.5q0 -26 -11 -49.5t-26.5 -42t-34 -29.5t-33.5 -11z" />
    <glyph glyph-name="quotesinglbase" unicode="&#x201a;" horiz-adv-x="236" 
d="M77 -100q-13 0 -13 12q0 6 5.5 13t13.5 17t17 23t17 30h-3q-30 0 -45 16.5t-15 40.5q0 25 18 42t45 17q29 0 47 -20.5t18 -58.5q0 -26 -11 -49.5t-26.5 -42t-34 -29.5t-33.5 -11z" />
    <glyph glyph-name="quotedblleft" unicode="&#x201c;" horiz-adv-x="400" 
d="M119 483q-29 0 -47 20.5t-18 58.5q0 25 11 49t26.5 42.5t34 29.5t33.5 11q13 0 13 -12q0 -6 -5.5 -13.5t-13.5 -17t-17.5 -22.5t-16.5 -30h3q30 0 45 -16.5t15 -40.5q0 -25 -18 -42t-45 -17zM283 483q-29 0 -47 20.5t-18 58.5q0 25 11 49t26.5 42.5t34 29.5t33.5 11
q13 0 13 -12q0 -6 -5.5 -13.5t-13.5 -17t-17.5 -22.5t-16.5 -30h3q30 0 45 -16.5t15 -40.5q0 -25 -18 -42t-45 -17z" />
    <glyph glyph-name="quotedblright" unicode="&#x201d;" horiz-adv-x="400" 
d="M241 483q-13 0 -13 12q0 6 5.5 13t13.5 17t17 23t17 30h-3q-30 0 -45 16.5t-15 40.5q0 25 18 42t45 17q29 0 47 -20.5t18 -58.5q0 -26 -11 -49.5t-26.5 -42t-34 -29.5t-33.5 -11zM77 483q-13 0 -13 12q0 6 5.5 13t13.5 17t17 23t17 30h-3q-30 0 -45 16.5t-15 40.5
q0 25 18 42t45 17q29 0 47 -20.5t18 -58.5q0 -26 -11 -49.5t-26.5 -42t-34 -29.5t-33.5 -11z" />
    <glyph glyph-name="quotedblbase" unicode="&#x201e;" horiz-adv-x="400" 
d="M241 -100q-13 0 -13 12q0 6 5.5 13t13.5 17t17 23t17 30h-3q-30 0 -45 16.5t-15 40.5q0 25 18 42t45 17q29 0 47 -20.5t18 -58.5q0 -26 -11 -49.5t-26.5 -42t-34 -29.5t-33.5 -11zM77 -100q-13 0 -13 12q0 6 5.5 13t13.5 17t17 23t17 30h-3q-30 0 -45 16.5t-15 40.5
q0 25 18 42t45 17q29 0 47 -20.5t18 -58.5q0 -26 -11 -49.5t-26.5 -42t-34 -29.5t-33.5 -11z" />
    <glyph glyph-name="dagger" unicode="&#x2020;" horiz-adv-x="420" 
d="M231 17q-1 -13 -5.5 -21t-15.5 -8t-16 8t-6 21l-16 197q-2 32 -5 61t-3 50q0 25 3.5 44.5t8 37.5t8.5 36t6 41q-16 -2 -29.5 -7t-26 -9.5t-25 -8t-25.5 -3.5q-28 0 -42.5 13t-14.5 33t14.5 33t42.5 13q13 0 25.5 -3.5t25 -8t26 -9.5t29.5 -7q-2 16 -7 30l-10 28t-9 28
t-4 29q0 26 13 42.5t37 16.5t37 -16.5t13 -42.5q0 -15 -4 -29t-9 -28l-10 -28t-7 -30q16 2 29.5 7t26 9.5t24.5 8t26 3.5q28 0 42.5 -13t14.5 -33t-14.5 -33t-42.5 -13q-14 0 -26 3.5t-24.5 8t-26 9.5t-29.5 7q1 -23 5.5 -41l9 -36t8 -37.5t3.5 -44.5q0 -21 -2.5 -50
t-5.5 -61l-17 -197v0z" />
    <glyph glyph-name="daggerdbl" unicode="&#x2021;" horiz-adv-x="420" 
d="M260 47q0 -26 -13 -42.5t-37 -16.5t-37 16.5t-13 42.5q0 15 4 29t9 28l10 28t7 30q-16 -2 -29.5 -7t-26 -9.5t-25 -8t-25.5 -3.5q-28 0 -42.5 13t-14.5 33t14.5 33t42.5 13q13 0 25.5 -3.5t25 -8t26 -9.5t29.5 -7q-2 22 -6 38.5t-8.5 32t-8 32t-3.5 39.5q0 22 3.5 39.5
t8 33t8.5 32.5t6 39q-16 -2 -29.5 -7t-26 -9.5t-25 -8t-25.5 -3.5q-28 0 -42.5 13t-14.5 33t14.5 33t42.5 13q13 0 25.5 -3.5t25 -8t26 -9.5t29.5 -7q-2 16 -7 30l-10 28t-9 28t-4 29q0 26 13 42.5t37 16.5t37 -16.5t13 -42.5q0 -15 -4 -29t-9 -28l-10 -28t-7 -30
q16 2 29.5 7t26 9.5t24.5 8t26 3.5q28 0 42.5 -13t14.5 -33t-14.5 -33t-42.5 -13q-14 0 -26 3.5t-24.5 8t-26 9.5t-29.5 7q1 -22 5.5 -39t9 -32.5t8 -33t3.5 -39.5q0 -23 -3.5 -39.5t-8 -32t-9 -32t-5.5 -38.5q16 2 29.5 7t26 9.5t24.5 8t26 3.5q28 0 42.5 -13t14.5 -33
t-14.5 -33t-42.5 -13q-14 0 -26 3.5t-24.5 8t-26 9.5t-29.5 7q2 -16 7 -30l10 -28t9 -28t4 -29z" />
    <glyph glyph-name="bullet" unicode="&#x2022;" horiz-adv-x="270" 
d="M135 238q-43 0 -72 29t-29 72t29 72t72 29t72 -29t29 -72t-29 -72t-72 -29z" />
    <glyph glyph-name="ellipsis" unicode="&#x2026;" horiz-adv-x="632" 
d="M120 -12q-29 0 -47.5 19t-18.5 47t18 47t48 19q29 0 47.5 -19t18.5 -47t-18.5 -47t-47.5 -19zM316 -12q-29 0 -47.5 19t-18.5 47t18 47t48 19q29 0 47.5 -19t18.5 -47t-18.5 -47t-47.5 -19zM512 -12q-29 0 -47.5 19t-18.5 47t18 47t48 19q29 0 47.5 -19t18.5 -47
t-18.5 -47t-47.5 -19z" />
    <glyph glyph-name="perthousand" unicode="&#x2030;" horiz-adv-x="1038" 
d="M128 -31l-43 31l423 604q-45 -18 -101 -18q-32 0 -58 5t-49 14q22 -41 22 -90q0 -38 -10 -70.5t-29 -55.5t-45 -36t-57 -13q-32 0 -59.5 13t-47.5 36t-32 55.5t-12 70.5t12 70.5t32 56t46.5 36.5t55.5 13q23 0 44 -9t46.5 -19.5t60.5 -19t87 -8.5q27 0 47.5 4t38 11.5
t33 16.5t32.5 20q8 5 17.5 4t16 -6.5t8 -15t-5.5 -19.5zM262 503q0 75 -24.5 109.5t-62.5 34.5q-30 0 -47.5 -31.5t-17.5 -86.5q0 -69 21 -107t56 -38q36 0 55.5 32.5t19.5 86.5zM380 165q0 38 12.5 70.5t33 56t48 36.5t57.5 13q28 0 54 -13t45 -36.5t30.5 -56t11.5 -70.5
t-10 -70.5t-29 -55.5t-45 -36t-57 -13q-32 0 -59.5 13t-47.5 36t-32 55.5t-12 70.5zM716 165q0 38 12.5 70.5t33 56t48 36.5t57.5 13q28 0 54 -13t45 -36.5t30.5 -56t11.5 -70.5t-10 -70.5t-29 -55.5t-45 -36t-57 -13q-32 0 -59.5 13t-47.5 36t-32 55.5t-12 70.5zM612 153
q0 75 -24.5 109.5t-62.5 34.5q-30 0 -47.5 -31.5t-17.5 -86.5q0 -69 21 -107t56 -38q36 0 55.5 32.5t19.5 86.5zM948 153q0 75 -24.5 109.5t-62.5 34.5q-30 0 -47.5 -31.5t-17.5 -86.5q0 -69 21 -107t56 -38q36 0 55.5 32.5t19.5 86.5z" />
    <glyph glyph-name="guilsinglleft" unicode="&#x2039;" horiz-adv-x="282" 
d="M200 140l-146 132q-14 13 -14 25q0 8 3 13t11 12l146 132l32 -29l-100 -128l100 -128z" />
    <glyph glyph-name="guilsinglright" unicode="&#x203a;" horiz-adv-x="284" 
d="M82 140l-32 29l100 128l-100 128l32 29l148 -132q8 -7 11 -12t3 -13q0 -12 -14 -25z" />
    <glyph glyph-name="fraction" unicode="&#x2044;" horiz-adv-x="435" 
d="M-41 0l459 682h58l-460 -682h-57z" />
    <glyph glyph-name="Euro" unicode="&#x20ac;" horiz-adv-x="664" 
d="M22 300h84q-1 8 -1 16v16q0 26 3 52h-86v51h94q13 59 40 107t64.5 81.5t84.5 52t100 18.5q49 0 85 -10t60 -25.5t35.5 -34.5t11.5 -37q0 -20 -11.5 -33.5t-33.5 -13.5q-23 0 -37.5 15.5t-29.5 34.5t-35.5 34.5t-56.5 15.5q-35 0 -66 -14.5t-55.5 -41.5t-42 -65t-24.5 -84
h237v-51h-243v-21q0 -33 3 -63h240v-50h-233q20 -95 72 -146t133 -51q34 0 61.5 8t49.5 20t38 25t27 23l31 -38q-9 -12 -27.5 -29.5t-46.5 -34t-66 -28t-86 -11.5q-58 0 -106 18t-84 52t-60 82.5t-34 109.5h-89v50z" />
    <glyph glyph-name="trademark" unicode="&#x2122;" horiz-adv-x="638" 
d="M194 682q17 0 25 2.5t14 2.5t8 -9q2 -11 4.5 -25.5t4.5 -25.5q2 -13 -9 -13q-7 0 -12 9q-10 17 -17 25t-28 8h-20v-217l25 -2v-24h-104v24l25 2v217h-20q-21 0 -28 -8t-17 -25q-5 -9 -12 -9q-11 0 -9 13q2 11 4.5 25.5t4.5 25.5q2 9 8 9t14 -2.5t25 -2.5h114zM589 682
v-25l-22 -5l9 -211l22 -3v-25h-100v25l23 3l-8 189l-74 -208q-2 -6 -5 -9t-10 -3q-10 0 -14 12l-74 213l-9 -194l23 -3v-25h-81v25l22 3l9 213l-22 3v25h95l60 -178l62 178h94z" />
    <glyph glyph-name="dollar" unicode="$" horiz-adv-x="538" 
d="M288 766v-76q48 -2 82 -13.5t55.5 -27t31.5 -33t10 -31.5q0 -20 -10.5 -33.5t-32.5 -13.5q-21 0 -31.5 13.5t-22 31t-29.5 33.5t-53 21v-227l40 -18q41 -18 72.5 -37t53.5 -42t33 -51.5t11 -65.5q0 -86 -52 -142t-158 -62v-83h-49v83q-52 3 -89.5 16.5t-62 31.5t-36 38.5
t-11.5 36.5q0 21 11.5 35t34.5 14q19 0 29.5 -8t18 -20.5t13.5 -27.5t17 -28.5t28 -24t47 -13.5v296l-21 9q-34 15 -62 31.5t-47.5 37t-30.5 46.5t-11 60t12.5 62.5t35.5 50t54.5 35.5t69.5 18v78h49zM143 544q0 -34 21.5 -60t74.5 -52v205q-47 -5 -71.5 -28t-24.5 -65z
M417 173q0 51 -33 83.5t-96 60.5v-275q67 5 98 39.5t31 91.5z" />
    <glyph glyph-name="exclam" unicode="!" horiz-adv-x="268" 
d="M78 623q-2 32 9 45.5t37 13.5h21q26 0 37 -13.5t9 -45.5l-34 -438h-46zM134 -12q-29 0 -47.5 19t-18.5 47t18 47t48 19q29 0 47.5 -19t18.5 -47t-18.5 -47t-47.5 -19z" />
    <glyph glyph-name="quotedbl" unicode="&#x22;" horiz-adv-x="349" 
d="M246 483q-14 0 -20 20q-4 12 -9 30.5t-9.5 38t-7.5 37.5t-3 30q0 24 12 39.5t37 15.5q26 0 37.5 -15.5t11.5 -39.5q0 -12 -3 -30t-7.5 -37.5t-9.5 -38t-9 -30.5q-6 -20 -20 -20zM103 483q-14 0 -20 20q-4 12 -9 30.5t-9.5 38t-7.5 37.5t-3 30q0 24 12 39.5t37 15.5
q26 0 37.5 -15.5t11.5 -39.5q0 -12 -3 -30t-7.5 -37.5t-9.5 -38t-9 -30.5q-6 -20 -20 -20z" />
    <glyph glyph-name="numbersign" unicode="#" horiz-adv-x="629" 
d="M109 0l41 184h-105v50h116l51 229h-105v50h116l37 169h57l-38 -169h150l37 169h57l-38 -169h99v-50h-110l-51 -229h99v-50h-110l-41 -184h-56l41 184h-150l-41 -184h-56zM367 234l51 229h-150l-51 -229h150z" />
    <glyph glyph-name="brokenbar" unicode="&#xa6;" horiz-adv-x="248" 
d="M95 401v355h58v-355h-58zM95 -81v365h58v-365h-58z" />
    <glyph glyph-name="onequarter" unicode="&#xbc;" horiz-adv-x="678" 
d="M30 519v49l81 104q10 14 25 14q17 0 17 -20v-349l39 -3v-32h-151v32l39 3v261zM635 0h-150v32l39 3v65h-144q-21 0 -21 17v9q0 10 2 15.5t10 14.5l169 226q8 10 14.5 16.5t18.5 6.5q23 0 23 -26v-235h55v-44h-55v-65l39 -3v-32zM524 144v160l-118 -160h118zM60 0l459 682
h58l-460 -682h-57z" />
    <glyph glyph-name="onehalf" unicode="&#xbd;" horiz-adv-x="708" 
d="M30 519v49l81 104q10 14 25 14q17 0 17 -20v-349l39 -3v-32h-151v32l39 3v261zM538 407q68 0 101.5 -31t33.5 -82q0 -25 -9 -46t-24 -39t-35.5 -34t-43.5 -32q-32 -22 -57 -42t-38 -46h92q38 0 56.5 8.5t33.5 28.5q7 11 15 11q14 0 13 -19q-2 -17 -8 -42.5t-12 -41.5
h-227q-9 0 -13.5 2.5t-4.5 12.5q1 22 10.5 42t25 39t34.5 37t39 36q33 30 53 61t20 69q0 34 -17.5 53t-48.5 19q-28 0 -45 -13t-17 -30q0 -9 6.5 -13.5t14 -9t14 -11.5t6.5 -19q0 -15 -9.5 -24.5t-25.5 -9.5q-20 0 -37.5 16t-17.5 51q0 22 9.5 40t26 31t38.5 20.5t48 7.5z
M60 0l459 682h58l-460 -682h-57z" />
    <glyph glyph-name="threequarters" unicode="&#xbe;" horiz-adv-x="751" 
d="M708 0h-150v32l39 3v65h-144q-21 0 -21 17v9q0 10 2 15.5t10 14.5l169 226q8 10 14.5 16.5t18.5 6.5q23 0 23 -26v-235h55v-44h-55v-65l39 -3v-32zM597 144v160l-118 -160h118zM133 0l459 682h58l-460 -682h-57zM140 275q-51 0 -85 24t-34 68q0 32 16 47.5t36 15.5
q34 0 34 -31q0 -12 -5.5 -18t-12.5 -10t-12.5 -8.5t-5.5 -11.5q0 -17 17.5 -28t45.5 -11q40 0 62 24t22 66q0 44 -20.5 66t-57.5 22q-13 0 -21 -2.5t-15 -2.5q-9 0 -12.5 8t4.5 16l116 120h-58q-20 0 -33.5 -1t-23.5 -3.5t-17.5 -7.5t-14.5 -13q-4 -4 -6.5 -6t-8.5 -2
q-5 0 -9 3.5t-2 11.5q2 14 8.5 35t13.5 36h214q17 0 17 -13q0 -8 -5 -15.5t-13 -15.5l-115 -114q29 1 54.5 -6.5t44 -22t29.5 -36t11 -49.5q0 -57 -41 -96t-117 -39z" />
    <glyph glyph-name="Eth" unicode="&#xd0;" horiz-adv-x="697" 
d="M52 46l49 4v269h-71v54h71v259l-49 4v46h234q76 0 142 -22.5t115.5 -65.5t78 -107t28.5 -146q0 -83 -28.5 -147t-78 -107t-115.5 -65t-142 -22h-234v46zM286 50q58 0 107 18t84.5 54t55.5 90.5t20 128.5q0 73 -20 128t-55.5 91t-84.5 54t-107 18h-100v-259h219v-54h-219
v-269h100z" />
    <glyph glyph-name="multiply" unicode="&#xd7;" horiz-adv-x="517" 
d="M61 180l159 166l-158 160l40 41l157 -161l155 162l38 -37l-156 -163l162 -166l-38 -38l-163 165l-158 -165z" />
    <glyph glyph-name="Yacute" unicode="&#xdd;" horiz-adv-x="648" 
d="M286 255l-217 377l-43 4v46h191v-46l-47 -4l174 -315l174 315l-47 4v46h151v-46l-43 -4l-205 -372v-210l49 -4v-46h-186v46l49 4v205zM324 825q29 26 46.5 37.5t39.5 11.5q23 0 36 -14t13 -35q0 -26 -21 -40.5t-69 -26.5l-96 -24l-18 29z" />
    <glyph glyph-name="Thorn" unicode="&#xde;" horiz-adv-x="598" 
d="M315 537q55 0 99.5 -9t76.5 -30t49.5 -55.5t17.5 -84.5t-17.5 -86t-49 -59.5t-76.5 -34.5t-99 -11h-130v-117l49 -4v-46h-183v46l49 4v582l-49 4v46h183v-46l-49 -4v-95h129zM186 486v-268h122q83 0 123 29.5t40 104.5t-40.5 104.5t-125.5 29.5h-119z" />
    <glyph glyph-name="eth" unicode="&#xf0;" horiz-adv-x="550" 
d="M109 564l134 73q-29 17 -58 27.5t-55 15.5q-19 4 -25.5 9.5t-6.5 16.5q0 22 30 22q32 0 80.5 -13t99.5 -43l115 62l22 -44l-92 -49q31 -25 59 -58t49 -75.5t33 -95.5t12 -117q0 -62 -16 -117.5t-46.5 -97.5t-74.5 -67t-100 -25q-52 0 -94.5 21t-72.5 57t-46.5 82.5
t-16.5 97.5q0 52 16.5 100t46 84.5t70 58t88.5 21.5q46 0 79 -17.5t55 -49.5q-17 56 -45 95.5t-61 66.5l-157 -84zM415 244q0 49 -10.5 88t-30 67t-47 43t-60.5 15q-28 0 -53 -10t-43.5 -32.5t-29 -59.5t-10.5 -91q0 -50 11 -90.5t30.5 -70t47 -45.5t59.5 -16q30 0 55 14.5
t43 40.5t28 63.5t10 83.5z" />
    <glyph glyph-name="yacute" unicode="&#xfd;" horiz-adv-x="490" 
d="M271 -5q-20 -53 -39.5 -90.5t-40.5 -61t-44 -34.5t-51 -11q-27 0 -43.5 13t-16.5 34q0 18 11.5 31t32.5 13q16 0 28 -4t24 -4q10 0 19.5 5t20 18.5t22.5 38t27 63.5l-178 446l-37 4v44h182v-44l-54 -4l128 -339l127 339l-54 4v44h148v-44l-37 -4l-175 -457v0zM241 659
q20 38 35.5 56.5t42.5 18.5q22 0 34 -15t12 -35q0 -19 -15.5 -33.5t-46.5 -34.5l-75 -50l-26 22z" />
    <glyph glyph-name="thorn" unicode="&#xfe;" horiz-adv-x="567" 
d="M75 640l-43 5v41l106 50q20 9 20 -12v-278q6 7 18 18.5t30 22t42.5 18t56.5 7.5q47 0 87.5 -16.5t70 -49t46.5 -79.5t17 -107q0 -61 -20.5 -111t-55 -86t-80 -55.5t-95.5 -19.5q-45 0 -72.5 11t-44.5 25v-166l64 -4v-44h-191v44l44 4v782zM295 458q-28 0 -53 -9.5
t-43.5 -25t-29.5 -35t-11 -39.5v-202q0 -43 28 -74t82 -31q32 0 62 15t52.5 42t36 65.5t13.5 85.5q0 100 -38.5 154t-98.5 54z" />
    <glyph glyph-name="Lslash" unicode="&#x141;" horiz-adv-x="519" 
d="M28 221l73 48v363l-49 4v46h186v-46l-49 -4v-304l211 140v-61l-211 -138v-215h120q30 0 51 4.5t37.5 15t30.5 28t30 42.5q4 6 8 10t12 4t12.5 -5.5t2.5 -19.5q-4 -30 -13.5 -67.5t-20.5 -65.5h-407v46l49 4v161l-73 -48v58z" />
    <glyph glyph-name="lslash" unicode="&#x142;" horiz-adv-x="249" 
d="M39 0v44l44 4v300l-75 -46v56l75 46v236l-43 5v41l110 52q16 8 16 -14v-268l81 50v-57l-81 -50v-351l44 -4v-44h-171z" />
    <glyph glyph-name="Scaron" unicode="&#x160;" horiz-adv-x="562" 
d="M280 44q81 0 122 33.5t41 95.5q0 51 -27.5 86t-86.5 54l-111 36q-33 11 -62.5 26.5t-51.5 37t-34.5 50t-12.5 65.5q0 36 14 66.5t39 52.5t59.5 34.5t76.5 12.5q39 0 69.5 -9t46.5 -21q13 16 22 25t15 9q5 0 11 -10t13 -26t13.5 -34t13 -36.5t10.5 -32.5q2 -11 -3.5 -18
t-14.5 -7q-8 0 -12 3t-10 11q-14 18 -30 34.5t-37 30t-48 21.5t-62 8q-20 0 -39 -5.5t-34 -17t-24 -28.5t-9 -40q0 -42 28 -69.5t87 -47.5l109 -37q83 -28 125.5 -76t42.5 -123q0 -47 -15.5 -86t-46.5 -66.5t-78 -43t-110 -15.5q-47 0 -84 13t-54 26q-11 -28 -19 -35.5
t-14 -7.5t-12 10q-5 10 -14 30.5t-18 45t-17 50t-12 45.5q-2 11 3 19.5t17 8.5q14 0 23 -17q13 -26 33.5 -49.5t46 -41.5t56.5 -29t66 -11zM293 765q-9 -9 -17 -16t-21 -7t-21 7t-17 16l-94 96l23 29l109 -51l109 51l23 -29l-94 -96v0z" />
    <glyph glyph-name="scaron" unicode="&#x161;" horiz-adv-x="436" 
d="M73 -7q-3 10 -8 31t-11 45t-11 46.5t-7 34.5q-2 10 3 16.5t13 6.5q13 0 18 -14q10 -25 25.5 -47.5t34.5 -39t41.5 -26.5t46.5 -10q56 0 85.5 24t29.5 65q0 38 -23 59.5t-66 35.5l-81 27q-25 8 -47 21t-38.5 30.5t-26 39.5t-9.5 49q0 54 41 89.5t113 35.5q26 0 46 -6.5
t31 -15.5l16 20q8 10 16 10q7 0 10 -8t7.5 -23t10 -32t10.5 -35t8 -31q2 -8 -3.5 -13.5t-14.5 -5.5q-7 0 -13 8q-8 10 -21 25t-30 28t-38 22.5t-46 9.5q-29 0 -51 -15t-22 -44q0 -32 22.5 -48.5t65.5 -31.5l80 -28q60 -21 91.5 -59.5t31.5 -94.5q0 -70 -46.5 -113.5
t-139.5 -43.5q-35 0 -62.5 9.5t-38.5 19.5l-15 -20q-9 -11 -17 -11q-9 0 -11 8zM231 598q-8 -10 -16.5 -16.5t-21.5 -6.5t-21.5 6.5t-16.5 16.5l-84 99l23 26l99 -54l99 54l23 -26l-84 -99v0z" />
    <glyph glyph-name="Zcaron" unicode="&#x17d;" horiz-adv-x="600" 
d="M569 148q0 -15 -4.5 -35.5t-11 -41.5t-15 -40t-16.5 -31h-458q-19 0 -23 13.5t6 28.5l384 590h-181q-31 0 -52.5 -4.5t-38 -14t-30 -23.5t-28.5 -33q-6 -7 -9.5 -10.5t-11.5 -3.5q-19 0 -16 25q1 11 6 27t11 32.5t13.5 31t13.5 23.5h410q19 0 23 -14t-6 -28l-386 -587
h233q30 0 51.5 6t38 18.5t30.5 31.5t30 46q5 8 9 11.5t12 3.5q16 0 16 -22zM349 765q-9 -9 -17 -16t-21 -7t-21 7t-17 16l-94 96l23 29l109 -51l109 51l23 -29l-94 -96v0z" />
    <glyph glyph-name="zcaron" unicode="&#x17e;" horiz-adv-x="462" 
d="M444 135q0 -12 -4.5 -30.5t-11 -38t-15 -37t-16.5 -29.5h-350q-19 0 -23.5 14t6.5 28l282 411h-87q-31 0 -52.5 -3t-37.5 -10t-29.5 -19.5t-29.5 -30.5q-6 -7 -9.5 -10.5t-11.5 -3.5q-9 0 -13.5 6.5t-2.5 18.5t6.5 25.5t10.5 27t12 25.5t12 21h313q19 0 23 -14t-6 -28
l-283 -408h130q30 0 51.5 4.5t38 15.5t30.5 28.5t30 43.5q5 8 9 11.5t12 3.5q16 0 16 -22zM271 598q-8 -10 -16.5 -16.5t-21.5 -6.5t-21.5 6.5t-16.5 16.5l-84 99l23 26l99 -54l99 54l23 -26l-84 -99v0z" />
    <glyph glyph-name="minus" unicode="&#x2212;" horiz-adv-x="574" 
d="M65 376h444v-50h-444v50z" />
    <glyph glyph-name="Dcroat" unicode="&#x110;" horiz-adv-x="697" 
d="M52 46l49 4v269h-71v54h71v259l-49 4v46h234q76 0 142 -22.5t115.5 -65.5t78 -107t28.5 -146q0 -83 -28.5 -147t-78 -107t-115.5 -65t-142 -22h-234v46zM286 50q58 0 107 18t84.5 54t55.5 90.5t20 128.5q0 73 -20 128t-55.5 91t-84.5 54t-107 18h-100v-259h219v-54h-219
v-269h100z" />
    <glyph glyph-name="Eng" unicode="&#x14a;" horiz-adv-x="704" 
d="M494 -121q-27 0 -47.5 8.5t-34.5 22t-21.5 30t-7.5 31.5q0 27 24 27q10 0 16 -5t11 -15q9 -17 22.5 -27.5t38.5 -10.5q28 0 39 18t11 42q0 19 -6 35t-16 32t-24 33.5t-30 40.5l-311 438v-529l49 -4v-46h-155v46l49 4v582l-49 4v46h138l360 -515v465l-49 4v46h155v-46
l-49 -4l2 -626q0 -60 -29 -94t-86 -33z" />
    <glyph glyph-name="IJ" unicode="&#x132;" horiz-adv-x="759" 
d="M52 636v46h183v-46l-49 -4v-582l49 -4v-46h-183v46l49 4v582zM663 204q0 -48 -14 -87.5t-40 -68.5t-63.5 -44.5t-85.5 -15.5q-44 0 -77.5 15t-56.5 39.5t-34.5 56.5t-11.5 67q0 53 25.5 85.5t63.5 32.5q24 0 37 -13t13 -35q0 -23 -11 -33.5t-23.5 -17t-23.5 -13.5
t-11 -22q0 -19 7 -37.5t20.5 -33t33.5 -23.5t46 -9q33 0 56 12.5t37.5 34t21 51t6.5 63.5v424l-54 4v46h188v-46l-49 -4v-428v0z" />
    <glyph glyph-name="dcroat" unicode="&#x111;" horiz-adv-x="569" 
d="M40 240q0 61 20.5 111t55 86t80 55.5t95.5 19.5q51 0 77 -13.5t40 -28.5v89h-158v49h158v39l-49 2v37l116 52q16 8 16 -14v-116h70v-49h-70v-508l44 -5v-46h-127v54q-6 -7 -18 -18.5t-30 -22t-43 -18t-56 -7.5q-47 0 -87.5 16.5t-70 49t-46.5 79.5t-17 107zM271 42
q28 0 52.5 9.5t43.5 25t30 35t11 39.5v202q0 43 -28 74t-82 31q-32 0 -62 -15t-52.5 -42t-36 -65.5t-13.5 -85.5q0 -100 38.5 -154t98.5 -54z" />
    <glyph glyph-name="eng" unicode="&#x14b;" horiz-adv-x="529" 
d="M39 0v44l44 4v365l-41 5v41l104 50q20 9 20 -12v-52q4 6 13.5 17.5t26 22.5t40.5 19t57 8q39 0 70.5 -12t53 -33.5t33 -50.5t11.5 -63v-393q0 -52 -29 -84.5t-86 -31.5q-27 0 -47.5 8.5t-34.5 22t-21.5 30t-7.5 31.5q0 27 24 27q10 0 15.5 -5t11.5 -15q9 -16 21.5 -26
t29.5 -10q20 0 30.5 14.5t10.5 40.5v380q0 51 -30.5 84t-80.5 33q-26 0 -47 -8.5t-35 -22t-21.5 -31t-7.5 -36.5v-313l44 -4v-44h-171z" />
    <glyph glyph-name="ij" unicode="&#x133;" horiz-adv-x="485" 
d="M121 587q-26 0 -44 18.5t-18 43.5t17.5 43.5t44.5 18.5q26 0 44 -18.5t18 -43.5t-18 -43.5t-44 -18.5zM39 0v44l44 4v365l-41 5v41l108 52q16 8 16 -14v-449l44 -4v-44h-171zM365 587q-26 0 -44 18.5t-18 43.5t17.5 43.5t44.5 18.5q26 0 44 -18.5t18 -43.5t-18 -43.5
t-44 -18.5zM410 -40q0 -52 -29 -84.5t-86 -31.5q-27 0 -47.5 8.5t-34.5 22t-21.5 30t-7.5 31.5q0 27 24 27q10 0 15.5 -5t11.5 -15q9 -16 21.5 -26t29.5 -10q20 0 30.5 14.5t10.5 40.5v451l-41 5v41l108 52q16 8 16 -14v-537z" />
    <glyph glyph-name="Abreve" unicode="&#x102;" horiz-adv-x="678" 
d="M28 46l43 4l234 604q7 18 12.5 25.5t17.5 7.5q11 0 16 -7.5t13 -25.5l243 -604l43 -4v-46h-183v46l47 4l-47 119h-290l-47 -119l47 -4v-46h-149v46zM446 223l-124 317l-124 -317h248zM334 824q36 0 54.5 17t24.5 33l39 -9q0 -19 -7 -40t-21 -38.5t-36.5 -29t-53.5 -11.5
t-53.5 11.5t-36.5 29t-21 38.5t-7 40l39 9q6 -16 24.5 -33t54.5 -17z" />
    <glyph glyph-name="Amacron" unicode="&#x100;" horiz-adv-x="678" 
d="M28 46l43 4l234 604q7 18 12.5 25.5t17.5 7.5q11 0 16 -7.5t13 -25.5l243 -604l43 -4v-46h-183v46l47 4l-47 119h-290l-47 -119l47 -4v-46h-149v46zM446 223l-124 317l-124 -317h248zM208 823h252v-69h-252v69z" />
    <glyph glyph-name="Aogonek" unicode="&#x104;" horiz-adv-x="678" 
d="M516 -198q-43 0 -66.5 24.5t-23.5 58.5q0 40 29 72.5t69 65.5l-57 146h-290l-47 -119l47 -4v-46h-149v46l43 4l234 604q7 18 12.5 25.5t17.5 7.5q11 0 16 -7.5t13 -25.5l243 -604l43 -4v-46h-84q-34 -32 -51 -54t-17 -42q0 -16 9.5 -26.5t28.5 -10.5q18 0 32 9.5t23 18.5
l29 -26q-5 -8 -12.5 -19.5t-20 -22t-30 -18t-41.5 -7.5zM446 223l-124 317l-124 -317h248z" />
    <glyph glyph-name="Cacute" unicode="&#x106;" horiz-adv-x="645" 
d="M595 539q2 -11 -3 -18t-14 -7q-14 0 -22 14q-12 19 -29.5 39t-41 36.5t-52.5 26.5t-65 10q-45 0 -85 -20t-70 -57t-47 -88t-17 -112q0 -72 17.5 -129.5t49.5 -97.5t77 -61.5t101 -21.5q35 0 64.5 8.5t53 20.5t41 25t27.5 22l31 -38q-9 -11 -28.5 -28.5t-49.5 -34
t-69.5 -28.5t-88.5 -12q-72 0 -131.5 24.5t-102 69.5t-66 108.5t-23.5 141.5q0 80 24 146.5t66.5 114.5t101.5 74.5t128 26.5q39 0 69.5 -9t46.5 -21q14 17 22.5 25.5t14.5 8.5q5 0 11 -10t14 -28t17 -39t16.5 -42.5t11.5 -39.5zM349 825q29 26 46.5 37.5t39.5 11.5
q23 0 36 -14t13 -35q0 -26 -21 -40.5t-69 -26.5l-96 -24l-18 29z" />
    <glyph glyph-name="Ccaron" unicode="&#x10c;" horiz-adv-x="645" 
d="M595 539q2 -11 -3 -18t-14 -7q-14 0 -22 14q-12 19 -29.5 39t-41 36.5t-52.5 26.5t-65 10q-45 0 -85 -20t-70 -57t-47 -88t-17 -112q0 -72 17.5 -129.5t49.5 -97.5t77 -61.5t101 -21.5q35 0 64.5 8.5t53 20.5t41 25t27.5 22l31 -38q-9 -11 -28.5 -28.5t-49.5 -34
t-69.5 -28.5t-88.5 -12q-72 0 -131.5 24.5t-102 69.5t-66 108.5t-23.5 141.5q0 80 24 146.5t66.5 114.5t101.5 74.5t128 26.5q39 0 69.5 -9t46.5 -21q14 17 22.5 25.5t14.5 8.5q5 0 11 -10t14 -28t17 -39t16.5 -42.5t11.5 -39.5zM398 765q-9 -9 -17 -16t-21 -7t-21 7t-17 16
l-94 96l23 29l109 -51l109 51l23 -29l-94 -96v0z" />
    <glyph glyph-name="Ccircumflex" unicode="&#x108;" horiz-adv-x="645" 
d="M595 539q2 -11 -3 -18t-14 -7q-14 0 -22 14q-12 19 -29.5 39t-41 36.5t-52.5 26.5t-65 10q-45 0 -85 -20t-70 -57t-47 -88t-17 -112q0 -72 17.5 -129.5t49.5 -97.5t77 -61.5t101 -21.5q35 0 64.5 8.5t53 20.5t41 25t27.5 22l31 -38q-9 -11 -28.5 -28.5t-49.5 -34
t-69.5 -28.5t-88.5 -12q-72 0 -131.5 24.5t-102 69.5t-66 108.5t-23.5 141.5q0 80 24 146.5t66.5 114.5t101.5 74.5t128 26.5q39 0 69.5 -9t46.5 -21q14 17 22.5 25.5t14.5 8.5q5 0 11 -10t14 -28t17 -39t16.5 -42.5t11.5 -39.5zM469 740l-109 51l-109 -51l-23 29l94 96
q9 9 17 16t21 7t21 -7t17 -16l94 -96z" />
    <glyph glyph-name="Cdotaccent" unicode="&#x10a;" horiz-adv-x="645" 
d="M595 539q2 -11 -3 -18t-14 -7q-14 0 -22 14q-12 19 -29.5 39t-41 36.5t-52.5 26.5t-65 10q-45 0 -85 -20t-70 -57t-47 -88t-17 -112q0 -72 17.5 -129.5t49.5 -97.5t77 -61.5t101 -21.5q35 0 64.5 8.5t53 20.5t41 25t27.5 22l31 -38q-9 -11 -28.5 -28.5t-49.5 -34
t-69.5 -28.5t-88.5 -12q-72 0 -131.5 24.5t-102 69.5t-66 108.5t-23.5 141.5q0 80 24 146.5t66.5 114.5t101.5 74.5t128 26.5q39 0 69.5 -9t46.5 -21q14 17 22.5 25.5t14.5 8.5q5 0 11 -10t14 -28t17 -39t16.5 -42.5t11.5 -39.5zM360 746q-26 0 -44 18.5t-18 43.5t17.5 43.5
t44.5 18.5q26 0 44 -18.5t18 -43.5t-18 -43.5t-44 -18.5z" />
    <glyph glyph-name="Dcaron" unicode="&#x10e;" horiz-adv-x="697" 
d="M52 46l49 4v582l-49 4v46h234q76 0 142 -22.5t115.5 -65.5t78 -107t28.5 -146q0 -83 -28.5 -147t-78 -107t-115.5 -65t-142 -22h-234v46zM286 50q58 0 107 18t84.5 54t55.5 90.5t20 128.5q0 73 -20 128t-55.5 91t-84.5 54t-107 18h-100v-582h100zM330 765q-9 -9 -17 -16
t-21 -7t-21 7t-17 16l-94 96l23 29l109 -51l109 51l23 -29l-94 -96v0z" />
    <glyph glyph-name="Ebreve" unicode="&#x114;" horiz-adv-x="593" 
d="M52 0v46l49 4v582l-49 4v46h444q26 -61 35 -109q2 -12 -2.5 -18.5t-13.5 -6.5q-8 0 -11.5 3.5t-9.5 10.5q-16 18 -29.5 31t-30 21t-37.5 11.5t-51 3.5h-160v-256h221l2 45h40l23 -143h-40l-19 44h-227v-266h192q30 0 51 4.5t37.5 14.5t30.5 25.5t30 36.5q5 6 8.5 10
t11.5 4t12.5 -5.5t2.5 -19.5q-2 -11 -5.5 -26.5t-8.5 -32l-10 -33t-10 -31.5h-476zM304 824q36 0 54.5 17t24.5 33l39 -9q0 -19 -7 -40t-21 -38.5t-36.5 -29t-53.5 -11.5t-53.5 11.5t-36.5 29t-21 38.5t-7 40l39 9q6 -16 24.5 -33t54.5 -17z" />
    <glyph glyph-name="Ecaron" unicode="&#x11a;" horiz-adv-x="593" 
d="M52 0v46l49 4v582l-49 4v46h444q26 -61 35 -109q2 -12 -2.5 -18.5t-13.5 -6.5q-8 0 -11.5 3.5t-9.5 10.5q-16 18 -29.5 31t-30 21t-37.5 11.5t-51 3.5h-160v-256h221l2 45h40l23 -143h-40l-19 44h-227v-266h192q30 0 51 4.5t37.5 14.5t30.5 25.5t30 36.5q5 6 8.5 10
t11.5 4t12.5 -5.5t2.5 -19.5q-2 -11 -5.5 -26.5t-8.5 -32l-10 -33t-10 -31.5h-476zM342 765q-9 -9 -17 -16t-21 -7t-21 7t-17 16l-94 96l23 29l109 -51l109 51l23 -29l-94 -96v0z" />
    <glyph glyph-name="Edotaccent" unicode="&#x116;" horiz-adv-x="593" 
d="M52 0v46l49 4v582l-49 4v46h444q26 -61 35 -109q2 -12 -2.5 -18.5t-13.5 -6.5q-8 0 -11.5 3.5t-9.5 10.5q-16 18 -29.5 31t-30 21t-37.5 11.5t-51 3.5h-160v-256h221l2 45h40l23 -143h-40l-19 44h-227v-266h192q30 0 51 4.5t37.5 14.5t30.5 25.5t30 36.5q5 6 8.5 10
t11.5 4t12.5 -5.5t2.5 -19.5q-2 -11 -5.5 -26.5t-8.5 -32l-10 -33t-10 -31.5h-476zM304 746q-26 0 -44 18.5t-18 43.5t17.5 43.5t44.5 18.5q26 0 44 -18.5t18 -43.5t-18 -43.5t-44 -18.5z" />
    <glyph glyph-name="Emacron" unicode="&#x112;" horiz-adv-x="593" 
d="M52 0v46l49 4v582l-49 4v46h444q26 -61 35 -109q2 -12 -2.5 -18.5t-13.5 -6.5q-8 0 -11.5 3.5t-9.5 10.5q-16 18 -29.5 31t-30 21t-37.5 11.5t-51 3.5h-160v-256h221l2 45h40l23 -143h-40l-19 44h-227v-266h192q30 0 51 4.5t37.5 14.5t30.5 25.5t30 36.5q5 6 8.5 10
t11.5 4t12.5 -5.5t2.5 -19.5q-2 -11 -5.5 -26.5t-8.5 -32l-10 -33t-10 -31.5h-476zM178 823h252v-69h-252v69z" />
    <glyph glyph-name="Eogonek" unicode="&#x118;" horiz-adv-x="593" 
d="M52 0v46l49 4v582l-49 4v46h444q26 -61 35 -109q2 -12 -2.5 -18.5t-13.5 -6.5q-8 0 -11.5 3.5t-9.5 10.5q-16 18 -29.5 31t-30 21t-37.5 11.5t-51 3.5h-160v-256h221l2 45h40l23 -143h-40l-19 44h-227v-266h192q30 0 51 4.5t37.5 14.5t30.5 25.5t30 36.5q5 6 8.5 10
t11.5 4t12.5 -5.5t2.5 -19.5q-2 -11 -5.5 -26.5t-8.5 -32l-10 -33t-10 -31.5h-476zM467 0q-34 -29 -55 -51t-21 -45q0 -16 9.5 -26.5t28.5 -10.5q18 0 32 9.5t23 18.5l29 -26q-5 -8 -12.5 -19.5t-20 -22t-30 -18t-41.5 -7.5q-43 0 -66.5 24.5t-23.5 58.5q0 21 8.5 38.5
t22 31.5t30 25t32.5 20h55z" />
    <glyph glyph-name="Gbreve" unicode="&#x11e;" horiz-adv-x="694" 
d="M599 549q2 -11 -3 -18t-14 -7q-14 0 -22 14q-13 19 -29.5 37.5t-39 32.5t-51 23t-65.5 9q-50 0 -92 -20t-72.5 -57t-47.5 -89.5t-17 -116.5q0 -77 18.5 -135.5t51.5 -98.5t78.5 -60.5t100.5 -20.5q44 0 75 5.5t54 13.5v233l-54 5v46h182v-46l-44 -4v-285
q-24 0 -43.5 -3.5t-43.5 -7.5t-56 -7.5t-80 -3.5q-77 0 -139 26.5t-105.5 73.5t-67 111t-23.5 139q0 79 26 145t71 112.5t105 72.5t128 26q38 0 68.5 -9t46.5 -21q14 17 22.5 25.5t14.5 8.5q5 0 11 -10t13.5 -26.5t16 -35.5t15.5 -39t11 -38zM362 824q36 0 54.5 17t24.5 33
l39 -9q0 -19 -7 -40t-21 -38.5t-36.5 -29t-53.5 -11.5t-53.5 11.5t-36.5 29t-21 38.5t-7 40l39 9q6 -16 24.5 -33t54.5 -17z" />
    <glyph glyph-name="Gcircumflex" unicode="&#x11c;" horiz-adv-x="694" 
d="M599 549q2 -11 -3 -18t-14 -7q-14 0 -22 14q-13 19 -29.5 37.5t-39 32.5t-51 23t-65.5 9q-50 0 -92 -20t-72.5 -57t-47.5 -89.5t-17 -116.5q0 -77 18.5 -135.5t51.5 -98.5t78.5 -60.5t100.5 -20.5q44 0 75 5.5t54 13.5v233l-54 5v46h182v-46l-44 -4v-285
q-24 0 -43.5 -3.5t-43.5 -7.5t-56 -7.5t-80 -3.5q-77 0 -139 26.5t-105.5 73.5t-67 111t-23.5 139q0 79 26 145t71 112.5t105 72.5t128 26q38 0 68.5 -9t46.5 -21q14 17 22.5 25.5t14.5 8.5q5 0 11 -10t13.5 -26.5t16 -35.5t15.5 -39t11 -38zM471 740l-109 51l-109 -51
l-23 29l94 96q9 9 17 16t21 7t21 -7t17 -16l94 -96z" />
    <glyph glyph-name="Gcommaaccent" unicode="&#x122;" horiz-adv-x="694" 
d="M599 549q2 -11 -3 -18t-14 -7q-14 0 -22 14q-13 19 -29.5 37.5t-39 32.5t-51 23t-65.5 9q-50 0 -92 -20t-72.5 -57t-47.5 -89.5t-17 -116.5q0 -77 18.5 -135.5t51.5 -98.5t78.5 -60.5t100.5 -20.5q44 0 75 5.5t54 13.5v233l-54 5v46h182v-46l-44 -4v-285
q-24 0 -43.5 -3.5t-43.5 -7.5t-56 -7.5t-80 -3.5q-77 0 -139 26.5t-105.5 73.5t-67 111t-23.5 139q0 79 26 145t71 112.5t105 72.5t128 26q38 0 68.5 -9t46.5 -21q14 17 22.5 25.5t14.5 8.5q5 0 11 -10t13.5 -26.5t16 -35.5t15.5 -39t11 -38zM346 -240q-11 0 -11 11
q0 6 2.5 10t7 10t10.5 14.5t12 22.5h-2q-27 0 -40.5 15t-13.5 36q0 22 16.5 37.5t39.5 15.5q26 0 42.5 -18.5t16.5 -52.5q0 -20 -7.5 -38t-19 -32t-26 -22.5t-27.5 -8.5z" />
    <glyph glyph-name="Gdotaccent" unicode="&#x120;" horiz-adv-x="694" 
d="M599 549q2 -11 -3 -18t-14 -7q-14 0 -22 14q-13 19 -29.5 37.5t-39 32.5t-51 23t-65.5 9q-50 0 -92 -20t-72.5 -57t-47.5 -89.5t-17 -116.5q0 -77 18.5 -135.5t51.5 -98.5t78.5 -60.5t100.5 -20.5q44 0 75 5.5t54 13.5v233l-54 5v46h182v-46l-44 -4v-285
q-24 0 -43.5 -3.5t-43.5 -7.5t-56 -7.5t-80 -3.5q-77 0 -139 26.5t-105.5 73.5t-67 111t-23.5 139q0 79 26 145t71 112.5t105 72.5t128 26q38 0 68.5 -9t46.5 -21q14 17 22.5 25.5t14.5 8.5q5 0 11 -10t13.5 -26.5t16 -35.5t15.5 -39t11 -38zM362 746q-26 0 -44 18.5
t-18 43.5t17.5 43.5t44.5 18.5q26 0 44 -18.5t18 -43.5t-18 -43.5t-44 -18.5z" />
    <glyph glyph-name="Hbar" unicode="&#x126;" horiz-adv-x="733" 
d="M28 537h71v95l-49 4v46h183v-46l-49 -4v-95h365v95l-49 4v46h183v-46l-49 -4v-95h71v-52h-71v-435l49 -4v-46h-183v46l49 4v269h-365v-269l49 -4v-46h-183v46l49 4v435h-71v52zM549 373v112h-365v-112h365z" />
    <glyph glyph-name="Hcircumflex" unicode="&#x124;" horiz-adv-x="733" 
d="M50 636v46h183v-46l-49 -4v-259h365v259l-49 4v46h183v-46l-49 -4v-582l49 -4v-46h-183v46l49 4v269h-365v-269l49 -4v-46h-183v46l49 4v582zM475 740l-109 51l-109 -51l-23 29l94 96q9 9 17 16t21 7t21 -7t17 -16l94 -96z" />
    <glyph glyph-name="Ibreve" unicode="&#x12c;" horiz-adv-x="287" 
d="M52 636v46h183v-46l-49 -4v-582l49 -4v-46h-183v46l49 4v582zM143 824q36 0 54.5 17t24.5 33l39 -9q0 -19 -7 -40t-21 -38.5t-36.5 -29t-53.5 -11.5t-53.5 11.5t-36.5 29t-21 38.5t-7 40l39 9q6 -16 24.5 -33t54.5 -17z" />
    <glyph glyph-name="Idotaccent" unicode="&#x130;" horiz-adv-x="287" 
d="M52 636v46h183v-46l-49 -4v-582l49 -4v-46h-183v46l49 4v582zM143 746q-26 0 -44 18.5t-18 43.5t17.5 43.5t44.5 18.5q26 0 44 -18.5t18 -43.5t-18 -43.5t-44 -18.5z" />
    <glyph glyph-name="Imacron" unicode="&#x12a;" horiz-adv-x="287" 
d="M52 636v46h183v-46l-49 -4v-582l49 -4v-46h-183v46l49 4v582zM17 823h252v-69h-252v69z" />
    <glyph glyph-name="Iogonek" unicode="&#x12e;" horiz-adv-x="287" 
d="M52 636v46h183v-46l-49 -4v-582l49 -4v-46h-49q-31 -28 -50 -51.5t-19 -44.5q0 -16 9.5 -26.5t28.5 -10.5q18 0 32 9.5t23 18.5l29 -26q-5 -8 -12.5 -19.5t-20 -22t-30 -18t-41.5 -7.5q-43 0 -66.5 24.5t-23.5 58.5q0 38 24 66.5t53 48.5h-70v46l49 4v582z" />
    <glyph glyph-name="Itilde" unicode="&#x128;" horiz-adv-x="287" 
d="M52 636v46h183v-46l-49 -4v-582l49 -4v-46h-183v46l49 4v582zM92 782q-14 0 -26 -10.5t-19 -26.5l-37 13q5 45 26.5 72t52.5 27q17 0 31.5 -5t31.5 -12q14 -6 23.5 -9.5t19.5 -3.5q14 0 25.5 10t19.5 27l37 -13q-5 -47 -26.5 -73t-53.5 -26q-17 0 -30.5 4t-30.5 12
q-15 7 -24 10.5t-20 3.5z" />
    <glyph glyph-name="Jcircumflex" unicode="&#x134;" horiz-adv-x="509" 
d="M413 204q0 -48 -14 -87.5t-40 -68.5t-63.5 -44.5t-85.5 -15.5q-44 0 -77.5 15t-56.5 39.5t-34.5 56.5t-11.5 67q0 53 25.5 85.5t63.5 32.5q24 0 37 -13t13 -35q0 -23 -11 -33.5t-23.5 -17t-23.5 -13.5t-11 -22q0 -19 7 -37.5t20.5 -33t33.5 -23.5t46 -9q33 0 56 12.5
t37.5 34t21 51t6.5 63.5v424l-54 4v46h188v-46l-49 -4v-428v0zM478 740l-109 51l-109 -51l-23 29l94 96q9 9 17 16t21 7t21 -7t17 -16l94 -96z" />
    <glyph glyph-name="Kcommaaccent" unicode="&#x136;" horiz-adv-x="661" 
d="M313 395l-127 -125v-220l49 -4v-46h-183v46l49 4v582l-49 4v46h183v-46l-49 -4v-285l287 287l-47 4v44h175v-44l-46 -4l-180 -178l222 -408l44 -4v-44h-179v44l43 4zM319 -240q-11 0 -11 11q0 6 2.5 10t7 10t10.5 14.5t12 22.5h-2q-27 0 -40.5 15t-13.5 36
q0 22 16.5 37.5t39.5 15.5q26 0 42.5 -18.5t16.5 -52.5q0 -20 -7.5 -38t-19 -32t-26 -22.5t-27.5 -8.5z" />
    <glyph glyph-name="Lacute" unicode="&#x139;" horiz-adv-x="519" 
d="M238 636l-49 -4v-578h120q30 0 51 4.5t37.5 15t30.5 28t30 42.5q4 6 8 10t12 4t12.5 -5.5t2.5 -19.5q-4 -30 -13.5 -67.5t-20.5 -65.5h-407v46l49 4v582l-49 4v46h186v-46zM136 825q29 26 46.5 37.5t39.5 11.5q23 0 36 -14t13 -35q0 -26 -21 -40.5t-69 -26.5l-96 -24
l-18 29z" />
    <glyph glyph-name="Lcaron" unicode="&#x13d;" horiz-adv-x="519" 
d="M238 636l-49 -4v-578h120q30 0 51 4.5t37.5 15t30.5 28t30 42.5q4 6 8 10t12 4t12.5 -5.5t2.5 -19.5q-4 -30 -13.5 -67.5t-20.5 -65.5h-407v46l49 4v582l-49 4v46h186v-46zM299 626q4 38 14 60.5t39 22.5q18 0 28.5 -11t10.5 -30q0 -14 -6.5 -30.5t-19.5 -39.5l-44 -78
l-32 9z" />
    <glyph glyph-name="Lcommaaccent" unicode="&#x13b;" horiz-adv-x="519" 
d="M238 636l-49 -4v-578h120q30 0 51 4.5t37.5 15t30.5 28t30 42.5q4 6 8 10t12 4t12.5 -5.5t2.5 -19.5q-4 -30 -13.5 -67.5t-20.5 -65.5h-407v46l49 4v582l-49 4v46h186v-46zM248 -240q-11 0 -11 11q0 6 2.5 10t7 10t10.5 14.5t12 22.5h-2q-27 0 -40.5 15t-13.5 36
q0 22 16.5 37.5t39.5 15.5q26 0 42.5 -18.5t16.5 -52.5q0 -20 -7.5 -38t-19 -32t-26 -22.5t-27.5 -8.5z" />
    <glyph glyph-name="Ldot" unicode="&#x13f;" horiz-adv-x="519" 
d="M238 636l-49 -4v-578h120q30 0 51 4.5t37.5 15t30.5 28t30 42.5q4 6 8 10t12 4t12.5 -5.5t2.5 -19.5q-4 -30 -13.5 -67.5t-20.5 -65.5h-407v46l49 4v582l-49 4v46h186v-46zM431 297q-29 0 -47.5 19t-18.5 47t18 47t48 19q29 0 47.5 -19t18.5 -47t-18.5 -47t-47.5 -19z
" />
    <glyph glyph-name="Nacute" unicode="&#x143;" horiz-adv-x="704" 
d="M501 636v46h155v-46l-49 -4v-636q0 -6 -4 -10.5t-12 -4.5q-11 0 -17 9l-416 589v-529l49 -4v-46h-155v46l49 4v582l-49 4v46h138l360 -518v468zM352 825q29 26 46.5 37.5t39.5 11.5q23 0 36 -14t13 -35q0 -26 -21 -40.5t-69 -26.5l-96 -24l-18 29z" />
    <glyph glyph-name="Ncaron" unicode="&#x147;" horiz-adv-x="704" 
d="M501 636v46h155v-46l-49 -4v-636q0 -6 -4 -10.5t-12 -4.5q-11 0 -17 9l-416 589v-529l49 -4v-46h-155v46l49 4v582l-49 4v46h138l360 -518v468zM401 765q-9 -9 -17 -16t-21 -7t-21 7t-17 16l-94 96l23 29l109 -51l109 51l23 -29l-94 -96v0z" />
    <glyph glyph-name="Ncommaaccent" unicode="&#x145;" horiz-adv-x="704" 
d="M501 636v46h155v-46l-49 -4v-636q0 -6 -4 -10.5t-12 -4.5q-11 0 -17 9l-416 589v-529l49 -4v-46h-155v46l49 4v582l-49 4v46h138l360 -518v468zM350 -240q-11 0 -11 11q0 6 2.5 10t7 10t10.5 14.5t12 22.5h-2q-27 0 -40.5 15t-13.5 36q0 22 16.5 37.5t39.5 15.5
q26 0 42.5 -18.5t16.5 -52.5q0 -20 -7.5 -38t-19 -32t-26 -22.5t-27.5 -8.5z" />
    <glyph glyph-name="Obreve" unicode="&#x14e;" horiz-adv-x="730" 
d="M51 341q0 79 26 144t69.5 111.5t100.5 72t119 25.5q66 0 123.5 -25.5t99.5 -72t66 -111.5t24 -144q0 -80 -24 -145t-66 -111t-99.5 -71.5t-123.5 -25.5q-62 0 -119 25t-100.5 71.5t-69.5 111.5t-26 145zM582 341q0 70 -15.5 125.5t-44 94t-68 59t-88.5 20.5
q-47 0 -86.5 -20.5t-69 -59t-46 -94t-16.5 -125.5t16.5 -125.5t46 -94t69 -59t86.5 -20.5q49 0 88.5 20.5t68 59t44 94t15.5 125.5zM365 824q36 0 54.5 17t24.5 33l39 -9q0 -19 -7 -40t-21 -38.5t-36.5 -29t-53.5 -11.5t-53.5 11.5t-36.5 29t-21 38.5t-7 40l39 9
q6 -16 24.5 -33t54.5 -17z" />
    <glyph glyph-name="Ohungarumlaut" unicode="&#x150;" horiz-adv-x="730" 
d="M51 341q0 79 26 144t69.5 111.5t100.5 72t119 25.5q66 0 123.5 -25.5t99.5 -72t66 -111.5t24 -144q0 -80 -24 -145t-66 -111t-99.5 -71.5t-123.5 -25.5q-62 0 -119 25t-100.5 71.5t-69.5 111.5t-26 145zM582 341q0 70 -15.5 125.5t-44 94t-68 59t-88.5 20.5
q-47 0 -86.5 -20.5t-69 -59t-46 -94t-16.5 -125.5t16.5 -125.5t46 -94t69 -59t86.5 -20.5q49 0 88.5 20.5t68 59t44 94t15.5 125.5zM288 794q13 19 22.5 33t18 22.5t17 12.5t19.5 4q19 0 31 -11t12 -29t-12 -32.5t-46 -32.5l-74 -39l-23 21zM451 794q13 19 22.5 33t18 22.5
t17 12.5t19.5 4q19 0 31 -11t12 -29t-12 -32.5t-46 -32.5l-74 -39l-23 21z" />
    <glyph glyph-name="Omacron" unicode="&#x14c;" horiz-adv-x="730" 
d="M51 341q0 79 26 144t69.5 111.5t100.5 72t119 25.5q66 0 123.5 -25.5t99.5 -72t66 -111.5t24 -144q0 -80 -24 -145t-66 -111t-99.5 -71.5t-123.5 -25.5q-62 0 -119 25t-100.5 71.5t-69.5 111.5t-26 145zM582 341q0 70 -15.5 125.5t-44 94t-68 59t-88.5 20.5
q-47 0 -86.5 -20.5t-69 -59t-46 -94t-16.5 -125.5t16.5 -125.5t46 -94t69 -59t86.5 -20.5q49 0 88.5 20.5t68 59t44 94t15.5 125.5zM239 823h252v-69h-252v69z" />
    <glyph glyph-name="Racute" unicode="&#x154;" horiz-adv-x="623" 
d="M245 46v-46h-193v46l49 4v582l-49 4v46h243q59 0 108 -12.5t84 -37.5t54.5 -61.5t19.5 -84.5q0 -70 -40.5 -119.5t-109.5 -72.5l150 -246l44 -4v-44h-181v44l43 4l-138 230q-8 -1 -16.5 -1h-16.5h-110v-227zM186 328h102q92 0 139 37t47 115q0 152 -189 152h-99v-304z
M289 825q29 26 46.5 37.5t39.5 11.5q23 0 36 -14t13 -35q0 -26 -21 -40.5t-69 -26.5l-96 -24l-18 29z" />
    <glyph glyph-name="Rcaron" unicode="&#x158;" horiz-adv-x="623" 
d="M245 46v-46h-193v46l49 4v582l-49 4v46h243q59 0 108 -12.5t84 -37.5t54.5 -61.5t19.5 -84.5q0 -70 -40.5 -119.5t-109.5 -72.5l150 -246l44 -4v-44h-181v44l43 4l-138 230q-8 -1 -16.5 -1h-16.5h-110v-227zM186 328h102q92 0 139 37t47 115q0 152 -189 152h-99v-304z
M338 765q-9 -9 -17 -16t-21 -7t-21 7t-17 16l-94 96l23 29l109 -51l109 51l23 -29l-94 -96v0z" />
    <glyph glyph-name="Rcommaaccent" unicode="&#x156;" horiz-adv-x="623" 
d="M245 46v-46h-193v46l49 4v582l-49 4v46h243q59 0 108 -12.5t84 -37.5t54.5 -61.5t19.5 -84.5q0 -70 -40.5 -119.5t-109.5 -72.5l150 -246l44 -4v-44h-181v44l43 4l-138 230q-8 -1 -16.5 -1h-16.5h-110v-227zM186 328h102q92 0 139 37t47 115q0 152 -189 152h-99v-304z
M304 -240q-11 0 -11 11q0 6 2.5 10t7 10t10.5 14.5t12 22.5h-2q-27 0 -40.5 15t-13.5 36q0 22 16.5 37.5t39.5 15.5q26 0 42.5 -18.5t16.5 -52.5q0 -20 -7.5 -38t-19 -32t-26 -22.5t-27.5 -8.5z" />
    <glyph glyph-name="Sacute" unicode="&#x15a;" horiz-adv-x="562" 
d="M280 44q81 0 122 33.5t41 95.5q0 51 -27.5 86t-86.5 54l-111 36q-33 11 -62.5 26.5t-51.5 37t-34.5 50t-12.5 65.5q0 36 14 66.5t39 52.5t59.5 34.5t76.5 12.5q39 0 69.5 -9t46.5 -21q13 16 22 25t15 9q5 0 11 -10t13 -26t13.5 -34t13 -36.5t10.5 -32.5q2 -11 -3.5 -18
t-14.5 -7q-8 0 -12 3t-10 11q-14 18 -30 34.5t-37 30t-48 21.5t-62 8q-20 0 -39 -5.5t-34 -17t-24 -28.5t-9 -40q0 -42 28 -69.5t87 -47.5l109 -37q83 -28 125.5 -76t42.5 -123q0 -47 -15.5 -86t-46.5 -66.5t-78 -43t-110 -15.5q-47 0 -84 13t-54 26q-11 -28 -19 -35.5
t-14 -7.5t-12 10q-5 10 -14 30.5t-18 45t-17 50t-12 45.5q-2 11 3 19.5t17 8.5q14 0 23 -17q13 -26 33.5 -49.5t46 -41.5t56.5 -29t66 -11zM244 825q29 26 46.5 37.5t39.5 11.5q23 0 36 -14t13 -35q0 -26 -21 -40.5t-69 -26.5l-96 -24l-18 29z" />
    <glyph glyph-name="Scedilla" unicode="&#x15e;" horiz-adv-x="562" 
d="M280 44q81 0 122 33.5t41 95.5q0 51 -27.5 86t-86.5 54l-111 36q-33 11 -62.5 26.5t-51.5 37t-34.5 50t-12.5 65.5q0 36 14 66.5t39 52.5t59.5 34.5t76.5 12.5q39 0 69.5 -9t46.5 -21q13 16 22 25t15 9q5 0 11 -10t13 -26t13.5 -34t13 -36.5t10.5 -32.5q2 -11 -3.5 -18
t-14.5 -7q-8 0 -12 3t-10 11q-14 18 -30 34.5t-37 30t-48 21.5t-62 8q-20 0 -39 -5.5t-34 -17t-24 -28.5t-9 -40q0 -42 28 -69.5t87 -47.5l109 -37q83 -28 125.5 -76t42.5 -123q0 -47 -15.5 -86t-46.5 -66.5t-78 -43t-110 -15.5q-47 0 -84 13t-54 26q-11 -28 -19 -35.5
t-14 -7.5t-12 10q-5 10 -14 30.5t-18 45t-17 50t-12 45.5q-2 11 3 19.5t17 8.5q14 0 23 -17q13 -26 33.5 -49.5t46 -41.5t56.5 -29t66 -11zM278 0l-31 -62q7 2 14.5 3.5t18.5 1.5q37 0 60.5 -19.5t23.5 -61.5q0 -40 -29.5 -64t-81.5 -24q-38 0 -64.5 12.5t-39.5 24.5l26 43
q12 -11 31.5 -21.5t44.5 -10.5q21 0 32.5 11t11.5 29q0 19 -11 29t-31 10q-15 0 -25 -4t-21 -4q-14 0 -19 10t2 24l35 73h53z" />
    <glyph glyph-name="Scircumflex" unicode="&#x15c;" horiz-adv-x="562" 
d="M280 44q81 0 122 33.5t41 95.5q0 51 -27.5 86t-86.5 54l-111 36q-33 11 -62.5 26.5t-51.5 37t-34.5 50t-12.5 65.5q0 36 14 66.5t39 52.5t59.5 34.5t76.5 12.5q39 0 69.5 -9t46.5 -21q13 16 22 25t15 9q5 0 11 -10t13 -26t13.5 -34t13 -36.5t10.5 -32.5q2 -11 -3.5 -18
t-14.5 -7q-8 0 -12 3t-10 11q-14 18 -30 34.5t-37 30t-48 21.5t-62 8q-20 0 -39 -5.5t-34 -17t-24 -28.5t-9 -40q0 -42 28 -69.5t87 -47.5l109 -37q83 -28 125.5 -76t42.5 -123q0 -47 -15.5 -86t-46.5 -66.5t-78 -43t-110 -15.5q-47 0 -84 13t-54 26q-11 -28 -19 -35.5
t-14 -7.5t-12 10q-5 10 -14 30.5t-18 45t-17 50t-12 45.5q-2 11 3 19.5t17 8.5q14 0 23 -17q13 -26 33.5 -49.5t46 -41.5t56.5 -29t66 -11zM364 740l-109 51l-109 -51l-23 29l94 96q9 9 17 16t21 7t21 -7t17 -16l94 -96z" />
    <glyph glyph-name="Scommaaccent" unicode="&#x218;" horiz-adv-x="562" 
d="M280 44q81 0 122 33.5t41 95.5q0 51 -27.5 86t-86.5 54l-111 36q-33 11 -62.5 26.5t-51.5 37t-34.5 50t-12.5 65.5q0 36 14 66.5t39 52.5t59.5 34.5t76.5 12.5q39 0 69.5 -9t46.5 -21q13 16 22 25t15 9q5 0 11 -10t13 -26t13.5 -34t13 -36.5t10.5 -32.5q2 -11 -3.5 -18
t-14.5 -7q-8 0 -12 3t-10 11q-14 18 -30 34.5t-37 30t-48 21.5t-62 8q-20 0 -39 -5.5t-34 -17t-24 -28.5t-9 -40q0 -42 28 -69.5t87 -47.5l109 -37q83 -28 125.5 -76t42.5 -123q0 -47 -15.5 -86t-46.5 -66.5t-78 -43t-110 -15.5q-47 0 -84 13t-54 26q-11 -28 -19 -35.5
t-14 -7.5t-12 10q-5 10 -14 30.5t-18 45t-17 50t-12 45.5q-2 11 3 19.5t17 8.5q14 0 23 -17q13 -26 33.5 -49.5t46 -41.5t56.5 -29t66 -11zM261 -240q-11 0 -11 11q0 6 2.5 10t7 10t10.5 14.5t12 22.5h-2q-27 0 -40.5 15t-13.5 36q0 22 16.5 37.5t39.5 15.5q26 0 42.5 -18.5
t16.5 -52.5q0 -20 -7.5 -38t-19 -32t-26 -22.5t-27.5 -8.5z" />
    <glyph glyph-name="Tcaron" unicode="&#x164;" horiz-adv-x="588" 
d="M338 633v-583l49 -4v-46h-186v46l49 4v583h-70q-26 0 -42.5 -3t-29 -10.5t-22.5 -21.5t-22 -36q-8 -14 -21 -14q-8 0 -13 6.5t-3 18.5q4 24 10 52.5t15 58.5q3 10 14 10q5 0 11.5 -2t17.5 -4t28 -4t43 -2h256q26 0 43.5 2t28.5 4t17.5 4t10.5 2q11 0 14 -10
q9 -30 15 -58.5t10 -52.5q2 -12 -3 -18.5t-13 -6.5q-13 0 -21 14q-12 22 -22 36t-22.5 21.5t-29.5 10.5t-42 3h-70zM332 765q-9 -9 -17 -16t-21 -7t-21 7t-17 16l-94 96l23 29l109 -51l109 51l23 -29l-94 -96v0z" />
    <glyph glyph-name="Tcommaaccent" unicode="&#x162;" horiz-adv-x="588" 
d="M338 633v-583l49 -4v-46h-186v46l49 4v583h-70q-26 0 -42.5 -3t-29 -10.5t-22.5 -21.5t-22 -36q-8 -14 -21 -14q-8 0 -13 6.5t-3 18.5q4 24 10 52.5t15 58.5q3 10 14 10q5 0 11.5 -2t17.5 -4t28 -4t43 -2h256q26 0 43.5 2t28.5 4t17.5 4t10.5 2q11 0 14 -10
q9 -30 15 -58.5t10 -52.5q2 -12 -3 -18.5t-13 -6.5q-13 0 -21 14q-12 22 -22 36t-22.5 21.5t-29.5 10.5t-42 3h-70zM268 -240q-11 0 -11 11q0 6 2.5 10t7 10t10.5 14.5t12 22.5h-2q-27 0 -40.5 15t-13.5 36q0 22 16.5 37.5t39.5 15.5q26 0 42.5 -18.5t16.5 -52.5
q0 -20 -7.5 -38t-19 -32t-26 -22.5t-27.5 -8.5z" />
    <glyph glyph-name="uni021A" unicode="&#x21a;" horiz-adv-x="588" 
d="M338 633v-583l49 -4v-46h-186v46l49 4v583h-70q-26 0 -42.5 -3t-29 -10.5t-22.5 -21.5t-22 -36q-8 -14 -21 -14q-8 0 -13 6.5t-3 18.5q4 24 10 52.5t15 58.5q3 10 14 10q5 0 11.5 -2t17.5 -4t28 -4t43 -2h256q26 0 43.5 2t28.5 4t17.5 4t10.5 2q11 0 14 -10
q9 -30 15 -58.5t10 -52.5q2 -12 -3 -18.5t-13 -6.5q-13 0 -21 14q-12 22 -22 36t-22.5 21.5t-29.5 10.5t-42 3h-70zM268 -240q-11 0 -11 11q0 6 2.5 10t7 10t10.5 14.5t12 22.5h-2q-27 0 -40.5 15t-13.5 36q0 22 16.5 37.5t39.5 15.5q26 0 42.5 -18.5t16.5 -52.5
q0 -20 -7.5 -38t-19 -32t-26 -22.5t-27.5 -8.5z" />
    <glyph glyph-name="Tbar" unicode="&#x166;" horiz-adv-x="588" 
d="M98 389h152v244h-70q-26 0 -42.5 -3t-29 -10.5t-22.5 -21.5t-22 -36q-8 -14 -21 -14q-8 0 -13 6.5t-3 18.5q4 24 10 52.5t15 58.5q3 10 14 10q5 0 11.5 -2t17.5 -4t28 -4t43 -2h256q26 0 43.5 2t28.5 4t17.5 4t10.5 2q11 0 14 -10q9 -30 15 -58.5t10 -52.5
q2 -12 -3 -18.5t-13 -6.5q-13 0 -21 14q-12 22 -22 36t-22.5 21.5t-29.5 10.5t-42 3h-70v-244h152v-52h-152v-287l49 -4v-46h-186v46l49 4v287h-152v52z" />
    <glyph glyph-name="Ubreve" unicode="&#x16c;" horiz-adv-x="701" 
d="M96 632l-49 4v46h183v-46l-49 -4v-418q0 -76 44 -119t135 -43t135.5 43t44.5 119v418l-49 4v46h163v-46l-49 -4v-416q0 -105 -63.5 -166.5t-191.5 -61.5q-131 0 -192.5 61.5t-61.5 166.5v416zM359 824q36 0 54.5 17t24.5 33l39 -9q0 -19 -7 -40t-21 -38.5t-36.5 -29
t-53.5 -11.5t-53.5 11.5t-36.5 29t-21 38.5t-7 40l39 9q6 -16 24.5 -33t54.5 -17z" />
    <glyph glyph-name="Uhungarumlaut" unicode="&#x170;" horiz-adv-x="701" 
d="M96 632l-49 4v46h183v-46l-49 -4v-418q0 -76 44 -119t135 -43t135.5 43t44.5 119v418l-49 4v46h163v-46l-49 -4v-416q0 -105 -63.5 -166.5t-191.5 -61.5q-131 0 -192.5 61.5t-61.5 166.5v416zM282 794q13 19 22.5 33t18 22.5t17 12.5t19.5 4q19 0 31 -11t12 -29
t-12 -32.5t-46 -32.5l-74 -39l-23 21zM445 794q13 19 22.5 33t18 22.5t17 12.5t19.5 4q19 0 31 -11t12 -29t-12 -32.5t-46 -32.5l-74 -39l-23 21z" />
    <glyph glyph-name="Umacron" unicode="&#x16a;" horiz-adv-x="701" 
d="M96 632l-49 4v46h183v-46l-49 -4v-418q0 -76 44 -119t135 -43t135.5 43t44.5 119v418l-49 4v46h163v-46l-49 -4v-416q0 -105 -63.5 -166.5t-191.5 -61.5q-131 0 -192.5 61.5t-61.5 166.5v416zM233 823h252v-69h-252v69z" />
    <glyph glyph-name="Uogonek" unicode="&#x172;" horiz-adv-x="701" 
d="M497 -131q-5 -8 -12.5 -19.5t-20 -22t-30 -18t-41.5 -7.5q-43 0 -66.5 24.5t-23.5 58.5q0 37 22.5 61.5t51.5 42.5q-7 -1 -13.5 -1h-13.5q-131 0 -192.5 61.5t-61.5 166.5v416l-49 4v46h183v-46l-49 -4v-418q0 -76 44 -119t135 -43t135.5 43t44.5 119v418l-49 4v46h163
v-46l-49 -4v-416q0 -72 -30 -125t-96 -83q-50 -23 -77 -52t-27 -52q0 -16 9.5 -26.5t28.5 -10.5q18 0 32 9.5t23 18.5l29 -26v0z" />
    <glyph glyph-name="Uring" unicode="&#x16e;" horiz-adv-x="701" 
d="M96 632l-49 4v46h183v-46l-49 -4v-418q0 -76 44 -119t135 -43t135.5 43t44.5 119v418l-49 4v46h163v-46l-49 -4v-416q0 -105 -63.5 -166.5t-191.5 -61.5q-131 0 -192.5 61.5t-61.5 166.5v416zM359 938q21 0 39 -7.5t31.5 -20.5t21.5 -30.5t8 -37.5t-8 -37.5t-21.5 -30.5
t-31.5 -20t-39 -7q-42 0 -71 27t-29 68q0 20 7.5 37.5t21 30.5t32 20.5t39.5 7.5zM359 896q-20 0 -32.5 -16t-12.5 -38t12.5 -37.5t32.5 -15.5t32.5 15.5t12.5 37.5t-12.5 38t-32.5 16z" />
    <glyph glyph-name="Utilde" unicode="&#x168;" horiz-adv-x="701" 
d="M96 632l-49 4v46h183v-46l-49 -4v-418q0 -76 44 -119t135 -43t135.5 43t44.5 119v418l-49 4v46h163v-46l-49 -4v-416q0 -105 -63.5 -166.5t-191.5 -61.5q-131 0 -192.5 61.5t-61.5 166.5v416zM308 782q-14 0 -26 -10.5t-19 -26.5l-37 13q5 45 26.5 72t52.5 27
q17 0 31.5 -5t31.5 -12q14 -6 23.5 -9.5t19.5 -3.5q14 0 25.5 10t19.5 27l37 -13q-5 -47 -26.5 -73t-53.5 -26q-17 0 -30.5 4t-30.5 12q-15 7 -24 10.5t-20 3.5z" />
    <glyph glyph-name="Wacute" unicode="&#x1e82;" horiz-adv-x="926" 
d="M683 25q-5 -19 -13 -26t-21 -7q-11 0 -19 7.5t-13 25.5l-152 522l-148 -522q-5 -19 -12.5 -26t-19.5 -7q-13 0 -19.5 8t-11.5 25l-178 607l-43 4v46h179v-46l-47 -4l131 -462l132 462h-1l-43 4v46h186v-46l-47 -4l136 -476l127 476l-47 4v46h154v-46l-43 -4l-167 -607v0z
M465 825q29 26 46.5 37.5t39.5 11.5q23 0 36 -14t13 -35q0 -26 -21 -40.5t-69 -26.5l-96 -24l-18 29z" />
    <glyph glyph-name="Wcircumflex" unicode="&#x174;" horiz-adv-x="926" 
d="M683 25q-5 -19 -13 -26t-21 -7q-11 0 -19 7.5t-13 25.5l-152 522l-148 -522q-5 -19 -12.5 -26t-19.5 -7q-13 0 -19.5 8t-11.5 25l-178 607l-43 4v46h179v-46l-47 -4l131 -462l132 462h-1l-43 4v46h186v-46l-47 -4l136 -476l127 476l-47 4v46h154v-46l-43 -4l-167 -607v0z
M585 740l-109 51l-109 -51l-23 29l94 96q9 9 17 16t21 7t21 -7t17 -16l94 -96z" />
    <glyph glyph-name="Wdieresis" unicode="&#x1e84;" horiz-adv-x="926" 
d="M683 25q-5 -19 -13 -26t-21 -7q-11 0 -19 7.5t-13 25.5l-152 522l-148 -522q-5 -19 -12.5 -26t-19.5 -7q-13 0 -19.5 8t-11.5 25l-178 607l-43 4v46h179v-46l-47 -4l131 -462l132 462h-1l-43 4v46h186v-46l-47 -4l136 -476l127 476l-47 4v46h154v-46l-43 -4l-167 -607v0z
M381 748q-26 0 -42.5 17.5t-16.5 41.5t16.5 41.5t42.5 17.5q25 0 42 -17.5t17 -41.5t-17 -41.5t-42 -17.5zM571 748q-26 0 -42.5 17.5t-16.5 41.5t16.5 41.5t42.5 17.5q25 0 42 -17.5t17 -41.5t-17 -41.5t-42 -17.5z" />
    <glyph glyph-name="Wgrave" unicode="&#x1e80;" horiz-adv-x="926" 
d="M683 25q-5 -19 -13 -26t-21 -7q-11 0 -19 7.5t-13 25.5l-152 522l-148 -522q-5 -19 -12.5 -26t-19.5 -7q-13 0 -19.5 8t-11.5 25l-178 607l-43 4v46h179v-46l-47 -4l131 -462l132 462h-1l-43 4v46h186v-46l-47 -4l136 -476l127 476l-47 4v46h154v-46l-43 -4l-167 -607v0z
M548 734l-96 24q-48 12 -69 26.5t-21 40.5q0 21 13 35t36 14q22 0 39.5 -11.5t46.5 -37.5l69 -62z" />
    <glyph glyph-name="Ycircumflex" unicode="&#x176;" horiz-adv-x="648" 
d="M286 255l-217 377l-43 4v46h191v-46l-47 -4l174 -315l174 315l-47 4v46h151v-46l-43 -4l-205 -372v-210l49 -4v-46h-186v46l49 4v205zM444 740l-109 51l-109 -51l-23 29l94 96q9 9 17 16t21 7t21 -7t17 -16l94 -96z" />
    <glyph glyph-name="Ygrave" unicode="&#x1ef2;" horiz-adv-x="648" 
d="M286 255l-217 377l-43 4v46h191v-46l-47 -4l174 -315l174 315l-47 4v46h151v-46l-43 -4l-205 -372v-210l49 -4v-46h-186v46l49 4v205zM407 734l-96 24q-48 12 -69 26.5t-21 40.5q0 21 13 35t36 14q22 0 39.5 -11.5t46.5 -37.5l69 -62z" />
    <glyph glyph-name="Zacute" unicode="&#x179;" horiz-adv-x="600" 
d="M569 148q0 -15 -4.5 -35.5t-11 -41.5t-15 -40t-16.5 -31h-458q-19 0 -23 13.5t6 28.5l384 590h-181q-31 0 -52.5 -4.5t-38 -14t-30 -23.5t-28.5 -33q-6 -7 -9.5 -10.5t-11.5 -3.5q-19 0 -16 25q1 11 6 27t11 32.5t13.5 31t13.5 23.5h410q19 0 23 -14t-6 -28l-386 -587
h233q30 0 51.5 6t38 18.5t30.5 31.5t30 46q5 8 9 11.5t12 3.5q16 0 16 -22zM300 825q29 26 46.5 37.5t39.5 11.5q23 0 36 -14t13 -35q0 -26 -21 -40.5t-69 -26.5l-96 -24l-18 29z" />
    <glyph glyph-name="Zdotaccent" unicode="&#x17b;" horiz-adv-x="600" 
d="M569 148q0 -15 -4.5 -35.5t-11 -41.5t-15 -40t-16.5 -31h-458q-19 0 -23 13.5t6 28.5l384 590h-181q-31 0 -52.5 -4.5t-38 -14t-30 -23.5t-28.5 -33q-6 -7 -9.5 -10.5t-11.5 -3.5q-19 0 -16 25q1 11 6 27t11 32.5t13.5 31t13.5 23.5h410q19 0 23 -14t-6 -28l-386 -587
h233q30 0 51.5 6t38 18.5t30.5 31.5t30 46q5 8 9 11.5t12 3.5q16 0 16 -22zM311 746q-26 0 -44 18.5t-18 43.5t17.5 43.5t44.5 18.5q26 0 44 -18.5t18 -43.5t-18 -43.5t-44 -18.5z" />
    <glyph glyph-name="abreve" unicode="&#x103;" horiz-adv-x="490" 
d="M412 60q0 -11 11 -11q8 0 18.5 6.5t17.5 14.5l29 -33q-10 -17 -33.5 -33t-64.5 -16q-31 0 -44.5 17t-13.5 46v14q-6 -10 -17 -23t-28 -25t-40.5 -20t-54.5 -8q-36 0 -65.5 11t-51 31.5t-33 49.5t-11.5 64q0 37 16 70t44.5 57.5t67 38.5t83.5 14q38 0 59.5 -8t30.5 -15v38
q0 54 -27 83t-78 29q-21 0 -38 -5.5t-30 -13.5t-23 -16.5t-16 -14.5q-11 -9 -21 -9t-17 6t-7 18q0 14 16 32q5 6 16.5 16t30 20.5t44 18t58.5 7.5q85 0 128.5 -43.5t43.5 -120.5v-287zM332 200q0 38 -22.5 56t-55.5 18q-31 0 -56.5 -10.5t-43.5 -28t-28 -41t-10 -49.5
q0 -42 24.5 -71t68.5 -29q24 0 46 9t39.5 25.5t27.5 39.5t10 52v29zM241 648q33 0 48.5 17.5t20.5 33.5l39 -9q0 -18 -6 -38.5t-18.5 -37t-33 -27.5t-50.5 -11t-50.5 11t-33 27.5t-18.5 37t-6 38.5l39 9q5 -16 20.5 -33.5t48.5 -17.5z" />
    <glyph glyph-name="amacron" unicode="&#x101;" horiz-adv-x="490" 
d="M412 60q0 -11 11 -11q8 0 18.5 6.5t17.5 14.5l29 -33q-10 -17 -33.5 -33t-64.5 -16q-31 0 -44.5 17t-13.5 46v14q-6 -10 -17 -23t-28 -25t-40.5 -20t-54.5 -8q-36 0 -65.5 11t-51 31.5t-33 49.5t-11.5 64q0 37 16 70t44.5 57.5t67 38.5t83.5 14q38 0 59.5 -8t30.5 -15v38
q0 54 -27 83t-78 29q-21 0 -38 -5.5t-30 -13.5t-23 -16.5t-16 -14.5q-11 -9 -21 -9t-17 6t-7 18q0 14 16 32q5 6 16.5 16t30 20.5t44 18t58.5 7.5q85 0 128.5 -43.5t43.5 -120.5v-287zM332 200q0 38 -22.5 56t-55.5 18q-31 0 -56.5 -10.5t-43.5 -28t-28 -41t-10 -49.5
q0 -42 24.5 -71t68.5 -29q24 0 46 9t39.5 25.5t27.5 39.5t10 52v29zM125 665h232v-66h-232v66z" />
    <glyph glyph-name="aogonek" unicode="&#x105;" horiz-adv-x="490" 
d="M488 -131q-5 -8 -12.5 -19.5t-20 -22t-30 -18t-41.5 -7.5q-43 0 -66.5 24.5t-23.5 58.5q0 37 23.5 62.5t52.5 42.5q-20 5 -29 21t-9 40v14q-6 -10 -17 -23t-28 -25t-40.5 -20t-54.5 -8q-36 0 -65.5 11t-51 31.5t-33 49.5t-11.5 64q0 37 16 70t44.5 57.5t67 38.5t83.5 14
q38 0 59.5 -8t30.5 -15v38q0 54 -27 83t-78 29q-21 0 -38 -5.5t-30 -13.5t-23 -16.5t-16 -14.5q-11 -9 -21 -9t-17 6t-7 18q0 14 16 32q5 6 16.5 16t30 20.5t44 18t58.5 7.5q85 0 128.5 -43.5t43.5 -120.5v-287q0 -11 11 -11q8 0 18.5 6.5t17.5 14.5l29 -33q-18 -19 -39 -36
t-39.5 -33t-31 -32t-12.5 -33q0 -16 9.5 -26t28.5 -10q18 0 32 9.5t23 18.5zM332 200q0 38 -22.5 56t-55.5 18q-31 0 -56.5 -10.5t-43.5 -28t-28 -41t-10 -49.5q0 -42 24.5 -71t68.5 -29q24 0 46 9t39.5 25.5t27.5 39.5t10 52v29z" />
    <glyph glyph-name="cacute" unicode="&#x107;" horiz-adv-x="489" 
d="M266 465q-27 0 -50.5 -14t-41.5 -40.5t-28.5 -64.5t-10.5 -86q0 -47 11 -86t30.5 -67.5t46.5 -44.5t59 -16t56 8t42.5 20t31.5 25l23 23l34 -33q-9 -13 -24.5 -30.5t-38.5 -33t-54.5 -26.5t-71.5 -11q-55 0 -99.5 19.5t-75.5 54.5t-47.5 83t-16.5 105t18 105t50 83
t74.5 54.5t92.5 19.5q63 0 99.5 -13.5t52.5 -24.5q-1 -26 -5 -59t-9 -66q-3 -17 -19 -17q-10 0 -13.5 4.5t-5.5 12.5q-8 35 -18.5 57.5t-24 35.5t-30.5 18t-37 5zM248 659q20 38 35.5 56.5t42.5 18.5q22 0 34 -15t12 -35q0 -19 -15.5 -33.5t-46.5 -34.5l-75 -50l-26 22z" />
    <glyph glyph-name="ccaron" unicode="&#x10d;" horiz-adv-x="489" 
d="M266 465q-27 0 -50.5 -14t-41.5 -40.5t-28.5 -64.5t-10.5 -86q0 -47 11 -86t30.5 -67.5t46.5 -44.5t59 -16t56 8t42.5 20t31.5 25l23 23l34 -33q-9 -13 -24.5 -30.5t-38.5 -33t-54.5 -26.5t-71.5 -11q-55 0 -99.5 19.5t-75.5 54.5t-47.5 83t-16.5 105t18 105t50 83
t74.5 54.5t92.5 19.5q63 0 99.5 -13.5t52.5 -24.5q-1 -26 -5 -59t-9 -66q-3 -17 -19 -17q-10 0 -13.5 4.5t-5.5 12.5q-8 35 -18.5 57.5t-24 35.5t-30.5 18t-37 5zM304 598q-8 -10 -16.5 -16.5t-21.5 -6.5t-21.5 6.5t-16.5 16.5l-84 99l23 26l99 -54l99 54l23 -26l-84 -99v0z
" />
    <glyph glyph-name="ccircumflex" unicode="&#x109;" horiz-adv-x="489" 
d="M266 465q-27 0 -50.5 -14t-41.5 -40.5t-28.5 -64.5t-10.5 -86q0 -47 11 -86t30.5 -67.5t46.5 -44.5t59 -16t56 8t42.5 20t31.5 25l23 23l34 -33q-9 -13 -24.5 -30.5t-38.5 -33t-54.5 -26.5t-71.5 -11q-55 0 -99.5 19.5t-75.5 54.5t-47.5 83t-16.5 105t18 105t50 83
t74.5 54.5t92.5 19.5q63 0 99.5 -13.5t52.5 -24.5q-1 -26 -5 -59t-9 -66q-3 -17 -19 -17q-10 0 -13.5 4.5t-5.5 12.5q-8 35 -18.5 57.5t-24 35.5t-30.5 18t-37 5zM365 574l-99 54l-99 -54l-23 26l84 99q8 10 16.5 16.5t21.5 6.5t21.5 -6.5t16.5 -16.5l84 -99z" />
    <glyph glyph-name="cdotaccent" unicode="&#x10b;" horiz-adv-x="489" 
d="M266 465q-27 0 -50.5 -14t-41.5 -40.5t-28.5 -64.5t-10.5 -86q0 -47 11 -86t30.5 -67.5t46.5 -44.5t59 -16t56 8t42.5 20t31.5 25l23 23l34 -33q-9 -13 -24.5 -30.5t-38.5 -33t-54.5 -26.5t-71.5 -11q-55 0 -99.5 19.5t-75.5 54.5t-47.5 83t-16.5 105t18 105t50 83
t74.5 54.5t92.5 19.5q63 0 99.5 -13.5t52.5 -24.5q-1 -26 -5 -59t-9 -66q-3 -17 -19 -17q-10 0 -13.5 4.5t-5.5 12.5q-8 35 -18.5 57.5t-24 35.5t-30.5 18t-37 5zM266 587q-26 0 -44 18.5t-18 43.5t17.5 43.5t44.5 18.5q26 0 44 -18.5t18 -43.5t-18 -43.5t-44 -18.5z" />
    <glyph glyph-name="dcaron" unicode="&#x10f;" horiz-adv-x="569" 
d="M40 240q0 61 20.5 111t55 86t80 55.5t95.5 19.5q51 0 77 -13.5t40 -28.5v171l-49 4v41l116 52q16 8 16 -14v-673l44 -5v-46h-127v54q-6 -7 -18 -18.5t-30 -22t-43 -18t-56 -7.5q-47 0 -87.5 16.5t-70 49t-46.5 79.5t-17 107zM271 42q28 0 52.5 9.5t43.5 25t30 35t11 39.5
v202q0 43 -28 74t-82 31q-32 0 -62 -15t-52.5 -42t-36 -65.5t-13.5 -85.5q0 -100 38.5 -154t98.5 -54zM548 656q4 38 14 60.5t39 22.5q18 0 28.5 -11t10.5 -30q0 -14 -6.5 -30.5t-19.5 -39.5l-44 -78l-32 9z" />
    <glyph glyph-name="ebreve" unicode="&#x115;" horiz-adv-x="492" 
d="M466 89q-9 -13 -24.5 -30.5t-39.5 -33t-57.5 -26.5t-77.5 -11q-51 0 -93 18t-71.5 51t-45.5 80t-16 105q0 61 17 111t45.5 85t65.5 54.5t78 19.5q48 0 84 -16t62 -42t42.5 -60.5t25.5 -70.5l-330 -130q18 -66 59 -104t91 -38q30 0 54 7.5t42 18.5t31.5 23t23.5 22z
M321 329q27 11 27 37q0 15 -6.5 31.5t-19.5 30.5t-31.5 23t-43.5 9q-27 0 -50 -13t-40 -37t-26.5 -58.5t-9.5 -76.5v-14.5t1 -13.5zM247 648q33 0 48.5 17.5t20.5 33.5l39 -9q0 -18 -6 -38.5t-18.5 -37t-33 -27.5t-50.5 -11t-50.5 11t-33 27.5t-18.5 37t-6 38.5l39 9
q5 -16 20.5 -33.5t48.5 -17.5z" />
    <glyph glyph-name="ecaron" unicode="&#x11b;" horiz-adv-x="492" 
d="M466 89q-9 -13 -24.5 -30.5t-39.5 -33t-57.5 -26.5t-77.5 -11q-51 0 -93 18t-71.5 51t-45.5 80t-16 105q0 61 17 111t45.5 85t65.5 54.5t78 19.5q48 0 84 -16t62 -42t42.5 -60.5t25.5 -70.5l-330 -130q18 -66 59 -104t91 -38q30 0 54 7.5t42 18.5t31.5 23t23.5 22z
M321 329q27 11 27 37q0 15 -6.5 31.5t-19.5 30.5t-31.5 23t-43.5 9q-27 0 -50 -13t-40 -37t-26.5 -58.5t-9.5 -76.5v-14.5t1 -13.5zM285 598q-8 -10 -16.5 -16.5t-21.5 -6.5t-21.5 6.5t-16.5 16.5l-84 99l23 26l99 -54l99 54l23 -26l-84 -99v0z" />
    <glyph glyph-name="edotaccent" unicode="&#x117;" horiz-adv-x="492" 
d="M466 89q-9 -13 -24.5 -30.5t-39.5 -33t-57.5 -26.5t-77.5 -11q-51 0 -93 18t-71.5 51t-45.5 80t-16 105q0 61 17 111t45.5 85t65.5 54.5t78 19.5q48 0 84 -16t62 -42t42.5 -60.5t25.5 -70.5l-330 -130q18 -66 59 -104t91 -38q30 0 54 7.5t42 18.5t31.5 23t23.5 22z
M321 329q27 11 27 37q0 15 -6.5 31.5t-19.5 30.5t-31.5 23t-43.5 9q-27 0 -50 -13t-40 -37t-26.5 -58.5t-9.5 -76.5v-14.5t1 -13.5zM247 587q-26 0 -44 18.5t-18 43.5t17.5 43.5t44.5 18.5q26 0 44 -18.5t18 -43.5t-18 -43.5t-44 -18.5z" />
    <glyph glyph-name="emacron" unicode="&#x113;" horiz-adv-x="492" 
d="M466 89q-9 -13 -24.5 -30.5t-39.5 -33t-57.5 -26.5t-77.5 -11q-51 0 -93 18t-71.5 51t-45.5 80t-16 105q0 61 17 111t45.5 85t65.5 54.5t78 19.5q48 0 84 -16t62 -42t42.5 -60.5t25.5 -70.5l-330 -130q18 -66 59 -104t91 -38q30 0 54 7.5t42 18.5t31.5 23t23.5 22z
M321 329q27 11 27 37q0 15 -6.5 31.5t-19.5 30.5t-31.5 23t-43.5 9q-27 0 -50 -13t-40 -37t-26.5 -58.5t-9.5 -76.5v-14.5t1 -13.5zM131 665h232v-66h-232v66z" />
    <glyph glyph-name="eogonek" unicode="&#x119;" horiz-adv-x="492" 
d="M412 -131q-5 -8 -12.5 -19.5t-20 -22t-30 -18t-41.5 -7.5q-43 0 -66.5 24.5t-23.5 58.5q0 37 23 62t51 42q-6 -1 -12 -1h-13q-51 0 -93 18t-71.5 51t-45.5 80t-16 105q0 61 17 111t45.5 85t65.5 54.5t78 19.5q48 0 84 -16t62 -42t42.5 -60.5t25.5 -70.5l-330 -130
q18 -66 59 -104t91 -38q30 0 54 7.5t42 18.5t31.5 23t23.5 22l34 -33q-9 -13 -27 -31.5t-42 -36.5q-51 -38 -79 -63.5t-28 -53.5q0 -16 9.5 -26.5t28.5 -10.5q18 0 32 9.5t23 18.5zM121 275v-14.5t1 -13.5l199 82q27 11 27 37q0 15 -6.5 31.5t-19.5 30.5t-31.5 23t-43.5 9
q-27 0 -50 -13t-40 -37t-26.5 -58.5t-9.5 -76.5z" />
    <glyph glyph-name="gbreve" unicode="&#x11f;" horiz-adv-x="505" 
d="M243 117q-8 0 -15 0.5t-14 1.5q-32 -2 -47.5 -13.5t-15.5 -23.5q0 -13 9 -19.5t23 -7.5l164 -9q79 -5 109.5 -36.5t30.5 -78.5q0 -28 -16.5 -52.5t-47 -42.5t-74 -28t-96.5 -10q-110 0 -169 30.5t-59 82.5q0 14 7.5 27.5t20.5 24.5t30 19t36 11q-21 11 -31 28t-10 37
q0 28 23 49.5t52 27.5q-51 23 -83 68t-32 107q0 44 16 81t44 64t65.5 42t79.5 15q58 0 105 -25q-1 3 -1 11q0 18 5.5 36t17 32.5t29.5 23.5t43 9q32 0 47 -15t15 -38q0 -18 -12 -30.5t-33 -12.5q-20 0 -30 5.5t-21 5.5t-18.5 -7.5t-7.5 -21.5q0 -19 22 -45l-1 1
q21 -26 32.5 -59.5t11.5 -71.5q0 -43 -15 -78.5t-42 -61t-64.5 -39.5t-82.5 -14zM253 163q50 0 78.5 33.5t28.5 93.5q0 81 -34 128.5t-93 47.5q-48 0 -78 -36.5t-30 -99.5q0 -79 36.5 -123t91.5 -44zM182 -20q-32 2 -54.5 -13.5t-22.5 -40.5q0 -40 38.5 -61t109.5 -21
q72 0 113.5 21t41.5 50q0 23 -19.5 38t-56.5 17zM234 648q33 0 48.5 17.5t20.5 33.5l39 -9q0 -18 -6 -38.5t-18.5 -37t-33 -27.5t-50.5 -11t-50.5 11t-33 27.5t-18.5 37t-6 38.5l39 9q5 -16 20.5 -33.5t48.5 -17.5z" />
    <glyph glyph-name="gcircumflex" unicode="&#x11d;" horiz-adv-x="505" 
d="M243 117q-8 0 -15 0.5t-14 1.5q-32 -2 -47.5 -13.5t-15.5 -23.5q0 -13 9 -19.5t23 -7.5l164 -9q79 -5 109.5 -36.5t30.5 -78.5q0 -28 -16.5 -52.5t-47 -42.5t-74 -28t-96.5 -10q-110 0 -169 30.5t-59 82.5q0 14 7.5 27.5t20.5 24.5t30 19t36 11q-21 11 -31 28t-10 37
q0 28 23 49.5t52 27.5q-51 23 -83 68t-32 107q0 44 16 81t44 64t65.5 42t79.5 15q58 0 105 -25q-1 3 -1 11q0 18 5.5 36t17 32.5t29.5 23.5t43 9q32 0 47 -15t15 -38q0 -18 -12 -30.5t-33 -12.5q-20 0 -30 5.5t-21 5.5t-18.5 -7.5t-7.5 -21.5q0 -19 22 -45l-1 1
q21 -26 32.5 -59.5t11.5 -71.5q0 -43 -15 -78.5t-42 -61t-64.5 -39.5t-82.5 -14zM253 163q50 0 78.5 33.5t28.5 93.5q0 81 -34 128.5t-93 47.5q-48 0 -78 -36.5t-30 -99.5q0 -79 36.5 -123t91.5 -44zM182 -20q-32 2 -54.5 -13.5t-22.5 -40.5q0 -40 38.5 -61t109.5 -21
q72 0 113.5 21t41.5 50q0 23 -19.5 38t-56.5 17zM333 574l-99 54l-99 -54l-23 26l84 99q8 10 16.5 16.5t21.5 6.5t21.5 -6.5t16.5 -16.5l84 -99z" />
    <glyph glyph-name="gcommaaccent" unicode="&#x123;" horiz-adv-x="505" 
d="M243 117q-8 0 -15 0.5t-14 1.5q-32 -2 -47.5 -13.5t-15.5 -23.5q0 -13 9 -19.5t23 -7.5l164 -9q79 -5 109.5 -36.5t30.5 -78.5q0 -28 -16.5 -52.5t-47 -42.5t-74 -28t-96.5 -10q-110 0 -169 30.5t-59 82.5q0 14 7.5 27.5t20.5 24.5t30 19t36 11q-21 11 -31 28t-10 37
q0 28 23 49.5t52 27.5q-51 23 -83 68t-32 107q0 44 16 81t44 64t65.5 42t79.5 15q58 0 105 -25q-1 3 -1 11q0 18 5.5 36t17 32.5t29.5 23.5t43 9q32 0 47 -15t15 -38q0 -18 -12 -30.5t-33 -12.5q-20 0 -30 5.5t-21 5.5t-18.5 -7.5t-7.5 -21.5q0 -19 22 -45l-1 1
q21 -26 32.5 -59.5t11.5 -71.5q0 -43 -15 -78.5t-42 -61t-64.5 -39.5t-82.5 -14zM253 163q50 0 78.5 33.5t28.5 93.5q0 81 -34 128.5t-93 47.5q-48 0 -78 -36.5t-30 -99.5q0 -79 36.5 -123t91.5 -44zM182 -20q-32 2 -54.5 -13.5t-22.5 -40.5q0 -40 38.5 -61t109.5 -21
q72 0 113.5 21t41.5 50q0 23 -19.5 38t-56.5 17zM257 762q11 0 11 -11q0 -6 -3 -10l-7.5 -10t-10 -14.5t-11.5 -22.5h2q27 0 40.5 -15t13.5 -36q0 -22 -16.5 -37.5t-39.5 -15.5q-26 0 -42.5 18.5t-16.5 52.5q0 20 7.5 38t19 32t25.5 22.5t28 8.5z" />
    <glyph glyph-name="gdotaccent" unicode="&#x121;" horiz-adv-x="505" 
d="M243 117q-8 0 -15 0.5t-14 1.5q-32 -2 -47.5 -13.5t-15.5 -23.5q0 -13 9 -19.5t23 -7.5l164 -9q79 -5 109.5 -36.5t30.5 -78.5q0 -28 -16.5 -52.5t-47 -42.5t-74 -28t-96.5 -10q-110 0 -169 30.5t-59 82.5q0 14 7.5 27.5t20.5 24.5t30 19t36 11q-21 11 -31 28t-10 37
q0 28 23 49.5t52 27.5q-51 23 -83 68t-32 107q0 44 16 81t44 64t65.5 42t79.5 15q58 0 105 -25q-1 3 -1 11q0 18 5.5 36t17 32.5t29.5 23.5t43 9q32 0 47 -15t15 -38q0 -18 -12 -30.5t-33 -12.5q-20 0 -30 5.5t-21 5.5t-18.5 -7.5t-7.5 -21.5q0 -19 22 -45l-1 1
q21 -26 32.5 -59.5t11.5 -71.5q0 -43 -15 -78.5t-42 -61t-64.5 -39.5t-82.5 -14zM253 163q50 0 78.5 33.5t28.5 93.5q0 81 -34 128.5t-93 47.5q-48 0 -78 -36.5t-30 -99.5q0 -79 36.5 -123t91.5 -44zM182 -20q-32 2 -54.5 -13.5t-22.5 -40.5q0 -40 38.5 -61t109.5 -21
q72 0 113.5 21t41.5 50q0 23 -19.5 38t-56.5 17zM234 587q-26 0 -44 18.5t-18 43.5t17.5 43.5t44.5 18.5q26 0 44 -18.5t18 -43.5t-18 -43.5t-44 -18.5z" />
    <glyph glyph-name="hbar" unicode="&#x127;" horiz-adv-x="551" 
d="M39 0v44l44 4v511h-70v49h70v38l-43 3v37l110 52q16 8 16 -14v-116h144v-49h-144v-114q4 6 13.5 17.5t26 22.5t40.5 19t57 8q39 0 70.5 -12t53 -33.5t33 -50.5t11.5 -63v-305l44 -4v-44h-171v44l44 4v294q0 51 -30.5 84t-80.5 33q-26 0 -47 -8.5t-35 -22t-21.5 -31
t-7.5 -36.5v-313l44 -4v-44h-171z" />
    <glyph glyph-name="hcircumflex" unicode="&#x125;" horiz-adv-x="551" 
d="M39 0v44l44 4v592l-43 5v41l110 52q16 8 16 -14v-279q4 6 13.5 17.5t26 22.5t40.5 19t57 8q39 0 70.5 -12t53 -33.5t33 -50.5t11.5 -63v-305l44 -4v-44h-171v44l44 4v294q0 51 -30.5 84t-80.5 33q-26 0 -47 -8.5t-35 -22t-21.5 -31t-7.5 -36.5v-313l44 -4v-44h-171z
M383 788l-109 51l-109 -51l-23 29l94 96q9 9 17 16t21 7t21 -7t17 -16l94 -96z" />
    <glyph glyph-name="ibreve" unicode="&#x12d;" horiz-adv-x="244" 
d="M39 0v44l44 4v365l-41 5v41l108 52q16 8 16 -14v-449l44 -4v-44h-171zM124 648q33 0 48.5 17.5t20.5 33.5l39 -9q0 -18 -6 -38.5t-18.5 -37t-33 -27.5t-50.5 -11t-50.5 11t-33 27.5t-18.5 37t-6 38.5l39 9q5 -16 20.5 -33.5t48.5 -17.5z" />
    <glyph glyph-name="idotaccent" horiz-adv-x="244" 
d="M121 587q-26 0 -44 18.5t-18 43.5t17.5 43.5t44.5 18.5q26 0 44 -18.5t18 -43.5t-18 -43.5t-44 -18.5zM39 0v44l44 4v365l-41 5v41l108 52q16 8 16 -14v-449l44 -4v-44h-171z" />
    <glyph glyph-name="imacron" unicode="&#x12b;" horiz-adv-x="244" 
d="M12 665h216v-66h-216v66zM39 0v44l44 4v365l-41 5v41l108 52q16 8 16 -14v-449l44 -4v-44h-171z" />
    <glyph glyph-name="iogonek" unicode="&#x12f;" horiz-adv-x="244" 
d="M121 587q-26 0 -44 18.5t-18 43.5t17.5 43.5t44.5 18.5q26 0 44 -18.5t18 -43.5t-18 -43.5t-44 -18.5zM39 0v44l44 4v365l-41 5v41l108 52q16 8 16 -14v-449l44 -4v-44h-40q-31 -27 -50 -50t-19 -46q0 -16 9.5 -26.5t28.5 -10.5q18 0 32 9.5t23 18.5l29 -26
q-5 -8 -12.5 -19.5t-20 -22t-30 -18t-41.5 -7.5q-43 0 -66.5 24.5t-23.5 58.5q0 20 8 37.5t20 32t26.5 26t27.5 19.5h-72z" />
    <glyph glyph-name="itilde" unicode="&#x129;" horiz-adv-x="244" 
d="M39 0v44l44 4v365l-41 5v41l108 52q16 8 16 -14v-449l44 -4v-44h-171zM78 617q-14 0 -24 -10t-17 -24l-36 12q5 42 25 69t49 27q17 0 29 -4.5t28 -12.5q14 -6 21.5 -9t17.5 -3q14 0 23.5 9t17.5 25l36 -12q-5 -43 -25 -69.5t-50 -26.5q-17 0 -28 4t-27 12q-14 7 -21.5 10
t-18.5 3z" />
    <glyph glyph-name="jcircumflex" unicode="&#x135;" horiz-adv-x="241" 
d="M166 -40q0 -52 -29 -84.5t-86 -31.5q-27 0 -47.5 8.5t-34.5 22t-21.5 30t-7.5 31.5q0 27 24 27q10 0 15.5 -5t11.5 -15q9 -16 21.5 -26t29.5 -10q20 0 30.5 14.5t10.5 40.5v451l-41 5v41l108 52q16 8 16 -14v-537v0zM221 574l-99 54l-99 -54l-23 26l84 99q8 10 16.5 16.5
t21.5 6.5t21.5 -6.5t16.5 -16.5l84 -99z" />
    <glyph glyph-name="kcommaaccent" unicode="&#x137;" horiz-adv-x="546" 
d="M37 0v44l44 4v592l-43 5v41l110 52q16 8 16 -14v-452l202 180l-45 4v44h167v-44l-43 -4l-109 -96l145 -308l44 -4v-44h-176v44l43 4l-120 252l-108 -95v-157l44 -4v-44h-171zM236 -240q-11 0 -11 11q0 6 2.5 10t7 10t10.5 14.5t12 22.5h-2q-27 0 -40.5 15t-13.5 36
q0 22 16.5 37.5t39.5 15.5q26 0 42.5 -18.5t16.5 -52.5q0 -20 -7.5 -38t-19 -32t-26 -22.5t-27.5 -8.5z" />
    <glyph glyph-name="lacute" unicode="&#x13a;" horiz-adv-x="249" 
d="M39 0v44l44 4v592l-43 5v41l110 52q16 8 16 -14v-676l44 -4v-44h-171zM113 873q29 26 46.5 37.5t39.5 11.5q23 0 36 -14t13 -35q0 -26 -21 -40.5t-69 -26.5l-96 -24l-18 29z" />
    <glyph glyph-name="lcaron" unicode="&#x13e;" horiz-adv-x="249" 
d="M39 0v44l44 4v592l-43 5v41l110 52q16 8 16 -14v-676l44 -4v-44h-171zM223 656q4 38 14 60.5t39 22.5q18 0 28.5 -11t10.5 -30q0 -14 -6.5 -30.5t-19.5 -39.5l-44 -78l-32 9z" />
    <glyph glyph-name="lcommaaccent" unicode="&#x13c;" horiz-adv-x="249" 
d="M39 0v44l44 4v592l-43 5v41l110 52q16 8 16 -14v-676l44 -4v-44h-171zM98 -240q-11 0 -11 11q0 6 2.5 10t7 10t10.5 14.5t12 22.5h-2q-27 0 -40.5 15t-13.5 36q0 22 16.5 37.5t39.5 15.5q26 0 42.5 -18.5t16.5 -52.5q0 -20 -7.5 -38t-19 -32t-26 -22.5t-27.5 -8.5z" />
    <glyph glyph-name="ldot" unicode="&#x140;" horiz-adv-x="354" 
d="M39 0v44l44 4v592l-43 5v41l110 52q16 8 16 -14v-676l44 -4v-44h-171zM302 290q-29 0 -47.5 19t-18.5 47t18 47t48 19q29 0 47.5 -19t18.5 -47t-18.5 -47t-47.5 -19z" />
    <glyph glyph-name="nacute" unicode="&#x144;" horiz-adv-x="550" 
d="M39 0v44l44 4v365l-41 5v41l104 50q20 9 20 -12v-52q4 6 13.5 17.5t26 22.5t40.5 19t57 8q39 0 70.5 -12t53 -33.5t33 -50.5t11.5 -63v-305l44 -4v-44h-171v44l44 4v294q0 51 -30.5 84t-80.5 33q-26 0 -47 -8.5t-35 -22t-21.5 -31t-7.5 -36.5v-313l44 -4v-44h-171z
M256 659q20 38 35.5 56.5t42.5 18.5q22 0 34 -15t12 -35q0 -19 -15.5 -33.5t-46.5 -34.5l-75 -50l-26 22z" />
    <glyph glyph-name="napostrophe" unicode="&#x149;" horiz-adv-x="550" 
d="M39 0v44l44 4v365l-41 5v41l104 50q20 9 20 -12v-52q4 6 13.5 17.5t26 22.5t40.5 19t57 8q39 0 70.5 -12t53 -33.5t33 -50.5t11.5 -63v-305l44 -4v-44h-171v44l44 4v294q0 51 -30.5 84t-80.5 33q-26 0 -47 -8.5t-35 -22t-21.5 -31t-7.5 -36.5v-313l44 -4v-44h-171z
M-87 483q-13 0 -13 12q0 6 5.5 13t13.5 17t17 23t17 30h-3q-30 0 -45 16.5t-15 40.5q0 25 18 42t45 17q29 0 47 -20.5t18 -58.5q0 -26 -11 -49.5t-26.5 -42t-34 -29.5t-33.5 -11z" />
    <glyph glyph-name="ncaron" unicode="&#x148;" horiz-adv-x="550" 
d="M39 0v44l44 4v365l-41 5v41l104 50q20 9 20 -12v-52q4 6 13.5 17.5t26 22.5t40.5 19t57 8q39 0 70.5 -12t53 -33.5t33 -50.5t11.5 -63v-305l44 -4v-44h-171v44l44 4v294q0 51 -30.5 84t-80.5 33q-26 0 -47 -8.5t-35 -22t-21.5 -31t-7.5 -36.5v-313l44 -4v-44h-171z
M312 598q-8 -10 -16.5 -16.5t-21.5 -6.5t-21.5 6.5t-16.5 16.5l-84 99l23 26l99 -54l99 54l23 -26l-84 -99v0z" />
    <glyph glyph-name="ncommaaccent" unicode="&#x146;" horiz-adv-x="550" 
d="M39 0v44l44 4v365l-41 5v41l104 50q20 9 20 -12v-52q4 6 13.5 17.5t26 22.5t40.5 19t57 8q39 0 70.5 -12t53 -33.5t33 -50.5t11.5 -63v-305l44 -4v-44h-171v44l44 4v294q0 51 -30.5 84t-80.5 33q-26 0 -47 -8.5t-35 -22t-21.5 -31t-7.5 -36.5v-313l44 -4v-44h-171z
M250 -240q-11 0 -11 11q0 6 2.5 10t7 10t10.5 14.5t12 22.5h-2q-27 0 -40.5 15t-13.5 36q0 22 16.5 37.5t39.5 15.5q26 0 42.5 -18.5t16.5 -52.5q0 -20 -7.5 -38t-19 -32t-26 -22.5t-27.5 -8.5z" />
    <glyph glyph-name="obreve" unicode="&#x14f;" horiz-adv-x="539" 
d="M39 250q0 56 19.5 104t51.5 83t73.5 55t86.5 20q51 0 93.5 -20t73 -55t47 -83t16.5 -104q0 -57 -18 -105t-49 -83t-73 -54.5t-90 -19.5t-90 19.5t-73.5 54.5t-49.5 83t-18 105zM408 230q0 53 -12 95t-33 71.5t-49 45t-59 15.5q-54 0 -89 -50t-35 -137q0 -53 13 -95.5
t34.5 -71.5t49 -44.5t57.5 -15.5q57 0 90 50t33 137zM269 648q33 0 48.5 17.5t20.5 33.5l39 -9q0 -18 -6 -38.5t-18.5 -37t-33 -27.5t-50.5 -11t-50.5 11t-33 27.5t-18.5 37t-6 38.5l39 9q5 -16 20.5 -33.5t48.5 -17.5z" />
    <glyph glyph-name="ohungarumlaut" unicode="&#x151;" horiz-adv-x="539" 
d="M39 250q0 56 19.5 104t51.5 83t73.5 55t86.5 20q51 0 93.5 -20t73 -55t47 -83t16.5 -104q0 -57 -18 -105t-49 -83t-73 -54.5t-90 -19.5t-90 19.5t-73.5 54.5t-49.5 83t-18 105zM408 230q0 53 -12 95t-33 71.5t-49 45t-59 15.5q-54 0 -89 -50t-35 -137q0 -53 13 -95.5
t34.5 -71.5t49 -44.5t57.5 -15.5q57 0 90 50t33 137zM188 656q14 49 26.5 70t38.5 21q20 0 31.5 -12t11.5 -32q0 -14 -10.5 -32t-36.5 -44l-50 -50l-29 15zM340 656q14 50 26.5 70.5t38.5 20.5q20 0 31.5 -12t11.5 -32q0 -14 -10.5 -32t-36.5 -44l-50 -50l-29 15z" />
    <glyph glyph-name="omacron" unicode="&#x14d;" horiz-adv-x="539" 
d="M39 250q0 56 19.5 104t51.5 83t73.5 55t86.5 20q51 0 93.5 -20t73 -55t47 -83t16.5 -104q0 -57 -18 -105t-49 -83t-73 -54.5t-90 -19.5t-90 19.5t-73.5 54.5t-49.5 83t-18 105zM408 230q0 53 -12 95t-33 71.5t-49 45t-59 15.5q-54 0 -89 -50t-35 -137q0 -53 13 -95.5
t34.5 -71.5t49 -44.5t57.5 -15.5q57 0 90 50t33 137zM153 665h232v-66h-232v66z" />
    <glyph glyph-name="racute" unicode="&#x155;" horiz-adv-x="375" 
d="M39 0v44l44 5v365l-41 4v41l108 52q16 8 16 -14v-99q7 15 19 34.5t28.5 37.5t37.5 30t46 12q36 0 49 -15q1 -10 0 -26.5t-3 -34.5t-4.5 -33.5t-3.5 -24.5t-19 -9q-12 0 -16.5 2.5t-4.5 7.5q-2 22 -8.5 39.5t-28.5 17.5q-12 0 -27.5 -12t-30 -31t-24.5 -42.5t-10 -47.5
v-254l54 -5v-44h-181zM189 659q20 38 35.5 56.5t42.5 18.5q22 0 34 -15t12 -35q0 -19 -15.5 -33.5t-46.5 -34.5l-75 -50l-26 22z" />
    <glyph glyph-name="rcaron" unicode="&#x159;" horiz-adv-x="375" 
d="M39 0v44l44 5v365l-41 4v41l108 52q16 8 16 -14v-99q7 15 19 34.5t28.5 37.5t37.5 30t46 12q36 0 49 -15q1 -10 0 -26.5t-3 -34.5t-4.5 -33.5t-3.5 -24.5t-19 -9q-12 0 -16.5 2.5t-4.5 7.5q-2 22 -8.5 39.5t-28.5 17.5q-12 0 -27.5 -12t-30 -31t-24.5 -42.5t-10 -47.5
v-254l54 -5v-44h-181zM245 598q-8 -10 -16.5 -16.5t-21.5 -6.5t-21.5 6.5t-16.5 16.5l-84 99l23 26l99 -54l99 54l23 -26l-84 -99v0z" />
    <glyph glyph-name="rcommaaccent" unicode="&#x157;" horiz-adv-x="375" 
d="M39 0v44l44 5v365l-41 4v41l108 52q16 8 16 -14v-99q7 15 19 34.5t28.5 37.5t37.5 30t46 12q36 0 49 -15q1 -10 0 -26.5t-3 -34.5t-4.5 -33.5t-3.5 -24.5t-19 -9q-12 0 -16.5 2.5t-4.5 7.5q-2 22 -8.5 39.5t-28.5 17.5q-12 0 -27.5 -12t-30 -31t-24.5 -42.5t-10 -47.5
v-254l54 -5v-44h-181zM103 -240q-11 0 -11 11q0 6 2.5 10t7 10t10.5 14.5t12 22.5h-2q-27 0 -40.5 15t-13.5 36q0 22 16.5 37.5t39.5 15.5q26 0 42.5 -18.5t16.5 -52.5q0 -20 -7.5 -38t-19 -32t-26 -22.5t-27.5 -8.5z" />
    <glyph glyph-name="sacute" unicode="&#x15b;" horiz-adv-x="436" 
d="M73 -7q-3 10 -8 31t-11 45t-11 46.5t-7 34.5q-2 10 3 16.5t13 6.5q13 0 18 -14q10 -25 25.5 -47.5t34.5 -39t41.5 -26.5t46.5 -10q56 0 85.5 24t29.5 65q0 38 -23 59.5t-66 35.5l-81 27q-25 8 -47 21t-38.5 30.5t-26 39.5t-9.5 49q0 54 41 89.5t113 35.5q26 0 46 -6.5
t31 -15.5l16 20q8 10 16 10q7 0 10 -8t7.5 -23t10 -32t10.5 -35t8 -31q2 -8 -3.5 -13.5t-14.5 -5.5q-7 0 -13 8q-8 10 -21 25t-30 28t-38 22.5t-46 9.5q-29 0 -51 -15t-22 -44q0 -32 22.5 -48.5t65.5 -31.5l80 -28q60 -21 91.5 -59.5t31.5 -94.5q0 -70 -46.5 -113.5
t-139.5 -43.5q-35 0 -62.5 9.5t-38.5 19.5l-15 -20q-9 -11 -17 -11q-9 0 -11 8zM175 659q20 38 35.5 56.5t42.5 18.5q22 0 34 -15t12 -35q0 -19 -15.5 -33.5t-46.5 -34.5l-75 -50l-26 22z" />
    <glyph glyph-name="scedilla" unicode="&#x15f;" horiz-adv-x="436" 
d="M73 -7q-3 10 -8 31t-11 45t-11 46.5t-7 34.5q-2 10 3 16.5t13 6.5q13 0 18 -14q10 -25 25.5 -47.5t34.5 -39t41.5 -26.5t46.5 -10q56 0 85.5 24t29.5 65q0 38 -23 59.5t-66 35.5l-81 27q-25 8 -47 21t-38.5 30.5t-26 39.5t-9.5 49q0 54 41 89.5t113 35.5q26 0 46 -6.5
t31 -15.5l16 20q8 10 16 10q7 0 10 -8t7.5 -23t10 -32t10.5 -35t8 -31q2 -8 -3.5 -13.5t-14.5 -5.5q-7 0 -13 8q-8 10 -21 25t-30 28t-38 22.5t-46 9.5q-29 0 -51 -15t-22 -44q0 -32 22.5 -48.5t65.5 -31.5l80 -28q60 -21 91.5 -59.5t31.5 -94.5q0 -70 -46.5 -113.5
t-139.5 -43.5q-35 0 -62.5 9.5t-38.5 19.5l-15 -20q-9 -11 -17 -11q-9 0 -11 8zM222 0l-31 -62q7 2 14.5 3.5t18.5 1.5q37 0 60.5 -19.5t23.5 -61.5q0 -40 -29.5 -64t-81.5 -24q-38 0 -64.5 12.5t-39.5 24.5l26 43q12 -11 31.5 -21.5t44.5 -10.5q21 0 32.5 11t11.5 29
q0 19 -11 29t-31 10q-15 0 -25 -4t-21 -4q-14 0 -19 10t2 24l35 73h53z" />
    <glyph glyph-name="scircumflex" unicode="&#x15d;" horiz-adv-x="436" 
d="M73 -7q-3 10 -8 31t-11 45t-11 46.5t-7 34.5q-2 10 3 16.5t13 6.5q13 0 18 -14q10 -25 25.5 -47.5t34.5 -39t41.5 -26.5t46.5 -10q56 0 85.5 24t29.5 65q0 38 -23 59.5t-66 35.5l-81 27q-25 8 -47 21t-38.5 30.5t-26 39.5t-9.5 49q0 54 41 89.5t113 35.5q26 0 46 -6.5
t31 -15.5l16 20q8 10 16 10q7 0 10 -8t7.5 -23t10 -32t10.5 -35t8 -31q2 -8 -3.5 -13.5t-14.5 -5.5q-7 0 -13 8q-8 10 -21 25t-30 28t-38 22.5t-46 9.5q-29 0 -51 -15t-22 -44q0 -32 22.5 -48.5t65.5 -31.5l80 -28q60 -21 91.5 -59.5t31.5 -94.5q0 -70 -46.5 -113.5
t-139.5 -43.5q-35 0 -62.5 9.5t-38.5 19.5l-15 -20q-9 -11 -17 -11q-9 0 -11 8zM292 574l-99 54l-99 -54l-23 26l84 99q8 10 16.5 16.5t21.5 6.5t21.5 -6.5t16.5 -16.5l84 -99z" />
    <glyph glyph-name="scommaaccent" unicode="&#x219;" horiz-adv-x="436" 
d="M73 -7q-3 10 -8 31t-11 45t-11 46.5t-7 34.5q-2 10 3 16.5t13 6.5q13 0 18 -14q10 -25 25.5 -47.5t34.5 -39t41.5 -26.5t46.5 -10q56 0 85.5 24t29.5 65q0 38 -23 59.5t-66 35.5l-81 27q-25 8 -47 21t-38.5 30.5t-26 39.5t-9.5 49q0 54 41 89.5t113 35.5q26 0 46 -6.5
t31 -15.5l16 20q8 10 16 10q7 0 10 -8t7.5 -23t10 -32t10.5 -35t8 -31q2 -8 -3.5 -13.5t-14.5 -5.5q-7 0 -13 8q-8 10 -21 25t-30 28t-38 22.5t-46 9.5q-29 0 -51 -15t-22 -44q0 -32 22.5 -48.5t65.5 -31.5l80 -28q60 -21 91.5 -59.5t31.5 -94.5q0 -70 -46.5 -113.5
t-139.5 -43.5q-35 0 -62.5 9.5t-38.5 19.5l-15 -20q-9 -11 -17 -11q-9 0 -11 8zM195 -240q-11 0 -11 11q0 6 2.5 10t7 10t10.5 14.5t12 22.5h-2q-27 0 -40.5 15t-13.5 36q0 22 16.5 37.5t39.5 15.5q26 0 42.5 -18.5t16.5 -52.5q0 -20 -7.5 -38t-19 -32t-26 -22.5t-27.5 -8.5
z" />
    <glyph glyph-name="tbar" unicode="&#x167;" horiz-adv-x="332" 
d="M25 351h61v99h-59v27q44 22 67 61.5t46 96.5q3 8 6 11.5t11 3.5q12 0 12 -15v-135h117v-50h-117v-99h117v-50h-117v-203q0 -21 11 -35.5t35 -14.5q23 0 39.5 12t26.5 25l33 -30q-14 -24 -44 -45.5t-78 -21.5q-53 0 -79.5 28.5t-26.5 70.5v214h-61v50z" />
    <glyph glyph-name="tcaron" unicode="&#x165;" horiz-adv-x="332" 
d="M314 55q-14 -24 -44 -45.5t-78 -21.5q-53 0 -79.5 28.5t-26.5 70.5v363h-59v27q44 22 67 61.5t46 96.5q3 8 6 11.5t11 3.5q12 0 12 -15v-135h117v-50h-117v-352q0 -21 11 -35.5t35 -14.5q23 0 39.5 12t26.5 25l33 -30v0zM232 656q4 38 14 60.5t39 22.5q18 0 28.5 -11
t10.5 -30q0 -14 -6.5 -30.5t-19.5 -39.5l-44 -78l-32 9z" />
    <glyph glyph-name="tcommaaccent" unicode="&#x163;" horiz-adv-x="332" 
d="M314 55q-14 -24 -44 -45.5t-78 -21.5q-53 0 -79.5 28.5t-26.5 70.5v363h-59v27q44 22 67 61.5t46 96.5q3 8 6 11.5t11 3.5q12 0 12 -15v-135h117v-50h-117v-352q0 -21 11 -35.5t35 -14.5q23 0 39.5 12t26.5 25l33 -30v0zM157 -240q-11 0 -11 11q0 6 2.5 10t7 10
t10.5 14.5t12 22.5h-2q-27 0 -40.5 15t-13.5 36q0 22 16.5 37.5t39.5 15.5q26 0 42.5 -18.5t16.5 -52.5q0 -20 -7.5 -38t-19 -32t-26 -22.5t-27.5 -8.5z" />
    <glyph glyph-name="uni021B" unicode="&#x21b;" horiz-adv-x="332" 
d="M314 55q-14 -24 -44 -45.5t-78 -21.5q-53 0 -79.5 28.5t-26.5 70.5v363h-59v27q44 22 67 61.5t46 96.5q3 8 6 11.5t11 3.5q12 0 12 -15v-135h117v-50h-117v-352q0 -21 11 -35.5t35 -14.5q23 0 39.5 12t26.5 25l33 -30v0zM157 -240q-11 0 -11 11q0 6 2.5 10t7 10
t10.5 14.5t12 22.5h-2q-27 0 -40.5 15t-13.5 36q0 22 16.5 37.5t39.5 15.5q26 0 42.5 -18.5t16.5 -52.5q0 -20 -7.5 -38t-19 -32t-26 -22.5t-27.5 -8.5z" />
    <glyph glyph-name="ubreve" unicode="&#x16d;" 
d="M501 44v-44h-124v55q-4 -6 -13.5 -17.5t-25.5 -22.5t-39.5 -19t-55.5 -8q-38 0 -68.5 12t-52 33.5t-33 50.5t-11.5 63v266l-41 5v41l104 50q20 9 20 -12v-339q0 -51 30 -84t78 -33q25 0 45 8.5t34 22t21.5 31t7.5 36.5v274l-47 5v41l107 50q20 9 20 -12v-449zM276 648
q33 0 48.5 17.5t20.5 33.5l39 -9q0 -18 -6 -38.5t-18.5 -37t-33 -27.5t-50.5 -11t-50.5 11t-33 27.5t-18.5 37t-6 38.5l39 9q5 -16 20.5 -33.5t48.5 -17.5z" />
    <glyph glyph-name="uhungarumlaut" unicode="&#x171;" 
d="M501 44v-44h-124v55q-4 -6 -13.5 -17.5t-25.5 -22.5t-39.5 -19t-55.5 -8q-38 0 -68.5 12t-52 33.5t-33 50.5t-11.5 63v266l-41 5v41l104 50q20 9 20 -12v-339q0 -51 30 -84t78 -33q25 0 45 8.5t34 22t21.5 31t7.5 36.5v274l-47 5v41l107 50q20 9 20 -12v-449zM195 656
q14 49 26.5 70t38.5 21q20 0 31.5 -12t11.5 -32q0 -14 -10.5 -32t-36.5 -44l-50 -50l-29 15zM347 656q14 50 26.5 70.5t38.5 20.5q20 0 31.5 -12t11.5 -32q0 -14 -10.5 -32t-36.5 -44l-50 -50l-29 15z" />
    <glyph glyph-name="umacron" unicode="&#x16b;" 
d="M501 44v-44h-124v55q-4 -6 -13.5 -17.5t-25.5 -22.5t-39.5 -19t-55.5 -8q-38 0 -68.5 12t-52 33.5t-33 50.5t-11.5 63v266l-41 5v41l104 50q20 9 20 -12v-339q0 -51 30 -84t78 -33q25 0 45 8.5t34 22t21.5 31t7.5 36.5v274l-47 5v41l107 50q20 9 20 -12v-449zM160 665
h232v-66h-232v66z" />
    <glyph glyph-name="uogonek" unicode="&#x173;" 
d="M501 44v-44h-70q-30 -27 -48.5 -51t-18.5 -45q0 -16 9.5 -26.5t28.5 -10.5q18 0 32 9.5t23 18.5l29 -26q-5 -8 -12.5 -19.5t-20 -22t-30 -18t-41.5 -7.5q-43 0 -66.5 24.5t-23.5 58.5q0 20 7.5 37t20 31t27.5 26t30 23v53q-4 -6 -13.5 -17.5t-25.5 -22.5t-39.5 -19
t-55.5 -8q-38 0 -68.5 12t-52 33.5t-33 50.5t-11.5 63v266l-41 5v41l104 50q20 9 20 -12v-339q0 -51 30 -84t78 -33q25 0 45 8.5t34 22t21.5 31t7.5 36.5v274l-47 5v41l107 50q20 9 20 -12v-449z" />
    <glyph glyph-name="uring" unicode="&#x16f;" 
d="M501 44v-44h-124v55q-4 -6 -13.5 -17.5t-25.5 -22.5t-39.5 -19t-55.5 -8q-38 0 -68.5 12t-52 33.5t-33 50.5t-11.5 63v266l-41 5v41l104 50q20 9 20 -12v-339q0 -51 30 -84t78 -33q25 0 45 8.5t34 22t21.5 31t7.5 36.5v274l-47 5v41l107 50q20 9 20 -12v-449zM276 759
q21 0 39 -7.5t31.5 -20.5t21.5 -30.5t8 -37.5t-8 -37.5t-21.5 -30.5t-31.5 -20t-39 -7q-42 0 -71 27t-29 68q0 20 7.5 37.5t21 30.5t32 20.5t39.5 7.5zM276 717q-20 0 -32.5 -16t-12.5 -38t12.5 -37.5t32.5 -15.5t32.5 15.5t12.5 37.5t-12.5 38t-32.5 16z" />
    <glyph glyph-name="utilde" unicode="&#x169;" 
d="M501 44v-44h-124v55q-4 -6 -13.5 -17.5t-25.5 -22.5t-39.5 -19t-55.5 -8q-38 0 -68.5 12t-52 33.5t-33 50.5t-11.5 63v266l-41 5v41l104 50q20 9 20 -12v-339q0 -51 30 -84t78 -33q25 0 45 8.5t34 22t21.5 31t7.5 36.5v274l-47 5v41l107 50q20 9 20 -12v-449zM230 617
q-14 0 -24 -10t-17 -24l-36 12q5 42 25 69t49 27q17 0 29 -4.5t28 -12.5q14 -6 21.5 -9t17.5 -3q14 0 23.5 9t17.5 25l36 -12q-5 -43 -25 -69.5t-50 -26.5q-17 0 -28 4t-27 12q-14 7 -21.5 10t-18.5 3z" />
    <glyph glyph-name="wacute" unicode="&#x1e83;" horiz-adv-x="720" 
d="M46 452l-37 4v44h179v-44l-54 -4l106 -328l94 289l-13 39l-46 4v44h185v-44l-54 -4l105 -329l107 329l-54 4v44h147v-44l-37 -4l-143 -438q-4 -11 -10.5 -18.5t-20.5 -7.5t-20.5 7.5t-10.5 18.5l-108 318l-102 -318q-4 -11 -11 -18.5t-21 -7.5t-21 7.5t-11 18.5zM353 659
q20 38 35.5 56.5t42.5 18.5q22 0 34 -15t12 -35q0 -19 -15.5 -33.5t-46.5 -34.5l-75 -50l-26 22z" />
    <glyph glyph-name="wcircumflex" unicode="&#x175;" horiz-adv-x="720" 
d="M46 452l-37 4v44h179v-44l-54 -4l106 -328l94 289l-13 39l-46 4v44h185v-44l-54 -4l105 -329l107 329l-54 4v44h147v-44l-37 -4l-143 -438q-4 -11 -10.5 -18.5t-20.5 -7.5t-20.5 7.5t-10.5 18.5l-108 318l-102 -318q-4 -11 -11 -18.5t-21 -7.5t-21 7.5t-11 18.5zM470 574
l-99 54l-99 -54l-23 26l84 99q8 10 16.5 16.5t21.5 6.5t21.5 -6.5t16.5 -16.5l84 -99z" />
    <glyph glyph-name="wdieresis" unicode="&#x1e85;" horiz-adv-x="720" 
d="M46 452l-37 4v44h179v-44l-54 -4l106 -328l94 289l-13 39l-46 4v44h185v-44l-54 -4l105 -329l107 329l-54 4v44h147v-44l-37 -4l-143 -438q-4 -11 -10.5 -18.5t-20.5 -7.5t-20.5 7.5t-10.5 18.5l-108 318l-102 -318q-4 -11 -11 -18.5t-21 -7.5t-21 7.5t-11 18.5zM281 587
q-26 0 -42.5 17.5t-16.5 41.5t16.5 41.5t42.5 17.5q25 0 42 -17.5t17 -41.5t-17 -41.5t-42 -17.5zM461 587q-26 0 -42.5 17.5t-16.5 41.5t16.5 41.5t42.5 17.5q25 0 42 -17.5t17 -41.5t-17 -41.5t-42 -17.5z" />
    <glyph glyph-name="wgrave" unicode="&#x1e81;" horiz-adv-x="720" 
d="M46 452l-37 4v44h179v-44l-54 -4l106 -328l94 289l-13 39l-46 4v44h185v-44l-54 -4l105 -329l107 329l-54 4v44h147v-44l-37 -4l-143 -438q-4 -11 -10.5 -18.5t-20.5 -7.5t-20.5 7.5t-10.5 18.5l-108 318l-102 -318q-4 -11 -11 -18.5t-21 -7.5t-21 7.5t-11 18.5zM408 566
l-75 50q-31 20 -46.5 34.5t-15.5 33.5q0 20 12 35t34 15q27 0 42.5 -18.5t35.5 -56.5l39 -71z" />
    <glyph glyph-name="ycircumflex" unicode="&#x177;" horiz-adv-x="490" 
d="M271 -5q-20 -53 -39.5 -90.5t-40.5 -61t-44 -34.5t-51 -11q-27 0 -43.5 13t-16.5 34q0 18 11.5 31t32.5 13q16 0 28 -4t24 -4q10 0 19.5 5t20 18.5t22.5 38t27 63.5l-178 446l-37 4v44h182v-44l-54 -4l128 -339l127 339l-54 4v44h148v-44l-37 -4l-175 -457v0zM358 574
l-99 54l-99 -54l-23 26l84 99q8 10 16.5 16.5t21.5 6.5t21.5 -6.5t16.5 -16.5l84 -99z" />
    <glyph glyph-name="ygrave" unicode="&#x1ef3;" horiz-adv-x="490" 
d="M271 -5q-20 -53 -39.5 -90.5t-40.5 -61t-44 -34.5t-51 -11q-27 0 -43.5 13t-16.5 34q0 18 11.5 31t32.5 13q16 0 28 -4t24 -4q10 0 19.5 5t20 18.5t22.5 38t27 63.5l-178 446l-37 4v44h182v-44l-54 -4l128 -339l127 339l-54 4v44h148v-44l-37 -4l-175 -457v0zM296 566
l-75 50q-31 20 -46.5 34.5t-15.5 33.5q0 20 12 35t34 15q27 0 42.5 -18.5t35.5 -56.5l39 -71z" />
    <glyph glyph-name="zacute" unicode="&#x17a;" horiz-adv-x="462" 
d="M444 135q0 -12 -4.5 -30.5t-11 -38t-15 -37t-16.5 -29.5h-350q-19 0 -23.5 14t6.5 28l282 411h-87q-31 0 -52.5 -3t-37.5 -10t-29.5 -19.5t-29.5 -30.5q-6 -7 -9.5 -10.5t-11.5 -3.5q-9 0 -13.5 6.5t-2.5 18.5t6.5 25.5t10.5 27t12 25.5t12 21h313q19 0 23 -14t-6 -28
l-283 -408h130q30 0 51.5 4.5t38 15.5t30.5 28.5t30 43.5q5 8 9 11.5t12 3.5q16 0 16 -22zM215 659q20 38 35.5 56.5t42.5 18.5q22 0 34 -15t12 -35q0 -19 -15.5 -33.5t-46.5 -34.5l-75 -50l-26 22z" />
    <glyph glyph-name="zdotaccent" unicode="&#x17c;" horiz-adv-x="462" 
d="M444 135q0 -12 -4.5 -30.5t-11 -38t-15 -37t-16.5 -29.5h-350q-19 0 -23.5 14t6.5 28l282 411h-87q-31 0 -52.5 -3t-37.5 -10t-29.5 -19.5t-29.5 -30.5q-6 -7 -9.5 -10.5t-11.5 -3.5q-9 0 -13.5 6.5t-2.5 18.5t6.5 25.5t10.5 27t12 25.5t12 21h313q19 0 23 -14t-6 -28
l-283 -408h130q30 0 51.5 4.5t38 15.5t30.5 28.5t30 43.5q5 8 9 11.5t12 3.5q16 0 16 -22zM233 587q-26 0 -44 18.5t-18 43.5t17.5 43.5t44.5 18.5q26 0 44 -18.5t18 -43.5t-18 -43.5t-44 -18.5z" />
    <glyph glyph-name="oneeighth" unicode="&#x215b;" horiz-adv-x="715" 
d="M30 519v49l81 104q10 14 25 14q17 0 17 -20v-349l39 -3v-32h-151v32l39 3v261zM686 113q0 -55 -39.5 -88t-102.5 -33q-68 0 -106 30t-38 73q0 41 24.5 67t59.5 40q-31 16 -49.5 40.5t-18.5 60.5q0 47 35.5 75.5t89.5 28.5q52 0 88.5 -23.5t36.5 -66.5q0 -33 -20.5 -54
t-51.5 -34q43 -20 67.5 -46.5t24.5 -69.5zM479 318q0 -21 16.5 -39.5t66.5 -36.5q19 10 31.5 27t12.5 40q0 32 -19 47t-46 15q-26 0 -44 -13.5t-18 -39.5zM464 105q0 -33 22.5 -53.5t57.5 -20.5q36 0 55.5 18.5t19.5 46.5q0 32 -25.5 52.5t-79.5 40.5q-23 -14 -36.5 -36
t-13.5 -48zM60 0l459 682h58l-460 -682h-57z" />
    <glyph glyph-name="onethird" unicode="&#x2153;" horiz-adv-x="711" 
d="M30 519v49l81 104q10 14 25 14q17 0 17 -20v-349l39 -3v-32h-151v32l39 3v261zM525 -7q-51 0 -85 24t-34 68q0 32 16 47.5t36 15.5q34 0 34 -31q0 -12 -5.5 -18t-12.5 -10t-12.5 -8.5t-5.5 -11.5q0 -17 17.5 -28t45.5 -11q40 0 62 24t22 66q0 44 -20.5 66t-57.5 22
q-13 0 -21 -2.5t-15 -2.5q-9 0 -12.5 8t4.5 16l116 120h-58q-20 0 -33.5 -1t-23.5 -3.5t-17.5 -7.5t-14.5 -13q-4 -4 -6.5 -6t-8.5 -2q-5 0 -9 3.5t-2 11.5q2 14 8.5 35t13.5 36h214q17 0 17 -13q0 -8 -5 -15.5t-13 -15.5l-115 -114q29 1 54.5 -6.5t44 -22t29.5 -36
t11 -49.5q0 -57 -41 -96t-117 -39zM60 0l459 682h58l-460 -682h-57z" />
    <glyph glyph-name="threeeighths" unicode="&#x215c;" horiz-adv-x="754" 
d="M140 275q-51 0 -85 24t-34 68q0 32 16 47.5t36 15.5q34 0 34 -31q0 -12 -5.5 -18t-12.5 -10t-12.5 -8.5t-5.5 -11.5q0 -17 17.5 -28t45.5 -11q40 0 62 24t22 66q0 44 -20.5 66t-57.5 22q-13 0 -21 -2.5t-15 -2.5q-9 0 -12.5 8t4.5 16l116 120h-58q-20 0 -33.5 -1
t-23.5 -3.5t-17.5 -7.5t-14.5 -13q-4 -4 -6.5 -6t-8.5 -2q-5 0 -9 3.5t-2 11.5q2 14 8.5 35t13.5 36h214q17 0 17 -13q0 -8 -5 -15.5t-13 -15.5l-115 -114q29 1 54.5 -6.5t44 -22t29.5 -36t11 -49.5q0 -57 -41 -96t-117 -39zM761 113q0 -55 -39.5 -88t-102.5 -33
q-68 0 -106 30t-38 73q0 41 24.5 67t59.5 40q-31 16 -49.5 40.5t-18.5 60.5q0 47 35.5 75.5t89.5 28.5q52 0 88.5 -23.5t36.5 -66.5q0 -33 -20.5 -54t-51.5 -34q43 -20 67.5 -46.5t24.5 -69.5zM554 318q0 -21 16.5 -39.5t66.5 -36.5q19 10 31.5 27t12.5 40q0 32 -19 47
t-46 15q-26 0 -44 -13.5t-18 -39.5zM539 105q0 -33 22.5 -53.5t57.5 -20.5q36 0 55.5 18.5t19.5 46.5q0 32 -25.5 52.5t-79.5 40.5q-23 -14 -36.5 -36t-13.5 -48zM133 0l459 682h58l-460 -682h-57z" />
    <glyph glyph-name="fiveeighths" unicode="&#x215d;" horiz-adv-x="749" 
d="M756 113q0 -55 -39.5 -88t-102.5 -33q-68 0 -106 30t-38 73q0 41 24.5 67t59.5 40q-31 16 -49.5 40.5t-18.5 60.5q0 47 35.5 75.5t89.5 28.5q52 0 88.5 -23.5t36.5 -66.5q0 -33 -20.5 -54t-51.5 -34q43 -20 67.5 -46.5t24.5 -69.5zM549 318q0 -21 16.5 -39.5t66.5 -36.5
q19 10 31.5 27t12.5 40q0 32 -19 47t-46 15q-26 0 -44 -13.5t-18 -39.5zM534 105q0 -33 22.5 -53.5t57.5 -20.5q36 0 55.5 18.5t19.5 46.5q0 32 -25.5 52.5t-79.5 40.5q-23 -14 -36.5 -36t-13.5 -48zM128 0l459 682h58l-460 -682h-57zM137 312q36 0 57.5 27t21.5 74
q0 49 -20.5 72t-56.5 23q-23 0 -39 -7.5t-24 -13.5q-8 -5 -16 -1.5t-6 14.5l40 172q2 10 15 10h91q16 0 25.5 1t16 2.5t10 4t7.5 6.5q6 5 9.5 8t8.5 3q12 0 11 -14q-2 -10 -7.5 -30.5t-12.5 -36.5h-145l-21 -92q11 5 24.5 8t31.5 3q68 0 103 -34.5t35 -89.5q0 -32 -11 -58.5
t-31 -46t-48 -30.5t-62 -11q-56 0 -89.5 26t-33.5 68q0 32 16 47.5t36 15.5q17 0 25.5 -8.5t8.5 -22.5q0 -11 -5.5 -17.5t-12 -11t-12 -9t-5.5 -11.5q0 -17 17.5 -28.5t47.5 -11.5z" />
    <glyph glyph-name="twothirds" unicode="&#x2154;" horiz-adv-x="787" 
d="M601 -7q-51 0 -85 24t-34 68q0 32 16 47.5t36 15.5q34 0 34 -31q0 -12 -5.5 -18t-12.5 -10t-12.5 -8.5t-5.5 -11.5q0 -17 17.5 -28t45.5 -11q40 0 62 24t22 66q0 44 -20.5 66t-57.5 22q-13 0 -21 -2.5t-15 -2.5q-9 0 -12.5 8t4.5 16l116 120h-58q-20 0 -33.5 -1
t-23.5 -3.5t-17.5 -7.5t-14.5 -13q-4 -4 -6.5 -6t-8.5 -2q-5 0 -9 3.5t-2 11.5q2 14 8.5 35t13.5 36h214q17 0 17 -13q0 -8 -5 -15.5t-13 -15.5l-115 -114q29 1 54.5 -6.5t44 -22t29.5 -36t11 -49.5q0 -57 -41 -96t-117 -39zM136 0l459 682h58l-460 -682h-57zM156 689
q68 0 101.5 -31t33.5 -82q0 -25 -9 -46t-24 -39t-35.5 -34t-43.5 -32q-32 -22 -57 -42t-38 -46h92q38 0 56.5 8.5t33.5 28.5q7 11 15 11q14 0 13 -19q-2 -17 -8 -42.5t-12 -41.5h-227q-9 0 -13.5 2.5t-4.5 12.5q1 22 10.5 42t25 39t34.5 37t39 36q33 30 53 61t20 69
q0 34 -17.5 53t-48.5 19q-28 0 -45 -13t-17 -30q0 -9 6.5 -13.5t14 -9t14 -11.5t6.5 -19q0 -15 -9.5 -24.5t-25.5 -9.5q-20 0 -37.5 16t-17.5 51q0 22 9.5 40t26 31t38.5 20.5t48 7.5z" />
    <glyph glyph-name="seveneighths" unicode="&#x215e;" horiz-adv-x="675" 
d="M682 113q0 -55 -39.5 -88t-102.5 -33q-68 0 -106 30t-38 73q0 41 24.5 67t59.5 40q-31 16 -49.5 40.5t-18.5 60.5q0 47 35.5 75.5t89.5 28.5q52 0 88.5 -23.5t36.5 -66.5q0 -33 -20.5 -54t-51.5 -34q43 -20 67.5 -46.5t24.5 -69.5zM475 318q0 -21 16.5 -39.5t66.5 -36.5
q19 10 31.5 27t12.5 40q0 32 -19 47t-46 15q-26 0 -44 -13.5t-18 -39.5zM460 105q0 -33 22.5 -53.5t57.5 -20.5q36 0 55.5 18.5t19.5 46.5q0 32 -25.5 52.5t-79.5 40.5q-23 -14 -36.5 -36t-13.5 -48zM54 0l459 682h58l-460 -682h-57zM59 282l174 345h-104q-17 0 -29 -1.5
t-21 -4.5t-16 -8t-15 -13q-4 -4 -7 -6t-8 -2q-13 0 -11 16q2 14 8 35.5t14 38.5h217q13 0 15.5 -4.5t-1.5 -14.5l-130 -381h-86z" />
    <glyph glyph-name="dollar.tab" 
d="M289 766v-76q48 -2 82 -13.5t55.5 -27t31.5 -33t10 -31.5q0 -20 -10.5 -33.5t-32.5 -13.5q-21 0 -31.5 13.5t-22 31t-29.5 33.5t-53 21v-227l40 -18q41 -18 72.5 -37t53.5 -42t33 -51.5t11 -65.5q0 -86 -52 -142t-158 -62v-83h-49v83q-52 3 -89.5 16.5t-62 31.5t-36 38.5
t-11.5 36.5q0 21 11.5 35t34.5 14q19 0 30 -8t18 -20.5t13 -27.5t17 -28.5t28 -24t47 -13.5v296l-21 9q-34 15 -62 31.5t-47.5 37t-30.5 46.5t-11 60t12.5 62.5t35.5 50t54.5 35.5t69.5 18v78h49zM144 544q0 -34 21.5 -60t74.5 -52v205q-47 -5 -71.5 -28t-24.5 -65zM418 173
q0 51 -33 83.5t-96 60.5v-275q67 5 98 39.5t31 91.5z" />
    <glyph glyph-name="cent.tab" 
d="M314 602v-90q44 0 76 -9t52.5 -23t30 -31.5t9.5 -35.5t-12 -30t-32 -12q-19 0 -30 13t-22.5 29.5t-27.5 31.5t-44 19v-418q30 1 53.5 9.5t41 20t30.5 24.5l22 22l34 -33q-9 -12 -23.5 -29t-37 -32.5t-52 -27t-68.5 -12.5v-79h-49v82q-46 7 -83 29t-62.5 56t-39 78.5
t-13.5 95.5q0 50 14.5 93.5t40.5 77.5t62.5 56.5t80.5 30.5v94h49zM161 260q0 -78 28 -132.5t76 -73.5v406q-45 -14 -74.5 -66t-29.5 -134z" />
    <glyph glyph-name="Euro.tab" 
d="M25 300h66q-1 8 -1 16v16q0 14 0.5 26.5t1.5 25.5h-67v50h74q12 59 35.5 107t55.5 82t71 52.5t81 18.5q78 0 117 -27.5t39 -63.5q0 -20 -11.5 -33.5t-33.5 -13.5q-23 0 -34 13t-21 29t-24 29t-42 13q-57 0 -95.5 -56t-49.5 -150h168v-50h-172v-21q0 -17 0.5 -32.5
t1.5 -30.5h170v-50h-166q11 -95 48.5 -146t112.5 -51q41 0 70 14.5t51 33.5l31 -38q-26 -29 -68 -52t-99 -23q-105 0 -165 70t-75 192h-70v50z" />
    <glyph glyph-name="sterling.tab" 
d="M40 305h115q-9 24 -23.5 46.5t-27.5 46.5t-22.5 51t-9.5 60q0 41 15.5 75t44 58.5t68.5 38t88 13.5q43 0 79 -10t62 -29t40 -46.5t14 -63.5q0 -31 -7.5 -53t-19.5 -36.5t-27 -21.5t-29 -7q-23 0 -37 12.5t-14 34.5q0 19 10 29t22 17t22 14.5t10 21.5q0 37 -34 60.5
t-88 23.5q-64 0 -97 -36t-33 -90q0 -27 9.5 -52.5t22 -51t25.5 -51.5t20 -54h157v-50h-151q-1 -34 -11.5 -62.5t-26.5 -52t-34.5 -42t-36.5 -31.5h193q59 0 91 14t54 43q5 6 8.5 10t11.5 4t12.5 -5.5t2.5 -19.5q-4 -23 -12 -53.5t-18 -59.5h-420q-19 0 -21.5 11.5t7.5 20.5
q55 51 88 101.5t33 115.5v6h-125v50z" />
    <glyph glyph-name="yen.tab" 
d="M78 214h154v84h-154v50h137l-148 284l-40 4v46h191v-46l-48 -4l122 -248l120 248l-50 4v46h151v-46l-40 -4l-140 -284h140v-50h-153v-84h153v-50h-153v-114l49 -4v-46h-186v46l49 4v114h-154v50z" />
    <glyph glyph-name="florin.tab" 
d="M186 392h-78l7 50h78l13 89q7 51 26.5 90.5t47 65.5t63 39.5t75.5 13.5q36 0 52 -14t16 -36q0 -20 -13.5 -32t-35.5 -12q-15 0 -25 6t-18 12.5t-15 12.5t-17 6q-22 0 -39.5 -26t-25.5 -83l-19 -132h94l-7 -50h-95l-56 -385q-15 -103 -68.5 -156t-134.5 -53
q-32 0 -48.5 13t-16.5 34q0 18 12.5 30t32.5 12q13 0 22 -5t17 -11t16 -11t18 -5q20 0 35.5 25t23.5 84z" />
    <glyph glyph-name="zero.tab" 
d="M41 342q0 75 18 139.5t49 112t72.5 74t88.5 26.5q55 0 97.5 -26.5t72 -74t45 -112t15.5 -139.5q0 -76 -16 -141t-46 -112t-71.5 -74t-92.5 -27t-93.5 26.5t-73.5 74t-48 112t-17 141.5zM403 305q0 75 -8.5 137t-26 106.5t-45 68.5t-64.5 24q-29 0 -51.5 -19t-38 -53.5
t-23.5 -83t-8 -106.5q0 -75 9.5 -137.5t28 -106.5t46 -68.5t63.5 -24.5q30 0 52 19.5t37 54t22 83t7 106.5z" />
    <glyph glyph-name="one.tab" 
d="M118 451v63l143 151q11 11 18 17t17 6q9 0 16 -6.5t7 -23.5v-608l119 -4v-46h-323v46l119 4v516z" />
    <glyph glyph-name="two.tab" 
d="M261 694q108 0 162 -52.5t54 -139.5q0 -39 -14.5 -73.5t-39 -65.5t-57.5 -59.5t-70 -56.5q-59 -44 -106 -87t-67 -93h171q59 0 91 14t54 43q5 6 8.5 10t11.5 4t12.5 -5.5t2.5 -19.5q-4 -23 -12 -53.5t-18 -59.5h-368q-12 0 -19 4t-6 18q1 40 19 74.5t46 66.5t62 62t69 62
q28 25 52 51t42 54t28.5 58t10.5 64q0 54 -31 90t-91 36q-56 0 -89 -26.5t-33 -62.5q0 -13 10.5 -20t23 -14t23 -17t10.5 -29q0 -22 -14 -34.5t-37 -12.5q-14 0 -29 5.5t-27 18t-20 33.5t-8 52q0 34 16 63.5t42.5 51.5t61.5 34t73 12z" />
    <glyph glyph-name="three.tab" 
d="M234 -12q-38 0 -73 10t-61.5 29t-42.5 47t-16 64q0 27 7.5 46.5t19 31.5t26 18t28.5 6q26 0 38 -12.5t12 -33.5q0 -17 -9.5 -26t-21 -15.5t-21 -13.5t-9.5 -21q0 -36 35 -56t83 -20q76 0 119.5 44t43.5 119q0 161 -160 161q-23 0 -38.5 -4t-26.5 -4q-13 0 -16.5 10
t4.5 18l220 229h-135q-29 0 -50 -2t-36 -6.5t-26.5 -12.5t-22.5 -20q-5 -5 -9 -8.5t-12 -3.5t-12.5 5t-2.5 17q4 20 12 46t19 52h360q12 0 16.5 -3.5t4.5 -13.5q0 -17 -27 -44l-200 -203q52 1 95.5 -12.5t74.5 -40t48 -64t17 -84.5q0 -48 -19 -90t-52.5 -73t-80.5 -48.5
t-103 -17.5z" />
    <glyph glyph-name="four.tab" 
d="M465 0h-223v46l69 4v126h-239q-31 0 -31 26v10q0 14 4.5 22.5t14.5 22.5l280 408q8 11 15.5 17t17.5 6q9 0 16 -6.5t7 -23.5v-420h99v-62h-99v-126l69 -4v-46zM311 238v300l-202 -300h202z" />
    <glyph glyph-name="five.tab" 
d="M238 42q34 0 62 13t48 37t31 57.5t11 74.5q0 87 -39.5 129.5t-110.5 42.5q-45 0 -74.5 -14.5t-44.5 -24.5q-14 -9 -24 -3.5t-5 24.5l67 287q2 10 7.5 13.5t17.5 3.5h151q28 0 44.5 1.5t26.5 4.5t16 8t12 13q8 9 13.5 13.5t12.5 4.5q8 0 12.5 -5.5t2.5 -16.5
q-2 -7 -5 -18.5t-6.5 -25t-8 -27.5t-8.5 -25h-244l-43 -183q38 24 101 24q56 0 98 -16t70.5 -44.5t43 -67.5t14.5 -86q0 -54 -18.5 -99.5t-51.5 -78.5t-78 -51.5t-97 -18.5q-43 0 -80 11t-64 31t-42.5 49t-15.5 65q0 51 24.5 76t54.5 25q25 0 37.5 -13t12.5 -33
q0 -17 -9 -26.5t-20.5 -17t-20.5 -15t-9 -20.5q0 -34 36 -56t92 -22z" />
    <glyph glyph-name="six.tab" 
d="M501 230q0 -47 -15.5 -91t-43.5 -77.5t-67.5 -53.5t-88.5 -20q-57 0 -102 24t-76 65.5t-47.5 98t-16.5 121.5q0 93 21.5 167t59.5 125t90.5 78t115.5 27q38 0 64 -6.5t41.5 -17t22 -24t6.5 -27.5q0 -17 -11.5 -30.5t-32.5 -13.5q-18 0 -29 10.5t-22.5 23t-26 23
t-38.5 10.5q-30 0 -58 -16t-51 -52t-40 -93t-24 -139q20 45 61.5 73.5t100.5 28.5q47 0 85.5 -15.5t65.5 -43.5t41.5 -67.5t14.5 -87.5zM143 232q0 -90 38.5 -140t105.5 -50q61 0 90.5 45.5t29.5 120.5q0 39 -7.5 72t-23 57t-40.5 37.5t-60 13.5q-19 0 -42 -7.5t-43.5 -25.5
t-34 -48t-13.5 -75z" />
    <glyph glyph-name="seven.tab" 
d="M129 0l301 610h-202q-29 0 -49.5 -2t-35.5 -7t-26.5 -12.5t-23.5 -19.5q-5 -5 -9 -8.5t-12 -3.5t-12.5 6.5t-2.5 18.5q4 20 12 47.5t19 52.5h377q20 0 24 -7.5t-2 -22.5l-248 -652h-110z" />
    <glyph glyph-name="eight.tab" 
d="M500 192q0 -45 -17 -82.5t-47 -65t-72.5 -42.5t-93.5 -15t-93 14.5t-72.5 39.5t-47 57.5t-16.5 68.5q0 37 11.5 67t31 53.5t45.5 41.5t56 31q-53 25 -82.5 65.5t-29.5 101.5q0 35 14.5 65.5t41 53t62 35.5t77.5 13q38 0 73.5 -11t63 -31t44 -48t16.5 -63
q0 -57 -33.5 -94.5t-87.5 -61.5q72 -30 114 -76.5t42 -116.5zM153 541q0 -18 5 -35t20 -34t43 -34t75 -34q36 16 62.5 46.5t26.5 74.5q0 31 -9.5 53t-26 36.5t-37.5 21t-44 6.5q-21 0 -41.5 -6t-37 -18.5t-26.5 -31.5t-10 -45zM127 181q0 -30 10.5 -55t29 -43.5t45 -28.5
t58.5 -10q69 0 107.5 35t38.5 91q0 57 -43 97t-142 75q-54 -25 -79 -69t-25 -92z" />
    <glyph glyph-name="nine.tab" 
d="M495 379q0 -91 -21 -163.5t-58.5 -123t-90 -77.5t-114.5 -27q-75 0 -117.5 24.5t-42.5 62.5q0 18 12 30.5t32 12.5q21 0 33 -12t24 -26.5t30 -26.5t52 -12q33 0 61.5 16t51 52t38 92.5t22.5 137.5q-20 -45 -61 -73t-100 -28q-47 0 -85.5 15.5t-66 43.5t-42.5 67t-15 86
t14.5 91t42 78t67 54.5t89.5 20.5q59 0 105 -24t77 -66t47 -100t16 -125zM396 450q0 90 -40.5 140t-107.5 50q-30 0 -52 -12.5t-36.5 -34.5t-21.5 -53t-7 -68q0 -38 7.5 -70.5t24 -56.5t41.5 -37.5t60 -13.5q19 0 42 7t43 25t33.5 48t13.5 76z" />
    <glyph glyph-name="percent.tab" horiz-adv-x="750" 
d="M109 10l482 689l44 -31l-483 -689zM34 516q0 38 12.5 70.5t33 56t48 36.5t57.5 13t57.5 -13t48 -36.5t33 -56t12.5 -70.5t-12 -70.5t-32 -55.5t-48 -36t-59 -13q-32 0 -59.5 13t-47.5 36t-32 55.5t-12 70.5zM256 504q0 75 -21.5 109.5t-55.5 34.5q-30 0 -47.5 -31.5
t-17.5 -86.5q0 -69 21 -107t56 -38q32 0 48.5 32.5t16.5 86.5zM414 164q0 38 12.5 70.5t33 56t48 36.5t57.5 13t57.5 -13t48 -36.5t33 -56t12.5 -70.5t-12 -70.5t-32 -55.5t-48 -36t-59 -13q-32 0 -59.5 13t-47.5 36t-32 55.5t-12 70.5zM636 152q0 75 -21.5 109.5
t-55.5 34.5q-30 0 -47.5 -31.5t-17.5 -86.5q0 -69 21 -107t56 -38q32 0 48.5 32.5t16.5 86.5z" />
    <glyph glyph-name="perthousand.tab" horiz-adv-x="1100" 
d="M108 10l482 689l44 -31l-483 -689zM34 516q0 38 12.5 70.5t33 56t48 36.5t57.5 13t57.5 -13t48 -36.5t33 -56t12.5 -70.5t-12 -70.5t-32 -55.5t-48 -36t-59 -13q-32 0 -59.5 13t-47.5 36t-32 55.5t-12 70.5zM256 504q0 75 -21.5 109.5t-55.5 34.5q-30 0 -47.5 -31.5
t-17.5 -86.5q0 -69 21 -107t56 -38q32 0 48.5 32.5t16.5 86.5zM412 164q0 38 12.5 70.5t33 56t48 36.5t57.5 13t57.5 -13t48 -36.5t33 -56t12.5 -70.5t-12 -70.5t-32 -55.5t-48 -36t-59 -13q-32 0 -59.5 13t-47.5 36t-32 55.5t-12 70.5zM764 164q0 38 12.5 70.5t33 56
t48 36.5t57.5 13t57.5 -13t48 -36.5t33 -56t12.5 -70.5t-12 -70.5t-32 -55.5t-48 -36t-59 -13q-32 0 -59.5 13t-47.5 36t-32 55.5t-12 70.5zM634 152q0 75 -21.5 109.5t-55.5 34.5q-30 0 -47.5 -31.5t-17.5 -86.5q0 -69 21 -107t56 -38q32 0 48.5 32.5t16.5 86.5zM986 152
q0 75 -21.5 109.5t-55.5 34.5q-30 0 -47.5 -31.5t-17.5 -86.5q0 -69 21 -107t56 -38q32 0 48.5 32.5t16.5 86.5z" />
    <glyph glyph-name="plus.tab" 
d="M241 326h-198v50h198v200h58v-200h198v-50h-198v-200h-58v200z" />
    <glyph glyph-name="minus.tab" 
d="M48 376h444v-50h-444v50z" />
    <glyph glyph-name="multiply.tab" 
d="M73 180l159 166l-158 160l40 41l157 -161l155 162l38 -37l-156 -163l162 -166l-38 -38l-163 165l-158 -165z" />
    <glyph glyph-name="divide.tab" 
d="M270 456q-29 0 -47.5 19t-18.5 47t18 47t48 19q29 0 47.5 -19t18.5 -47t-18.5 -47t-47.5 -19zM48 376h444v-50h-444v50zM270 104q-29 0 -47.5 19t-18.5 47t18 47t48 19q29 0 47.5 -19t18.5 -47t-18.5 -47t-47.5 -19z" />
    <glyph glyph-name="equal.tab" 
d="M48 454h444v-50h-444v50zM48 294h444v-50h-444v50z" />
    <glyph glyph-name="less.tab" 
d="M465 538v-50l-352 -137l352 -136v-51l-414 161v50z" />
    <glyph glyph-name="greater.tab" 
d="M76 164v50l352 137l-352 136v51l414 -161v-50z" />
    <glyph glyph-name="period.tab" horiz-adv-x="270" 
d="M135 -12q-29 0 -47.5 19t-18.5 47t18 47t48 19q29 0 47.5 -19t18.5 -47t-18.5 -47t-47.5 -19z" />
    <glyph glyph-name="comma.tab" horiz-adv-x="270" 
d="M77 -113q-14 0 -14 13q0 6 8 14.5t19 20t22.5 26.5t17.5 35q-30 1 -45.5 18t-15.5 43t18.5 44.5t46.5 18.5q30 0 48.5 -22t18.5 -60q0 -31 -13 -58.5t-32 -48t-40.5 -32.5t-38.5 -12z" />
    <glyph glyph-name="colon.tab" horiz-adv-x="270" 
d="M135 318q-29 0 -47.5 19t-18.5 47t18 47t48 19q29 0 47.5 -19t18.5 -47t-18.5 -47t-47.5 -19zM135 -12q-29 0 -47.5 19t-18.5 47t18 47t48 19q29 0 47.5 -19t18.5 -47t-18.5 -47t-47.5 -19z" />
    <glyph glyph-name="semicolon.tab" horiz-adv-x="270" 
d="M135 318q-29 0 -47.5 19t-18.5 47t18 47t48 19q29 0 47.5 -19t18.5 -47t-18.5 -47t-47.5 -19zM77 -113q-14 0 -14 13q0 6 8 14.5t19 20t22.5 26.5t17.5 35q-30 1 -45.5 18t-15.5 43t18.5 44.5t46.5 18.5q30 0 48.5 -22t18.5 -60q0 -31 -13 -58.5t-32 -48t-40.5 -32.5
t-38.5 -12z" />
    <glyph glyph-name="zero.num" unicode="&#xe416;" horiz-adv-x="396" 
d="M34 483q0 45 13.5 82.5t36.5 65t52 43t61 15.5q36 0 66.5 -15.5t52.5 -43t34 -65t12 -82.5t-12.5 -83.5t-34.5 -66t-51.5 -43t-63.5 -15.5q-35 0 -65 15.5t-52.5 43t-35.5 66t-13 83.5zM282 460q0 92 -23.5 142.5t-65.5 50.5q-34 0 -56.5 -39t-22.5 -109q0 -92 25 -142.5
t67 -50.5q35 0 55.5 39t20.5 109z" />
    <glyph glyph-name="one.num" unicode="&#xe417;" horiz-adv-x="221" 
d="M30 519v49l81 104q10 14 25 14q17 0 17 -20v-349l39 -3v-32h-151v32l39 3v261z" />
    <glyph glyph-name="two.num" unicode="&#xe418;" horiz-adv-x="326" 
d="M156 689q68 0 101.5 -31t33.5 -82q0 -25 -9 -46t-24 -39t-35.5 -34t-43.5 -32q-32 -22 -57 -42t-38 -46h92q38 0 56.5 8.5t33.5 28.5q7 11 15 11q14 0 13 -19q-2 -17 -8 -42.5t-12 -41.5h-227q-9 0 -13.5 2.5t-4.5 12.5q1 22 10.5 42t25 39t34.5 37t39 36q33 30 53 61
t20 69q0 34 -17.5 53t-48.5 19q-28 0 -45 -13t-17 -30q0 -9 6.5 -13.5t14 -9t14 -11.5t6.5 -19q0 -15 -9.5 -24.5t-25.5 -9.5q-20 0 -37.5 16t-17.5 51q0 22 9.5 40t26 31t38.5 20.5t48 7.5z" />
    <glyph glyph-name="three.num" unicode="&#xe419;" horiz-adv-x="326" 
d="M140 275q-51 0 -85 24t-34 68q0 32 16 47.5t36 15.5q34 0 34 -31q0 -12 -5.5 -18t-12.5 -10t-12.5 -8.5t-5.5 -11.5q0 -17 17.5 -28t45.5 -11q40 0 62 24t22 66q0 44 -20.5 66t-57.5 22q-13 0 -21 -2.5t-15 -2.5q-9 0 -12.5 8t4.5 16l116 120h-58q-20 0 -33.5 -1
t-23.5 -3.5t-17.5 -7.5t-14.5 -13q-4 -4 -6.5 -6t-8.5 -2q-5 0 -9 3.5t-2 11.5q2 14 8.5 35t13.5 36h214q17 0 17 -13q0 -8 -5 -15.5t-13 -15.5l-115 -114q29 1 54.5 -6.5t44 -22t29.5 -36t11 -49.5q0 -57 -41 -96t-117 -39z" />
    <glyph glyph-name="four.num" unicode="&#xe41a;" horiz-adv-x="337" 
d="M297 282h-150v32l39 3v65h-144q-21 0 -21 17v9q0 10 2 15.5t10 14.5l169 226q8 10 14.5 16.5t18.5 6.5q23 0 23 -26v-235h55v-44h-55v-65l39 -3v-32zM186 426v160l-118 -160h118z" />
    <glyph glyph-name="five.num" unicode="&#xe41b;" horiz-adv-x="328" 
d="M137 312q36 0 57.5 27t21.5 74q0 49 -20.5 72t-56.5 23q-23 0 -39 -7.5t-24 -13.5q-8 -5 -16 -1.5t-6 14.5l40 172q2 10 15 10h91q16 0 25.5 1t16 2.5t10 4t7.5 6.5q6 5 9.5 8t8.5 3q12 0 11 -14q-2 -10 -7.5 -30.5t-12.5 -36.5h-145l-21 -92q11 5 24.5 8t31.5 3
q68 0 103 -34.5t35 -89.5q0 -32 -11 -58.5t-31 -46t-48 -30.5t-62 -11q-56 0 -89.5 26t-33.5 68q0 32 16 47.5t36 15.5q17 0 25.5 -8.5t8.5 -22.5q0 -11 -5.5 -17.5t-12 -11t-12 -9t-5.5 -11.5q0 -17 17.5 -28.5t47.5 -11.5z" />
    <glyph glyph-name="six.num" unicode="&#xe41c;" horiz-adv-x="358" 
d="M329 420q0 -29 -9.5 -55t-27.5 -46t-44.5 -32t-59.5 -12q-36 0 -64.5 13.5t-48.5 38t-30.5 58.5t-10.5 75q0 52 13.5 94.5t38 72.5t58 46t73.5 16q48 0 68 -15t20 -35q0 -14 -8.5 -23t-22.5 -9t-22.5 7t-15.5 16t-15.5 16t-21.5 7q-31 0 -56 -37t-33 -118
q14 20 36.5 33.5t54.5 13.5q57 0 92.5 -33.5t35.5 -91.5zM114 417q0 -51 20 -78t55 -27q32 0 47.5 24.5t15.5 66.5q0 49 -17.5 76.5t-52.5 27.5q-11 0 -23 -4.5t-22 -15t-16.5 -28t-6.5 -42.5z" />
    <glyph glyph-name="seven.num" unicode="&#xe41d;" horiz-adv-x="297" 
d="M59 282l174 345h-104q-17 0 -29 -1.5t-21 -4.5t-16 -8t-15 -13q-4 -4 -7 -6t-8 -2q-13 0 -11 16q2 14 8 35.5t14 38.5h217q13 0 15.5 -4.5t-1.5 -14.5l-130 -381h-86z" />
    <glyph glyph-name="eight.num" unicode="&#xe41e;" horiz-adv-x="344" 
d="M315 395q0 -55 -39.5 -88t-102.5 -33q-68 0 -106 30t-38 73q0 41 24.5 67t59.5 40q-31 16 -49.5 40.5t-18.5 60.5q0 47 35.5 75.5t89.5 28.5q52 0 88.5 -23.5t36.5 -66.5q0 -33 -20.5 -54t-51.5 -34q43 -20 67.5 -46.5t24.5 -69.5zM108 600q0 -21 16.5 -39.5t66.5 -36.5
q19 10 31.5 27t12.5 40q0 32 -19 47t-46 15q-26 0 -44 -13.5t-18 -39.5zM93 387q0 -33 22.5 -53.5t57.5 -20.5q36 0 55.5 18.5t19.5 46.5q0 32 -25.5 52.5t-79.5 40.5q-23 -14 -36.5 -36t-13.5 -48z" />
    <glyph glyph-name="nine.num" unicode="&#xe41f;" horiz-adv-x="358" 
d="M323 501q0 -51 -13 -93t-36.5 -71.5t-57 -45.5t-74.5 -16q-52 0 -77 16.5t-25 39.5q0 14 8.5 23t23.5 9q14 0 22.5 -8t16.5 -17.5t18 -17.5t28 -8q36 0 59.5 36.5t30.5 116.5q-13 -20 -35 -33t-54 -13q-58 0 -94 34t-36 91q0 29 10 55.5t28 46.5t44.5 31.5t59.5 11.5
q74 0 113.5 -50.5t39.5 -137.5zM243 547q0 51 -19.5 78t-54.5 27q-32 0 -48 -25t-16 -67q0 -48 18 -75.5t53 -27.5q11 0 23 4.5t21.5 15t16 27.5t6.5 43z" />
    <glyph glyph-name="zero.den" unicode="&#xe402;" horiz-adv-x="396" 
d="M34 201q0 45 13.5 82.5t36.5 65t52 43t61 15.5q36 0 66.5 -15.5t52.5 -43t34 -65t12 -82.5t-12.5 -83.5t-34.5 -66t-51.5 -43t-63.5 -15.5q-35 0 -65 15.5t-52.5 43t-35.5 66t-13 83.5zM282 178q0 92 -23.5 142.5t-65.5 50.5q-34 0 -56.5 -39t-22.5 -109q0 -92 25 -142.5
t67 -50.5q35 0 55.5 39t20.5 109z" />
    <glyph glyph-name="one.den" unicode="&#xe403;" horiz-adv-x="221" 
d="M30 237v49l81 104q10 14 25 14q17 0 17 -20v-349l39 -3v-32h-151v32l39 3v261z" />
    <glyph glyph-name="two.den" unicode="&#xe404;" horiz-adv-x="326" 
d="M156 407q68 0 101.5 -31t33.5 -82q0 -25 -9 -46t-24 -39t-35.5 -34t-43.5 -32q-32 -22 -57 -42t-38 -46h92q38 0 56.5 8.5t33.5 28.5q7 11 15 11q14 0 13 -19q-2 -17 -8 -42.5t-12 -41.5h-227q-9 0 -13.5 2.5t-4.5 12.5q1 22 10.5 42t25 39t34.5 37t39 36q33 30 53 61
t20 69q0 34 -17.5 53t-48.5 19q-28 0 -45 -13t-17 -30q0 -9 6.5 -13.5t14 -9t14 -11.5t6.5 -19q0 -15 -9.5 -24.5t-25.5 -9.5q-20 0 -37.5 16t-17.5 51q0 22 9.5 40t26 31t38.5 20.5t48 7.5z" />
    <glyph glyph-name="three.den" unicode="&#xe405;" horiz-adv-x="326" 
d="M140 -7q-51 0 -85 24t-34 68q0 32 16 47.5t36 15.5q34 0 34 -31q0 -12 -5.5 -18t-12.5 -10t-12.5 -8.5t-5.5 -11.5q0 -17 17.5 -28t45.5 -11q40 0 62 24t22 66q0 44 -20.5 66t-57.5 22q-13 0 -21 -2.5t-15 -2.5q-9 0 -12.5 8t4.5 16l116 120h-58q-20 0 -33.5 -1
t-23.5 -3.5t-17.5 -7.5t-14.5 -13q-4 -4 -6.5 -6t-8.5 -2q-5 0 -9 3.5t-2 11.5q2 14 8.5 35t13.5 36h214q17 0 17 -13q0 -8 -5 -15.5t-13 -15.5l-115 -114q29 1 54.5 -6.5t44 -22t29.5 -36t11 -49.5q0 -57 -41 -96t-117 -39z" />
    <glyph glyph-name="four.den" unicode="&#xe406;" horiz-adv-x="337" 
d="M297 0h-150v32l39 3v65h-144q-21 0 -21 17v9q0 10 2 15.5t10 14.5l169 226q8 10 14.5 16.5t18.5 6.5q23 0 23 -26v-235h55v-44h-55v-65l39 -3v-32zM186 144v160l-118 -160h118z" />
    <glyph glyph-name="five.den" unicode="&#xe407;" horiz-adv-x="328" 
d="M137 30q36 0 57.5 27t21.5 74q0 49 -20.5 72t-56.5 23q-23 0 -39 -7.5t-24 -13.5q-8 -5 -16 -1.5t-6 14.5l40 172q2 10 15 10h91q16 0 25.5 1t16 2.5t10 4t7.5 6.5q6 5 9.5 8t8.5 3q12 0 11 -14q-2 -10 -7.5 -30.5t-12.5 -36.5h-145l-21 -92q11 5 24.5 8t31.5 3
q68 0 103 -34.5t35 -89.5q0 -32 -11 -58.5t-31 -46t-48 -30.5t-62 -11q-56 0 -89.5 26t-33.5 68q0 32 16 47.5t36 15.5q17 0 25.5 -8.5t8.5 -22.5q0 -11 -5.5 -17.5t-12 -11t-12 -9t-5.5 -11.5q0 -17 17.5 -28.5t47.5 -11.5z" />
    <glyph glyph-name="six.den" unicode="&#xe408;" horiz-adv-x="358" 
d="M329 138q0 -29 -9.5 -55t-27.5 -46t-44.5 -32t-59.5 -12q-36 0 -64.5 13.5t-48.5 38t-30.5 58.5t-10.5 75q0 52 13.5 94.5t38 72.5t58 46t73.5 16q48 0 68 -15t20 -35q0 -14 -8.5 -23t-22.5 -9t-22.5 7t-15.5 16t-15.5 16t-21.5 7q-31 0 -56 -37t-33 -118
q14 20 36.5 33.5t54.5 13.5q57 0 92.5 -33.5t35.5 -91.5zM114 135q0 -51 20 -78t55 -27q32 0 47.5 24.5t15.5 66.5q0 49 -17.5 76.5t-52.5 27.5q-11 0 -23 -4.5t-22 -15t-16.5 -28t-6.5 -42.5z" />
    <glyph glyph-name="seven.den" unicode="&#xe409;" horiz-adv-x="297" 
d="M59 0l174 345h-104q-17 0 -29 -1.5t-21 -4.5t-16 -8t-15 -13q-4 -4 -7 -6t-8 -2q-13 0 -11 16q2 14 8 35.5t14 38.5h217q13 0 15.5 -4.5t-1.5 -14.5l-130 -381h-86z" />
    <glyph glyph-name="eight.den" unicode="&#xe40a;" horiz-adv-x="344" 
d="M315 113q0 -55 -39.5 -88t-102.5 -33q-68 0 -106 30t-38 73q0 41 24.5 67t59.5 40q-31 16 -49.5 40.5t-18.5 60.5q0 47 35.5 75.5t89.5 28.5q52 0 88.5 -23.5t36.5 -66.5q0 -33 -20.5 -54t-51.5 -34q43 -20 67.5 -46.5t24.5 -69.5zM108 318q0 -21 16.5 -39.5t66.5 -36.5
q19 10 31.5 27t12.5 40q0 32 -19 47t-46 15q-26 0 -44 -13.5t-18 -39.5zM93 105q0 -33 22.5 -53.5t57.5 -20.5q36 0 55.5 18.5t19.5 46.5q0 32 -25.5 52.5t-79.5 40.5q-23 -14 -36.5 -36t-13.5 -48z" />
    <glyph glyph-name="nine.den" unicode="&#xe40b;" horiz-adv-x="358" 
d="M323 219q0 -51 -13 -93t-36.5 -71.5t-57 -45.5t-74.5 -16q-52 0 -77 16.5t-25 39.5q0 14 8.5 23t23.5 9q14 0 22.5 -8t16.5 -17.5t18 -17.5t28 -8q36 0 59.5 36.5t30.5 116.5q-13 -20 -35 -33t-54 -13q-58 0 -94 34t-36 91q0 29 10 55.5t28 46.5t44.5 31.5t59.5 11.5
q74 0 113.5 -50.5t39.5 -137.5zM243 265q0 51 -19.5 78t-54.5 27q-32 0 -48 -25t-16 -67q0 -48 18 -75.5t53 -27.5q11 0 23 4.5t21.5 15t16 27.5t6.5 43z" />
    <glyph glyph-name="zero.sub" unicode="&#x2080;" horiz-adv-x="423" 
d="M34 56q0 45 13.5 82.5t36.5 65t52 43t61 15.5q36 0 66.5 -15.5t52.5 -43t34 -65t12 -82.5t-12.5 -83.5t-34.5 -66t-51.5 -43t-63.5 -15.5q-35 0 -65 15.5t-52.5 43t-35.5 66t-13 83.5zM282 33q0 92 -23.5 142.5t-65.5 50.5q-34 0 -56.5 -39t-22.5 -109q0 -92 25 -142.5
t67 -50.5q35 0 55.5 39t20.5 109z" />
    <glyph glyph-name="one.sub" unicode="&#x2081;" horiz-adv-x="221" 
d="M30 92v49l81 104q10 14 25 14q17 0 17 -20v-349l39 -3v-32h-151v32l39 3v261z" />
    <glyph glyph-name="two.sub" unicode="&#x2082;" horiz-adv-x="326" 
d="M156 262q68 0 101.5 -31t33.5 -82q0 -25 -9 -46t-24 -39t-35.5 -34t-43.5 -32q-32 -22 -57 -42t-38 -46h92q38 0 56.5 8.5t33.5 28.5q7 11 15 11q14 0 13 -19q-2 -17 -8 -42.5t-12 -41.5h-227q-9 0 -13.5 2.5t-4.5 12.5q1 22 10.5 42t25 39t34.5 37t39 36q33 30 53 61
t20 69q0 34 -17.5 53t-48.5 19q-28 0 -45 -13t-17 -30q0 -9 6.5 -13.5t14 -9t14 -11.5t6.5 -19q0 -15 -9.5 -24.5t-25.5 -9.5q-20 0 -37.5 16t-17.5 51q0 22 9.5 40t26 31t38.5 20.5t48 7.5z" />
    <glyph glyph-name="three.sub" unicode="&#x2083;" horiz-adv-x="326" 
d="M140 -152q-51 0 -85 24t-34 68q0 32 16 47.5t36 15.5q34 0 34 -31q0 -12 -5.5 -18t-12.5 -10t-12.5 -8.5t-5.5 -11.5q0 -17 17.5 -28t45.5 -11q40 0 62 24t22 66q0 44 -20.5 66t-57.5 22q-13 0 -21 -2.5t-15 -2.5q-9 0 -12.5 8t4.5 16l116 120h-58q-20 0 -33.5 -1
t-23.5 -3.5t-17.5 -7.5t-14.5 -13q-4 -4 -6.5 -6t-8.5 -2q-5 0 -9 3.5t-2 11.5q2 14 8.5 35t13.5 36h214q17 0 17 -13q0 -8 -5 -15.5t-13 -15.5l-115 -114q29 1 54.5 -6.5t44 -22t29.5 -36t11 -49.5q0 -57 -41 -96t-117 -39z" />
    <glyph glyph-name="four.sub" unicode="&#x2084;" horiz-adv-x="337" 
d="M297 -145h-150v32l39 3v65h-144q-21 0 -21 17v9q0 10 2 15.5t10 14.5l169 226q8 10 14.5 16.5t18.5 6.5q23 0 23 -26v-235h55v-44h-55v-65l39 -3v-32zM186 -1v160l-118 -160h118z" />
    <glyph glyph-name="five.sub" unicode="&#x2085;" horiz-adv-x="328" 
d="M137 -115q36 0 57.5 27t21.5 74q0 49 -20.5 72t-56.5 23q-23 0 -39 -7.5t-24 -13.5q-8 -5 -16 -1.5t-6 14.5l40 172q2 10 15 10h91q16 0 25.5 1t16 2.5t10 4t7.5 6.5q6 5 9.5 8t8.5 3q12 0 11 -14q-2 -10 -7.5 -30.5t-12.5 -36.5h-145l-21 -92q11 5 24.5 8t31.5 3
q68 0 103 -34.5t35 -89.5q0 -32 -11 -58.5t-31 -46t-48 -30.5t-62 -11q-56 0 -89.5 26t-33.5 68q0 32 16 47.5t36 15.5q17 0 25.5 -8.5t8.5 -22.5q0 -11 -5.5 -17.5t-12 -11t-12 -9t-5.5 -11.5q0 -17 17.5 -28.5t47.5 -11.5z" />
    <glyph glyph-name="six.sub" unicode="&#x2086;" horiz-adv-x="358" 
d="M329 -7q0 -29 -9.5 -55t-27.5 -46t-44.5 -32t-59.5 -12q-36 0 -64.5 13.5t-48.5 38t-30.5 58.5t-10.5 75q0 52 13.5 94.5t38 72.5t58 46t73.5 16q48 0 68 -15t20 -35q0 -14 -8.5 -23t-22.5 -9t-22.5 7t-15.5 16t-15.5 16t-21.5 7q-31 0 -56 -37t-33 -118q14 20 36.5 33.5
t54.5 13.5q57 0 92.5 -33.5t35.5 -91.5zM114 -10q0 -51 20 -78t55 -27q32 0 47.5 24.5t15.5 66.5q0 49 -17.5 76.5t-52.5 27.5q-11 0 -23 -4.5t-22 -15t-16.5 -28t-6.5 -42.5z" />
    <glyph glyph-name="seven.sub" unicode="&#x2087;" horiz-adv-x="297" 
d="M59 -145l174 345h-104q-17 0 -29 -1.5t-21 -4.5t-16 -8t-15 -13q-4 -4 -7 -6t-8 -2q-13 0 -11 16q2 14 8 35.5t14 38.5h217q13 0 15.5 -4.5t-1.5 -14.5l-130 -381h-86z" />
    <glyph glyph-name="eight.sub" unicode="&#x2088;" horiz-adv-x="344" 
d="M315 -32q0 -55 -39.5 -88t-102.5 -33q-68 0 -106 30t-38 73q0 41 24.5 67t59.5 40q-31 16 -49.5 40.5t-18.5 60.5q0 47 35.5 75.5t89.5 28.5q52 0 88.5 -23.5t36.5 -66.5q0 -33 -20.5 -54t-51.5 -34q43 -20 67.5 -46.5t24.5 -69.5zM108 173q0 -21 16.5 -39.5t66.5 -36.5
q19 10 31.5 27t12.5 40q0 32 -19 47t-46 15q-26 0 -44 -13.5t-18 -39.5zM93 -40q0 -33 22.5 -53.5t57.5 -20.5q36 0 55.5 18.5t19.5 46.5q0 32 -25.5 52.5t-79.5 40.5q-23 -14 -36.5 -36t-13.5 -48z" />
    <glyph glyph-name="nine.sub" unicode="&#x2089;" horiz-adv-x="358" 
d="M323 74q0 -51 -13 -93t-36.5 -71.5t-57 -45.5t-74.5 -16q-52 0 -77 16.5t-25 39.5q0 14 8.5 23t23.5 9q14 0 22.5 -8t16.5 -17.5t18 -17.5t28 -8q36 0 59.5 36.5t30.5 116.5q-13 -20 -35 -33t-54 -13q-58 0 -94 34t-36 91q0 29 10 55.5t28 46.5t44.5 31.5t59.5 11.5
q74 0 113.5 -50.5t39.5 -137.5zM243 120q0 51 -19.5 78t-54.5 27q-32 0 -48 -25t-16 -67q0 -48 18 -75.5t53 -27.5q11 0 23 4.5t21.5 15t16 27.5t6.5 43z" />
    <glyph glyph-name="zero.sup" unicode="&#x2070;" horiz-adv-x="396" 
d="M34 501q0 45 13.5 82.5t36.5 65t52 43t61 15.5q36 0 66.5 -15.5t52.5 -43t34 -65t12 -82.5t-12.5 -83.5t-34.5 -66t-51.5 -43t-63.5 -15.5q-35 0 -65 15.5t-52.5 43t-35.5 66t-13 83.5zM282 478q0 92 -23.5 142.5t-65.5 50.5q-34 0 -56.5 -39t-22.5 -109q0 -92 25 -142.5
t67 -50.5q35 0 55.5 39t20.5 109z" />
    <glyph glyph-name="one.sup" unicode="&#xb9;" horiz-adv-x="221" 
d="M30 537v49l81 104q10 14 25 14q17 0 17 -20v-349l39 -3v-32h-151v32l39 3v261z" />
    <glyph glyph-name="two.sup" unicode="&#xb2;" horiz-adv-x="326" 
d="M156 707q68 0 101.5 -31t33.5 -82q0 -25 -9 -46t-24 -39t-35.5 -34t-43.5 -32q-32 -22 -57 -42t-38 -46h92q38 0 56.5 8.5t33.5 28.5q7 11 15 11q14 0 13 -19q-2 -17 -8 -42.5t-12 -41.5h-227q-9 0 -13.5 2.5t-4.5 12.5q1 22 10.5 42t25 39t34.5 37t39 36q33 30 53 61
t20 69q0 34 -17.5 53t-48.5 19q-28 0 -45 -13t-17 -30q0 -9 6.5 -13.5t14 -9t14 -11.5t6.5 -19q0 -15 -9.5 -24.5t-25.5 -9.5q-20 0 -37.5 16t-17.5 51q0 22 9.5 40t26 31t38.5 20.5t48 7.5z" />
    <glyph glyph-name="three.sup" unicode="&#xb3;" horiz-adv-x="326" 
d="M140 293q-51 0 -85 24t-34 68q0 32 16 47.5t36 15.5q34 0 34 -31q0 -12 -5.5 -18t-12.5 -10t-12.5 -8.5t-5.5 -11.5q0 -17 17.5 -28t45.5 -11q40 0 62 24t22 66q0 44 -20.5 66t-57.5 22q-13 0 -21 -2.5t-15 -2.5q-9 0 -12.5 8t4.5 16l116 120h-58q-20 0 -33.5 -1
t-23.5 -3.5t-17.5 -7.5t-14.5 -13q-4 -4 -6.5 -6t-8.5 -2q-5 0 -9 3.5t-2 11.5q2 14 8.5 35t13.5 36h214q17 0 17 -13q0 -8 -5 -15.5t-13 -15.5l-115 -114q29 1 54.5 -6.5t44 -22t29.5 -36t11 -49.5q0 -57 -41 -96t-117 -39z" />
    <glyph glyph-name="four.sup" unicode="&#x2074;" horiz-adv-x="337" 
d="M297 300h-150v32l39 3v65h-144q-21 0 -21 17v9q0 10 2 15.5t10 14.5l169 226q8 10 14.5 16.5t18.5 6.5q23 0 23 -26v-235h55v-44h-55v-65l39 -3v-32zM186 444v160l-118 -160h118z" />
    <glyph glyph-name="five.sup" unicode="&#x2075;" horiz-adv-x="328" 
d="M137 330q36 0 57.5 27t21.5 74q0 49 -20.5 72t-56.5 23q-23 0 -39 -7.5t-24 -13.5q-8 -5 -16 -1.5t-6 14.5l40 172q2 10 15 10h91q16 0 25.5 1t16 2.5t10 4t7.5 6.5q6 5 9.5 8t8.5 3q12 0 11 -14q-2 -10 -7.5 -30.5t-12.5 -36.5h-145l-21 -92q11 5 24.5 8t31.5 3
q68 0 103 -34.5t35 -89.5q0 -32 -11 -58.5t-31 -46t-48 -30.5t-62 -11q-56 0 -89.5 26t-33.5 68q0 32 16 47.5t36 15.5q17 0 25.5 -8.5t8.5 -22.5q0 -11 -5.5 -17.5t-12 -11t-12 -9t-5.5 -11.5q0 -17 17.5 -28.5t47.5 -11.5z" />
    <glyph glyph-name="six.sup" unicode="&#x2076;" horiz-adv-x="358" 
d="M329 438q0 -29 -9.5 -55t-27.5 -46t-44.5 -32t-59.5 -12q-36 0 -64.5 13.5t-48.5 38t-30.5 58.5t-10.5 75q0 52 13.5 94.5t38 72.5t58 46t73.5 16q48 0 68 -15t20 -35q0 -14 -8.5 -23t-22.5 -9t-22.5 7t-15.5 16t-15.5 16t-21.5 7q-31 0 -56 -37t-33 -118
q14 20 36.5 33.5t54.5 13.5q57 0 92.5 -33.5t35.5 -91.5zM114 435q0 -51 20 -78t55 -27q32 0 47.5 24.5t15.5 66.5q0 49 -17.5 76.5t-52.5 27.5q-11 0 -23 -4.5t-22 -15t-16.5 -28t-6.5 -42.5z" />
    <glyph glyph-name="seven.sup" unicode="&#x2077;" horiz-adv-x="297" 
d="M59 300l174 345h-104q-17 0 -29 -1.5t-21 -4.5t-16 -8t-15 -13q-4 -4 -7 -6t-8 -2q-13 0 -11 16q2 14 8 35.5t14 38.5h217q13 0 15.5 -4.5t-1.5 -14.5l-130 -381h-86z" />
    <glyph glyph-name="eight.sup" unicode="&#x2078;" horiz-adv-x="344" 
d="M315 413q0 -55 -39.5 -88t-102.5 -33q-68 0 -106 30t-38 73q0 41 24.5 67t59.5 40q-31 16 -49.5 40.5t-18.5 60.5q0 47 35.5 75.5t89.5 28.5q52 0 88.5 -23.5t36.5 -66.5q0 -33 -20.5 -54t-51.5 -34q43 -20 67.5 -46.5t24.5 -69.5zM108 618q0 -21 16.5 -39.5t66.5 -36.5
q19 10 31.5 27t12.5 40q0 32 -19 47t-46 15q-26 0 -44 -13.5t-18 -39.5zM93 405q0 -33 22.5 -53.5t57.5 -20.5q36 0 55.5 18.5t19.5 46.5q0 32 -25.5 52.5t-79.5 40.5q-23 -14 -36.5 -36t-13.5 -48z" />
    <glyph glyph-name="nine.sup" unicode="&#x2079;" horiz-adv-x="358" 
d="M323 519q0 -51 -13 -93t-36.5 -71.5t-57 -45.5t-74.5 -16q-52 0 -77 16.5t-25 39.5q0 14 8.5 23t23.5 9q14 0 22.5 -8t16.5 -17.5t18 -17.5t28 -8q36 0 59.5 36.5t30.5 116.5q-13 -20 -35 -33t-54 -13q-58 0 -94 34t-36 91q0 29 10 55.5t28 46.5t44.5 31.5t59.5 11.5
q74 0 113.5 -50.5t39.5 -137.5zM243 565q0 51 -19.5 78t-54.5 27q-32 0 -48 -25t-16 -67q0 -48 18 -75.5t53 -27.5q11 0 23 4.5t21.5 15t16 27.5t6.5 43z" />
    <glyph glyph-name="caron.alt" horiz-adv-x="500" 
d="M206 656q4 38 14 60.5t39 22.5q18 0 28.5 -11t10.5 -30q0 -14 -6.5 -30.5t-19.5 -39.5l-44 -78l-32 9z" />
    <glyph glyph-name="questiondown.uc" horiz-adv-x="427" 
d="M233 694q29 0 47.5 -19t18.5 -47t-18 -47t-48 -19q-29 0 -47.5 19t-18.5 47t18.5 47t47.5 19zM226 -12q-40 0 -75 11.5t-61.5 34t-42 55t-15.5 74.5q0 41 13.5 71.5t33.5 55.5t43 47.5t43 46t33 50.5t12 63h50q4 -39 -4 -68.5t-22.5 -54t-32.5 -47t-34 -47t-26.5 -54.5
t-10.5 -69q0 -58 26.5 -86.5t73.5 -28.5q46 0 73 26.5t27 60.5q0 17 -9.5 25.5t-20.5 16t-20.5 17.5t-9.5 29q0 20 15 31.5t33 11.5q32 0 57 -27.5t25 -79.5q0 -37 -14.5 -67.5t-38.5 -52t-55.5 -33.5t-65.5 -12z" />
    <glyph glyph-name="exclamdown.uc" horiz-adv-x="268" 
d="M134 694q29 0 47.5 -19t18.5 -47t-18.5 -47t-47.5 -19q-30 0 -48 19t-18 47t18.5 47t47.5 19zM157 497l34 -438q2 -32 -9 -45.5t-37 -13.5h-21q-26 0 -37 13.5t-9 45.5l33 438h46z" />
    <glyph glyph-name="hyphen.uc" horiz-adv-x="348" 
d="M65 362h218v-67h-218v67z" />
    <glyph glyph-name="endash.uc" horiz-adv-x="606" 
d="M65 354h476v-50h-476v50z" />
    <glyph glyph-name="emdash.uc" horiz-adv-x="870" 
d="M65 354h740v-50h-740v50z" />
    <glyph glyph-name="guilsinglleft.uc" horiz-adv-x="282" 
d="M200 160l-146 132q-14 13 -14 25q0 8 3 13t11 12l146 132l32 -29l-100 -128l100 -128z" />
    <glyph glyph-name="guilsinglright.uc" horiz-adv-x="284" 
d="M82 160l-32 29l100 128l-100 128l32 29l148 -132q8 -7 11 -12t3 -13q0 -12 -14 -25z" />
    <glyph glyph-name="guillemotleft.uc" horiz-adv-x="448" 
d="M188 160l-134 132q-14 14 -14 25q0 8 3 12.5t11 12.5l134 132l33 -27l-92 -130l92 -130zM365 160l-134 132q-14 14 -14 25q0 8 3 12.5t11 12.5l134 132l33 -27l-92 -130l92 -130z" />
    <glyph glyph-name="guillemotright.uc" horiz-adv-x="448" 
d="M260 160l-33 27l92 130l-92 130l33 27l134 -132q8 -8 11 -12.5t3 -12.5q0 -11 -14 -25zM83 160l-33 27l92 130l-92 130l33 27l134 -132q8 -8 11 -12.5t3 -12.5q0 -11 -14 -25z" />
    <glyph glyph-name="parenleft.uc" horiz-adv-x="283" 
d="M52 343q0 78 16.5 142.5t40.5 117t52 92t51 66.5h51q-23 -37 -45.5 -79.5t-41.5 -93t-30.5 -111.5t-11.5 -134q0 -72 11.5 -132.5t30.5 -111.5t41.5 -94t45.5 -81h-51q-23 27 -51 67t-52 92.5t-40.5 117t-16.5 142.5z" />
    <glyph glyph-name="parenright.uc" horiz-adv-x="283" 
d="M231 343q0 -78 -16.5 -142.5t-40.5 -117t-52 -92.5t-51 -67h-51q22 38 45 81t42 94t30.5 111.5t11.5 132.5q0 73 -11.5 134t-30.5 111.5t-42 93t-45 79.5h51q23 -27 51 -66.5t52 -92t40.5 -117t16.5 -142.5z" />
    <glyph glyph-name="bracketleft.uc" horiz-adv-x="247" 
d="M62 761h161v-50h-87v-737h87v-50h-161v837z" />
    <glyph glyph-name="bracketright.uc" horiz-adv-x="247" 
d="M24 761h161v-837h-161v50h87v737h-87v50z" />
    <glyph glyph-name="braceleft.uc" horiz-adv-x="246" 
d="M218 -71h-60q-54 0 -83 25t-29 73q0 25 11 59t24.5 68t25 64.5t11.5 49.5q0 23 -17 37.5t-50 14.5h-20v50h20q33 0 50 14.5t17 37.5q0 19 -11.5 49.5t-25 64.5t-24.5 67.5t-11 59.5q0 48 29 73t83 25h60v-47h-48q-26 0 -39 -14t-13 -37q0 -21 10 -51.5t22 -63t22 -63.5
t10 -53q0 -30 -18 -54.5t-53 -32.5q35 -8 53 -32.5t18 -54.5q0 -22 -10 -53t-22 -63.5t-22 -63t-10 -51.5q0 -23 13 -37t39 -14h48v-47z" />
    <glyph glyph-name="braceright.uc" horiz-adv-x="246" 
d="M200 27q0 -48 -29 -73t-83 -25h-60v47h48q26 0 39 14t13 37q0 21 -10 51.5t-22 63t-22 63.5t-10 53q0 30 18 54.5t53 32.5q-35 8 -53 32.5t-18 54.5q0 22 10 53t22 63.5t22 63t10 51.5q0 23 -13 37t-39 14h-48v47h60q54 0 83 -25t29 -73q0 -26 -11.5 -59.5t-25 -67.5
t-24.5 -64.5t-11 -49.5q0 -23 17 -37.5t50 -14.5h20v-50h-20q-33 0 -50 -14.5t-17 -37.5q0 -19 11 -49.5t24.5 -64.5t25 -68t11.5 -59z" />
    <glyph glyph-name="slash.uc" horiz-adv-x="346" 
d="M5 -87l267 837h59l-268 -837h-58z" />
    <glyph glyph-name="backslash.uc" horiz-adv-x="346" 
d="M15 750h59l267 -837h-58z" />
    <glyph glyph-name="bar.uc" horiz-adv-x="248" 
d="M95 -76v837h58v-837h-58z" />
    <glyph glyph-name="at.uc" horiz-adv-x="986" 
d="M607 114q-37 0 -53.5 14t-16.5 34q0 8 1 12q-19 -25 -53.5 -42.5t-69.5 -17.5q-63 0 -98.5 41.5t-35.5 113.5q0 54 19.5 107t55 95t85 68t109.5 26q29 0 48.5 -9t27.5 -23l72 30q15 7 11 -12l-87 -363q-2 -9 1 -14t9 -5q42 0 83 16.5t74 50t53 83.5t20 118q0 63 -18 117
t-56 94.5t-97 63.5t-141 23q-98 0 -176.5 -33t-133.5 -91.5t-84.5 -138.5t-29.5 -173q0 -83 27 -150.5t75 -115.5t115.5 -74.5t148.5 -26.5q60 0 109 13t89 32.5t69.5 42t50.5 42.5l31 -32q-19 -22 -50.5 -48.5t-75.5 -49t-101.5 -38t-128.5 -15.5q-94 0 -173.5 28.5
t-137.5 81t-90.5 128t-32.5 169.5q0 103 36 194.5t101.5 159t157.5 107t204 39.5q98 0 170.5 -26.5t120 -72t71 -106t23.5 -127.5q0 -84 -28 -147.5t-73.5 -106.5t-104.5 -64.5t-122 -21.5zM599 447q7 29 -6 48.5t-45 19.5q-40 0 -72 -22t-55 -57.5t-35.5 -79.5t-12.5 -87
q0 -97 66 -97q18 0 37 7.5t35 20t28 29.5t17 36z" />
    <glyph glyph-name="grave.uc" horiz-adv-x="500" 
d="M333 734l-96 24q-48 12 -69 26.5t-21 40.5q0 21 13 35t36 14q22 0 39.5 -11.5t46.5 -37.5l69 -62z" />
    <glyph glyph-name="dieresis.uc" horiz-adv-x="500" 
d="M155 748q-26 0 -42.5 17.5t-16.5 41.5t16.5 41.5t42.5 17.5q25 0 42 -17.5t17 -41.5t-17 -41.5t-42 -17.5zM345 748q-26 0 -42.5 17.5t-16.5 41.5t16.5 41.5t42.5 17.5q25 0 42 -17.5t17 -41.5t-17 -41.5t-42 -17.5z" />
    <glyph glyph-name="macron.uc" horiz-adv-x="500" 
d="M124 823h252v-69h-252v69z" />
    <glyph glyph-name="acute.uc" horiz-adv-x="500" 
d="M216 825q29 26 46.5 37.5t39.5 11.5q23 0 36 -14t13 -35q0 -26 -21 -40.5t-69 -26.5l-96 -24l-18 29z" />
    <glyph glyph-name="circumflex.uc" horiz-adv-x="500" 
d="M359 740l-109 51l-109 -51l-23 29l94 96q9 9 17 16t21 7t21 -7t17 -16l94 -96z" />
    <glyph glyph-name="caron.uc" horiz-adv-x="500" 
d="M288 765q-9 -9 -17 -16t-21 -7t-21 7t-17 16l-94 96l23 29l109 -51l109 51l23 -29l-94 -96v0z" />
    <glyph glyph-name="breve.uc" horiz-adv-x="500" 
d="M250 824q36 0 54.5 17t24.5 33l39 -9q0 -19 -7 -40t-21 -38.5t-36.5 -29t-53.5 -11.5t-53.5 11.5t-36.5 29t-21 38.5t-7 40l39 9q6 -16 24.5 -33t54.5 -17z" />
    <glyph glyph-name="dotaccent.uc" horiz-adv-x="500" 
d="M249 746q-26 0 -44 18.5t-18 43.5t17.5 43.5t44.5 18.5q26 0 44 -18.5t18 -43.5t-18 -43.5t-44 -18.5z" />
    <glyph glyph-name="ring.uc" horiz-adv-x="500" 
d="M250 938q21 0 39 -7.5t31.5 -20.5t21.5 -30.5t8 -37.5t-8 -37.5t-21.5 -30.5t-31.5 -20t-39 -7q-42 0 -71 27t-29 68q0 20 7.5 37.5t21 30.5t32 20.5t39.5 7.5zM250 896q-20 0 -32.5 -16t-12.5 -38t12.5 -37.5t32.5 -15.5t32.5 15.5t12.5 37.5t-12.5 38t-32.5 16z" />
    <glyph glyph-name="tilde.uc" horiz-adv-x="500" 
d="M197 782q-14 0 -26 -10.5t-19 -26.5l-37 13q5 45 26.5 72t52.5 27q17 0 31.5 -5t31.5 -12q14 -6 23.5 -9.5t19.5 -3.5q14 0 25.5 10t19.5 27l37 -13q-5 -47 -26.5 -73t-53.5 -26q-17 0 -30.5 4t-30.5 12q-15 7 -24 10.5t-20 3.5z" />
    <glyph glyph-name="hungarumlaut.uc" horiz-adv-x="500" 
d="M126 794q13 19 22.5 33t18 22.5t17 12.5t19.5 4q19 0 31 -11t12 -29t-12 -32.5t-46 -32.5l-74 -39l-23 21zM289 794q13 19 22.5 33t18 22.5t17 12.5t19.5 4q19 0 31 -11t12 -29t-12 -32.5t-46 -32.5l-74 -39l-23 21z" />
    <glyph glyph-name="f.short" horiz-adv-x="305" 
d="M23 500h79v31q0 45 11.5 83.5t32 66t47 43.5t56.5 16q32 0 49.5 -14.5t17.5 -36.5q0 -18 -10 -29.5t-34 -11.5q-11 0 -19.5 5t-15.5 11.5t-13 11.5t-12 5q-7 0 -12 -5t-8.5 -20t-5 -41.5t-1.5 -69.5v-45h97v-50h-97v-402l52 -4v-44h-179v44l44 4v402h-79v50z" />
    <glyph glyph-name="f_f.short" horiz-adv-x="574" 
d="M23 500h79v13q0 51 13 91.5t36.5 69t54.5 43.5t67 15q34 0 50.5 -14t16.5 -35q0 -17 -12 -29.5t-35 -12.5q-14 0 -22.5 5.5t-15.5 12t-13 12t-15 5.5q-20 0 -31 -30.5t-11 -84.5v-61h186v31q0 45 11.5 83.5t32 66t47 43.5t56.5 16q32 0 49.5 -14.5t17.5 -36.5
q0 -18 -10 -29.5t-34 -11.5q-11 0 -19.5 5t-15.5 11.5t-13 11.5t-12 5q-7 0 -12 -5t-8.5 -20t-5 -41.5t-1.5 -69.5v-45h97v-50h-97v-402l52 -4v-44h-179v44l44 4v402h-186v-402l52 -4v-44h-179v44l44 4v402h-79v50z" />
    <glyph glyph-name="uni2009" unicode="&#x2009;" horiz-adv-x="65" 
 />
    <glyph glyph-name="space.tab" horiz-adv-x="270" 
 />
    <glyph glyph-name="commaaccent" unicode="&#xf6c3;" horiz-adv-x="500" 
d="M220 -240q-11 0 -11 11q0 6 2.5 10t7 10t10.5 14.5t12 22.5h-2q-27 0 -40.5 15t-13.5 36q0 22 16.5 37.5t39.5 15.5q26 0 42.5 -18.5t16.5 -52.5q0 -20 -7.5 -38t-19 -32t-26 -22.5t-27.5 -8.5z" />
    <glyph glyph-name="commaaccent.alt" horiz-adv-x="500" 
d="M271 762q11 0 11 -11q0 -6 -3 -10l-7.5 -10t-10 -14.5t-11.5 -22.5h2q27 0 40.5 -15t13.5 -36q0 -22 -16.5 -37.5t-39.5 -15.5q-26 0 -42.5 18.5t-16.5 52.5q0 20 7.5 38t19 32t25.5 22.5t28 8.5z" />
    <glyph glyph-name="dotlessj" unicode="&#x237;" horiz-adv-x="241" 
d="M166 -40q0 -52 -29 -84.5t-86 -31.5q-27 0 -47.5 8.5t-34.5 22t-21.5 30t-7.5 31.5q0 27 24 27q10 0 15.5 -5t11.5 -15q9 -16 21.5 -26t29.5 -10q20 0 30.5 14.5t10.5 40.5v451l-41 5v41l108 52q16 8 16 -14v-537v0z" />
    <glyph glyph-name="minute" unicode="&#x2032;" horiz-adv-x="210" 
d="M73 483q-11 0 -14.5 8t-1.5 19q1 13 5.5 35t9.5 44.5t10.5 42.5t9.5 29q14 33 42 33q23 0 35.5 -12t12.5 -32q0 -11 -8.5 -30t-21.5 -40t-27.5 -42.5t-27.5 -38.5q-7 -9 -11.5 -12.5t-12.5 -3.5z" />
    <glyph glyph-name="second" unicode="&#x2033;" horiz-adv-x="366" 
d="M73 483q-11 0 -14.5 8t-1.5 19q1 13 5.5 35t9.5 44.5t10.5 42.5t9.5 29q14 33 42 33q23 0 35.5 -12t12.5 -32q0 -11 -8.5 -30t-21.5 -40t-27.5 -42.5t-27.5 -38.5q-7 -9 -11.5 -12.5t-12.5 -3.5zM229 483q-11 0 -14.5 8t-1.5 19q1 13 5.5 35t9.5 44.5t10.5 42.5t9.5 29
q14 33 42 33q23 0 35.5 -12t12.5 -32q0 -11 -8.5 -30t-21.5 -40t-27.5 -42.5t-27.5 -38.5q-7 -9 -11.5 -12.5t-12.5 -3.5z" />
    <glyph glyph-name="percent.alt" horiz-adv-x="740" 
d="M104 10l482 689l44 -31l-483 -689zM29 516q0 38 12.5 70.5t33 56t48 36.5t57.5 13t57.5 -13t48 -36.5t33 -56t12.5 -70.5t-12 -70.5t-32 -55.5t-48 -36t-59 -13q-32 0 -59.5 13t-47.5 36t-32 55.5t-12 70.5zM251 504q0 75 -21.5 109.5t-55.5 34.5q-30 0 -47.5 -31.5
t-17.5 -86.5q0 -69 21 -107t56 -38q32 0 48.5 32.5t16.5 86.5zM409 164q0 38 12.5 70.5t33 56t48 36.5t57.5 13t57.5 -13t48 -36.5t33 -56t12.5 -70.5t-12 -70.5t-32 -55.5t-48 -36t-59 -13q-32 0 -59.5 13t-47.5 36t-32 55.5t-12 70.5zM631 152q0 75 -21.5 109.5
t-55.5 34.5q-30 0 -47.5 -31.5t-17.5 -86.5q0 -69 21 -107t56 -38q32 0 48.5 32.5t16.5 86.5z" />
    <glyph glyph-name="perthousand.alt" horiz-adv-x="1093" 
d="M104 10l482 689l44 -31l-483 -689zM29 516q0 38 12.5 70.5t33 56t48 36.5t57.5 13t57.5 -13t48 -36.5t33 -56t12.5 -70.5t-12 -70.5t-32 -55.5t-48 -36t-59 -13q-32 0 -59.5 13t-47.5 36t-32 55.5t-12 70.5zM251 504q0 75 -21.5 109.5t-55.5 34.5q-30 0 -47.5 -31.5
t-17.5 -86.5q0 -69 21 -107t56 -38q32 0 48.5 32.5t16.5 86.5zM409 164q0 38 12.5 70.5t33 56t48 36.5t57.5 13t57.5 -13t48 -36.5t33 -56t12.5 -70.5t-12 -70.5t-32 -55.5t-48 -36t-59 -13q-32 0 -59.5 13t-47.5 36t-32 55.5t-12 70.5zM762 164q0 38 12.5 70.5t33 56
t48 36.5t57.5 13t57.5 -13t48 -36.5t33 -56t12.5 -70.5t-12 -70.5t-32 -55.5t-48 -36t-59 -13q-32 0 -59.5 13t-47.5 36t-32 55.5t-12 70.5zM631 152q0 75 -21.5 109.5t-55.5 34.5q-30 0 -47.5 -31.5t-17.5 -86.5q0 -69 21 -107t56 -38q32 0 48.5 32.5t16.5 86.5zM984 152
q0 75 -21.5 109.5t-55.5 34.5q-30 0 -47.5 -31.5t-17.5 -86.5q0 -69 21 -107t56 -38q32 0 48.5 32.5t16.5 86.5z" />
    </font>
</defs>
</svg>
